G04*
G04 #@! TF.GenerationSoftware,Altium Limited,Altium Designer,26.4.1 (12)*
G04*
G04 Layer_Color=8388736*
%FSLAX44Y44*%
%MOMM*%
G71*
G04*
G04 #@! TF.SameCoordinates,0A6EDB4D-EBB9-47F7-83F3-19040AB4B5EA*
G04*
G04*
G04 #@! TF.FilePolarity,Positive*
G04*
G01*
G75*
%ADD18C,0.1000*%
%ADD74C,0.0500*%
D18*
X1122760Y496570D02*
X1132760D01*
X1127760Y491570D02*
Y501570D01*
X1626870Y647780D02*
Y657780D01*
X1621870Y652780D02*
X1631870D01*
X1621870Y924560D02*
X1631870D01*
X1626870Y919560D02*
Y929560D01*
X1534240Y925830D02*
X1544240D01*
X1539240Y920830D02*
Y930830D01*
X1530350Y646510D02*
Y656510D01*
X1525350Y651510D02*
X1535350D01*
X1229520Y727790D02*
Y737790D01*
X1224520Y732790D02*
X1234520D01*
X1230630Y816690D02*
Y826690D01*
X1225630Y821690D02*
X1235630D01*
X1230630Y759540D02*
Y769540D01*
X1225630Y764540D02*
X1235630D01*
X1222950Y842170D02*
Y852170D01*
X1217950Y847170D02*
X1227950D01*
X1230630Y784940D02*
Y794940D01*
X1225630Y789940D02*
X1235630D01*
X1158320Y708476D02*
X1168320D01*
X1163320Y703476D02*
Y713476D01*
X1059260Y788486D02*
X1069260D01*
X1064260Y783486D02*
Y793486D01*
X896620Y574120D02*
Y584120D01*
X891620Y579120D02*
X901620D01*
X636350Y825500D02*
X646350D01*
X641350Y820500D02*
Y830500D01*
X1115721Y406400D02*
X1125721D01*
X1120721Y401400D02*
Y411400D01*
X1219280Y406400D02*
X1229280D01*
X1224280Y401400D02*
Y411400D01*
X503000Y664210D02*
X513000D01*
X508000Y659210D02*
Y669210D01*
X1224280Y490300D02*
Y500300D01*
X1219280Y495300D02*
X1229280D01*
X892890Y481330D02*
X902890D01*
X897890Y476330D02*
Y486330D01*
X501264Y762650D02*
X511264D01*
X506264Y757650D02*
Y767650D01*
X604600Y875240D02*
X614600D01*
X609600Y870240D02*
Y880240D01*
X673180Y979170D02*
X683180D01*
X678180Y974170D02*
Y984170D01*
X661566Y933450D02*
X671566D01*
X666566Y928450D02*
Y938450D01*
X788750Y901700D02*
X798750D01*
X793750Y896700D02*
Y906700D01*
X758270Y862330D02*
X768270D01*
X763270Y857330D02*
Y867330D01*
X1002110Y1101090D02*
X1012110D01*
X1007110Y1096090D02*
Y1106090D01*
X962740Y863600D02*
X972740D01*
X967740Y858600D02*
Y868600D01*
X1122680Y633810D02*
Y643810D01*
X1117680Y638810D02*
X1127680D01*
X961470Y684530D02*
X971470D01*
X966470Y679530D02*
Y689530D01*
X984440Y788670D02*
X994440D01*
X989440Y783670D02*
Y793670D01*
X1013540Y815340D02*
X1023540D01*
X1018540Y810340D02*
Y820340D01*
X577930Y823862D02*
X587930D01*
X582930Y818862D02*
Y828862D01*
D74*
X1121810Y887810D02*
Y897810D01*
X1116810Y892810D02*
X1126810D01*
X999570Y1016000D02*
X1009570D01*
X1004570Y1011000D02*
Y1021000D01*
M02*
