G04*
G04 #@! TF.GenerationSoftware,Altium Limited,Altium Designer,26.4.1 (12)*
G04*
G04 Layer_Color=32768*
%FSLAX44Y44*%
%MOMM*%
G71*
G04*
G04 #@! TF.SameCoordinates,0A6EDB4D-EBB9-47F7-83F3-19040AB4B5EA*
G04*
G04*
G04 #@! TF.FilePolarity,Positive*
G04*
G01*
G75*
%ADD18C,0.1000*%
G36*
X1075744Y873370D02*
X1088577Y878712D01*
X1088572Y878723D01*
X1087908Y880406D01*
X1086837Y883860D01*
X1086117Y887404D01*
X1085755Y891002D01*
X1085755Y894618D01*
X1086117Y898216D01*
X1086837Y901760D01*
X1087908Y905214D01*
X1088572Y906897D01*
X1088572D01*
X1088577Y906908D01*
X1075744Y912250D01*
X1074773Y909949D01*
X1073299Y905175D01*
X1072308Y900279D01*
X1071810Y895308D01*
X1071810Y890312D01*
X1072308Y885341D01*
X1073299Y880445D01*
X1074773Y875671D01*
X1075744Y873370D01*
X1075744Y873370D01*
D02*
G37*
G36*
X1050636Y1035440D02*
X1037803Y1030098D01*
X1037808Y1030087D01*
X1038472Y1028404D01*
X1039543Y1024950D01*
X1040263Y1021406D01*
X1040625Y1017808D01*
X1040625Y1014192D01*
X1040263Y1010594D01*
X1039543Y1007050D01*
X1038472Y1003596D01*
X1037808Y1001913D01*
Y1001913D01*
X1037803Y1001902D01*
X1050636Y996560D01*
X1051607Y998861D01*
X1053081Y1003635D01*
X1054072Y1008531D01*
X1054570Y1013502D01*
X1054570Y1018498D01*
X1054072Y1023469D01*
X1053081Y1028365D01*
X1051607Y1033139D01*
X1050636Y1035440D01*
D01*
D02*
G37*
D18*
X1171810Y892810D02*
G03*
X1171810Y892810I-50000J0D01*
G01*
X1157910D02*
G03*
X1157910Y892810I-36100J0D01*
G01*
X1040670Y1016000D02*
G03*
X1040670Y1016000I-36100J0D01*
G01*
X1054570D02*
G03*
X1054570Y1016000I-50000J0D01*
G01*
X771290Y1027970D02*
Y1138970D01*
Y1027970D02*
X821290D01*
X771290Y1138970D02*
X821290D01*
Y1027970D02*
Y1138970D01*
M02*
