G04*
G04 #@! TF.GenerationSoftware,Altium Limited,Altium Designer,26.4.1 (12)*
G04*
G04 Layer_Color=32768*
%FSLAX44Y44*%
%MOMM*%
G71*
G04*
G04 #@! TF.SameCoordinates,0A6EDB4D-EBB9-47F7-83F3-19040AB4B5EA*
G04*
G04*
G04 #@! TF.FilePolarity,Positive*
G04*
G01*
G75*
%ADD10C,0.2000*%
%ADD13C,0.1524*%
%ADD14C,0.1270*%
%ADD18C,0.1000*%
%ADD74C,0.0500*%
G36*
X1013544Y750570D02*
X1051220D01*
Y730250D01*
X1013544D01*
Y712851D01*
X888576D01*
Y730250D01*
X850900D01*
Y750570D01*
X888576D01*
Y767969D01*
X1013544D01*
Y750570D01*
D02*
G37*
G36*
X880618Y961009D02*
X837946D01*
Y1140079D01*
X880618D01*
Y961009D01*
D02*
G37*
G36*
X928624Y1077725D02*
X946150D01*
Y977395D01*
X928624D01*
Y925576D01*
X905256D01*
Y977395D01*
X887730D01*
Y1077725D01*
X905256D01*
Y1129544D01*
X928624D01*
Y1077725D01*
D02*
G37*
D10*
X706680Y979170D02*
G03*
X649680Y979170I-28500J0D01*
G01*
D02*
G03*
X706680Y979170I28500J0D01*
G01*
X791770Y862330D02*
G03*
X734770Y862330I-28500J0D01*
G01*
D02*
G03*
X791770Y862330I28500J0D01*
G01*
X1245520Y724540D02*
Y741040D01*
X1213520D02*
X1245520D01*
X1213520Y724540D02*
Y741040D01*
Y724540D02*
X1245520D01*
X1214630Y813440D02*
Y829940D01*
Y813440D02*
X1246630D01*
Y829940D01*
X1214630D02*
X1246630D01*
X1214630Y756290D02*
Y772790D01*
Y756290D02*
X1246630D01*
Y772790D01*
X1214630D02*
X1246630D01*
X1217988Y840920D02*
Y853420D01*
Y840920D02*
X1227912D01*
Y853420D01*
X1217988D02*
X1227912D01*
X1246630Y781690D02*
Y798190D01*
X1214630D02*
X1246630D01*
X1214630Y781690D02*
Y798190D01*
Y781690D02*
X1246630D01*
X1157070Y713438D02*
X1169570D01*
X1157070Y703514D02*
Y713438D01*
Y703514D02*
X1169570D01*
Y713438D01*
X1058010Y783524D02*
X1070510D01*
Y793448D01*
X1058010D02*
X1070510D01*
X1058010Y783524D02*
Y793448D01*
X864120Y537870D02*
Y620370D01*
Y537870D02*
X946370D01*
Y620370D01*
X864120D02*
X946370D01*
X635100Y820538D02*
X647600D01*
Y830462D01*
X635100D02*
X647600D01*
X635100Y820538D02*
Y830462D01*
X494469Y672460D02*
X521531D01*
Y655960D02*
Y672460D01*
X494469Y655960D02*
X521531D01*
X494469D02*
Y672460D01*
X865390Y522580D02*
X947640D01*
Y440080D02*
Y522580D01*
X865390Y440080D02*
X947640D01*
X865390D02*
Y522580D01*
X501301Y768900D02*
X511226D01*
Y756400D02*
Y768900D01*
X501301Y756400D02*
X511226D01*
X501301D02*
Y768900D01*
X575100Y834490D02*
X644100D01*
Y915990D01*
X575100D02*
X644100D01*
X575100Y834490D02*
Y915990D01*
X661604Y939700D02*
X671528D01*
Y927200D02*
Y939700D01*
X661604Y927200D02*
X671528D01*
X661604D02*
Y939700D01*
X788788Y907950D02*
X798712D01*
Y895450D02*
Y907950D01*
X788788Y895450D02*
X798712D01*
X788788D02*
Y907950D01*
X954310Y1125450D02*
X1059910D01*
X954310Y1076730D02*
Y1125450D01*
Y1076730D02*
X1059910D01*
Y1125450D01*
X880690Y884100D02*
X1054790D01*
Y843100D02*
Y884100D01*
X880690Y843100D02*
X1054790D01*
X880690D02*
Y884100D01*
X1148680Y581310D02*
Y696310D01*
X1096680Y581310D02*
X1148680D01*
X1096680D02*
Y696310D01*
X1148680D01*
X879420Y664030D02*
X1053520D01*
X879420D02*
Y705030D01*
X1053520D01*
Y664030D02*
Y705030D01*
X927440Y802370D02*
X1051440D01*
Y774970D02*
Y802370D01*
X927440Y774970D02*
X1051440D01*
X927440D02*
Y802370D01*
X986790Y806340D02*
X1050290D01*
X986790D02*
Y824340D01*
X1050290D01*
Y806340D02*
Y824340D01*
X576680Y818900D02*
X589180D01*
Y828825D01*
X576680D02*
X589180D01*
X576680Y818900D02*
Y828825D01*
D13*
X880618Y961009D02*
Y1140079D01*
X837946D02*
X880618D01*
X837946Y961009D02*
Y1140079D01*
Y961009D02*
X880618D01*
X905256Y1129544D02*
X928624D01*
Y1077725D02*
Y1129544D01*
Y925576D02*
Y977395D01*
X905256Y925576D02*
X928624D01*
X905256D02*
Y977395D01*
Y1077725D02*
Y1129544D01*
X887730Y1077725D02*
X905256D01*
X928624D02*
X946150D01*
Y977395D02*
Y1077725D01*
X928624Y977395D02*
X946150D01*
X887730D02*
X905256D01*
X887730D02*
Y1077725D01*
X850900Y730250D02*
Y750570D01*
X888576D01*
Y767969D01*
X1013544D01*
Y750570D02*
Y767969D01*
Y750570D02*
X1051220D01*
Y730250D02*
Y750570D01*
X850900Y730250D02*
X888576D01*
Y712851D02*
Y730250D01*
Y712851D02*
X1013544D01*
Y730250D01*
X1051220D01*
D14*
X1344700Y661440D02*
Y791440D01*
Y661440D02*
X1474700D01*
Y791440D01*
X1344700D02*
X1474700D01*
X1343430Y821460D02*
Y951460D01*
Y821460D02*
X1473430D01*
Y951460D01*
X1343430D02*
X1473430D01*
X1345970Y654280D02*
X1475970D01*
Y524280D02*
Y654280D01*
X1345970Y524280D02*
X1475970D01*
X1345970D02*
Y654280D01*
X1340890Y984020D02*
Y1114020D01*
Y984020D02*
X1470890D01*
Y1114020D01*
X1340890D02*
X1470890D01*
D18*
X1260670Y843440D02*
Y853440D01*
X1255670Y848440D02*
X1265670D01*
X1281430Y710010D02*
Y720010D01*
X1276430Y715010D02*
X1286430D01*
X1073150Y661750D02*
Y671750D01*
X1068150Y666750D02*
X1078150D01*
X492760Y824310D02*
Y834310D01*
X487760Y829310D02*
X497760D01*
X1217850Y533480D02*
Y543480D01*
X1212850Y538480D02*
X1222850D01*
X1122840Y534750D02*
Y544750D01*
X1117840Y539750D02*
X1127840D01*
X745570Y664210D02*
X755570D01*
X750570Y659210D02*
Y669210D01*
X745570Y694690D02*
X755570D01*
X750570Y689690D02*
Y699690D01*
X744300Y737870D02*
X754300D01*
X749300Y732870D02*
Y742870D01*
X745570Y633730D02*
X755570D01*
X750570Y628730D02*
Y638730D01*
X479410Y757650D02*
Y767650D01*
X474410Y762650D02*
X484410D01*
X1064260Y758270D02*
Y768270D01*
X1059260Y763270D02*
X1069260D01*
D74*
X1176310Y892810D02*
G03*
X1176310Y892810I-54500J0D01*
G01*
X1059070Y1016000D02*
G03*
X1059070Y1016000I-54500J0D01*
G01*
X1089760Y477820D02*
Y515320D01*
Y477820D02*
X1165760D01*
Y515320D01*
X1089760D02*
X1165760D01*
X525720Y810860D02*
X690720D01*
X525720D02*
X525720Y585860D01*
X383220D02*
X525720D01*
X383220Y333360D02*
Y585860D01*
Y333360D02*
X833220D01*
Y585860D01*
X690720D02*
X833220D01*
X690720D02*
Y810860D01*
X1584870Y518280D02*
X1668870D01*
Y787280D01*
X1584870D02*
X1668870D01*
X1584870Y518280D02*
Y787280D01*
Y790060D02*
Y1059060D01*
X1668870D01*
Y790060D02*
Y1059060D01*
X1584870Y790060D02*
X1668870D01*
X1497240Y791330D02*
Y1060330D01*
X1581240D01*
Y791330D02*
Y1060330D01*
X1497240Y791330D02*
X1581240D01*
X1488350Y517010D02*
X1572350D01*
Y786010D01*
X1488350D02*
X1572350D01*
X1488350Y517010D02*
Y786010D01*
X1243670Y838440D02*
X1277670D01*
X1243670Y858440D02*
X1277670D01*
Y838440D02*
Y858440D01*
X1243670Y838440D02*
Y858440D01*
X1264430Y705010D02*
X1298430D01*
X1264430Y725010D02*
X1298430D01*
Y705010D02*
Y725010D01*
X1264430Y705010D02*
Y725010D01*
X1105560Y831810D02*
X1119660D01*
Y836010D01*
X1186660D01*
Y831810D02*
Y836010D01*
Y831810D02*
X1200760D01*
Y725210D02*
Y831810D01*
X1186160Y725210D02*
X1200760D01*
X1186160Y721010D02*
Y725210D01*
X1120160Y721010D02*
X1186160D01*
X1120160D02*
Y725210D01*
X1105560D02*
X1120160D01*
X1105560D02*
Y831810D01*
X1060150Y719500D02*
X1086150D01*
X1060150Y614000D02*
Y719500D01*
X1086150Y614000D02*
Y719500D01*
X1060150Y614000D02*
X1086150D01*
X822270Y790330D02*
X831270D01*
X822270Y807330D02*
X831270D01*
X822270Y790330D02*
Y807330D01*
X831270Y790330D02*
Y807330D01*
X826770Y796080D02*
Y801580D01*
X824020Y798830D02*
X829520D01*
X440010Y816310D02*
Y842310D01*
Y816310D02*
X545510D01*
X440010Y842310D02*
X545510D01*
Y816310D02*
Y842310D01*
X1195850Y525480D02*
X1239850D01*
X1195850Y551480D02*
X1239850D01*
Y525480D02*
Y551480D01*
X1195850Y525480D02*
Y551480D01*
X1190440Y527520D02*
Y545520D01*
X1181440Y527520D02*
Y545520D01*
X1190440D01*
X1181440Y527520D02*
X1190440D01*
X1185940Y533770D02*
Y539270D01*
X1183190Y536520D02*
X1188690D01*
X1160200Y528210D02*
Y546210D01*
X1151200Y528210D02*
Y546210D01*
X1160200D01*
X1151200Y528210D02*
X1160200D01*
X1155700Y534460D02*
Y539960D01*
X1152950Y537210D02*
X1158450D01*
X1100840Y526750D02*
X1144840D01*
X1100840Y552750D02*
X1144840D01*
Y526750D02*
Y552750D01*
X1100840Y526750D02*
Y552750D01*
X1076221Y337300D02*
Y475500D01*
X1165221D01*
Y337300D02*
Y475500D01*
X1076221Y337300D02*
X1165221D01*
X1179780D02*
Y475500D01*
X1268780D01*
Y337300D02*
Y475500D01*
X1179780Y337300D02*
X1268780D01*
X1186280Y514050D02*
X1262280D01*
Y476550D02*
Y514050D01*
X1186280Y476550D02*
X1262280D01*
X1186280D02*
Y514050D01*
X831270Y623460D02*
Y641460D01*
X822270Y623460D02*
Y641460D01*
X831270D01*
X822270Y623460D02*
X831270D01*
X826770Y629710D02*
Y635210D01*
X824020Y632460D02*
X829520D01*
X831270Y659600D02*
Y677600D01*
X822270Y659600D02*
Y677600D01*
X831270D01*
X822270Y659600D02*
X831270D01*
X826770Y665850D02*
Y671350D01*
X824020Y668600D02*
X829520D01*
X828730Y728290D02*
Y746290D01*
X819730Y728290D02*
Y746290D01*
X828730D01*
X819730Y728290D02*
X828730D01*
X824230Y734540D02*
Y740040D01*
X821480Y737290D02*
X826980D01*
X697820Y651210D02*
Y677210D01*
Y651210D02*
X803320D01*
X697820Y677210D02*
X803320D01*
Y651210D02*
Y677210D01*
X697820Y681690D02*
Y707690D01*
Y681690D02*
X803320D01*
X697820Y707690D02*
X803320D01*
Y681690D02*
Y707690D01*
X696550Y724870D02*
Y750870D01*
Y724870D02*
X802050D01*
X696550Y750870D02*
X802050D01*
Y724870D02*
Y750870D01*
X697820Y620730D02*
Y646730D01*
Y620730D02*
X803320D01*
X697820Y646730D02*
X803320D01*
Y620730D02*
Y646730D01*
X459910Y744650D02*
X498910D01*
X459910Y780650D02*
X498910D01*
Y744650D02*
Y780650D01*
X459910Y744650D02*
Y780650D01*
X823290Y1020470D02*
Y1140970D01*
X758790D02*
X823290D01*
X758790Y1020470D02*
Y1140970D01*
Y1020470D02*
X823290D01*
X796290Y1078470D02*
Y1088470D01*
X791290Y1083470D02*
X801290D01*
X988060Y940860D02*
Y946360D01*
X985310Y943610D02*
X990810D01*
X979060Y939110D02*
Y948110D01*
X997060Y939110D02*
Y948110D01*
X979060D02*
X997060D01*
X979060Y939110D02*
X997060D01*
X1015890Y958270D02*
X1033890D01*
X1015890Y949270D02*
X1033890D01*
X1015890D02*
Y958270D01*
X1033890Y949270D02*
Y958270D01*
X1022140Y953770D02*
X1027640D01*
X1024890Y951020D02*
Y956520D01*
X1055840Y815920D02*
X1073840D01*
X1055840Y824920D02*
X1073840D01*
Y815920D02*
Y824920D01*
X1055840Y815920D02*
Y824920D01*
X1062090Y820420D02*
X1067590D01*
X1064840Y817670D02*
Y823170D01*
X1056530Y824810D02*
X1074530D01*
X1056530Y833810D02*
X1074530D01*
Y824810D02*
Y833810D01*
X1056530Y824810D02*
Y833810D01*
X1062780Y829310D02*
X1068280D01*
X1065530Y826560D02*
Y832060D01*
X1054260Y780270D02*
X1074260D01*
X1054260Y746270D02*
X1074260D01*
Y780270D01*
X1054260Y746270D02*
Y780270D01*
X824020Y696650D02*
X829520D01*
X826770Y693900D02*
Y699400D01*
X822270Y687650D02*
X831270D01*
X822270Y705650D02*
X831270D01*
X822270Y687650D02*
Y705650D01*
X831270Y687650D02*
Y705650D01*
M02*
