G04*
G04 #@! TF.GenerationSoftware,Altium Limited,Altium Designer,26.4.1 (12)*
G04*
G04 Layer_Color=32768*
%FSLAX44Y44*%
%MOMM*%
G71*
G04*
G04 #@! TF.SameCoordinates,0A6EDB4D-EBB9-47F7-83F3-19040AB4B5EA*
G04*
G04*
G04 #@! TF.FilePolarity,Positive*
G04*
G01*
G75*
%ADD12C,0.1500*%
%ADD18C,0.1000*%
G36*
X826833Y795311D02*
X826877Y795305D01*
X826927Y795300D01*
X826988Y795288D01*
X827049Y795277D01*
X827193Y795244D01*
X827342Y795189D01*
X827420Y795156D01*
X827492Y795111D01*
X827569Y795067D01*
X827641Y795012D01*
X827647Y795006D01*
X827663Y794995D01*
X827686Y794973D01*
X827713Y794945D01*
X827747Y794906D01*
X827791Y794862D01*
X827830Y794807D01*
X827874Y794746D01*
X827918Y794679D01*
X827957Y794602D01*
X827996Y794519D01*
X828035Y794430D01*
X828062Y794336D01*
X828084Y794231D01*
X828101Y794120D01*
X828106Y794004D01*
Y793954D01*
X828101Y793915D01*
X828095Y793871D01*
X828090Y793821D01*
X828084Y793760D01*
X828068Y793699D01*
X828035Y793561D01*
X827985Y793422D01*
X827951Y793351D01*
X827913Y793279D01*
X827868Y793212D01*
X827819Y793146D01*
X827813Y793140D01*
X827807Y793129D01*
X827785Y793118D01*
X827763Y793096D01*
X827736Y793068D01*
X827702Y793040D01*
X827658Y793007D01*
X827608Y792980D01*
X827558Y792946D01*
X827497Y792913D01*
X827365Y792852D01*
X827209Y792802D01*
X827126Y792786D01*
X827038Y792775D01*
X826999Y793268D01*
X827004D01*
X827016D01*
X827032Y793273D01*
X827060Y793279D01*
X827121Y793295D01*
X827204Y793317D01*
X827287Y793351D01*
X827381Y793395D01*
X827464Y793450D01*
X827542Y793517D01*
X827547Y793528D01*
X827569Y793550D01*
X827597Y793594D01*
X827630Y793655D01*
X827663Y793721D01*
X827691Y793805D01*
X827713Y793899D01*
X827719Y794004D01*
Y794037D01*
X827713Y794059D01*
X827708Y794126D01*
X827686Y794203D01*
X827658Y794297D01*
X827614Y794391D01*
X827547Y794491D01*
X827508Y794536D01*
X827464Y794580D01*
X827459Y794585D01*
X827453Y794591D01*
X827436Y794602D01*
X827420Y794619D01*
X827359Y794657D01*
X827281Y794702D01*
X827187Y794740D01*
X827071Y794779D01*
X826933Y794807D01*
X826861Y794818D01*
X826783D01*
X826777D01*
X826766D01*
X826744D01*
X826717Y794812D01*
X826683D01*
X826645Y794807D01*
X826556Y794790D01*
X826451Y794762D01*
X826346Y794724D01*
X826246Y794668D01*
X826152Y794591D01*
X826146D01*
X826141Y794580D01*
X826113Y794552D01*
X826074Y794502D01*
X826030Y794436D01*
X825991Y794347D01*
X825953Y794248D01*
X825925Y794131D01*
X825914Y794065D01*
Y793960D01*
X825919Y793915D01*
X825925Y793860D01*
X825941Y793793D01*
X825958Y793727D01*
X825986Y793655D01*
X826019Y793583D01*
X826024Y793577D01*
X826036Y793555D01*
X826063Y793522D01*
X826091Y793478D01*
X826130Y793434D01*
X826180Y793389D01*
X826229Y793339D01*
X826290Y793301D01*
X826229Y792858D01*
X824258Y793229D01*
Y795134D01*
X824707D01*
Y793600D01*
X825742Y793395D01*
X825736Y793400D01*
X825731Y793411D01*
X825720Y793428D01*
X825703Y793456D01*
X825687Y793489D01*
X825665Y793528D01*
X825620Y793616D01*
X825576Y793727D01*
X825537Y793849D01*
X825509Y793982D01*
X825498Y794048D01*
Y794170D01*
X825504Y794203D01*
X825509Y794248D01*
X825515Y794297D01*
X825526Y794353D01*
X825543Y794414D01*
X825582Y794547D01*
X825609Y794619D01*
X825648Y794690D01*
X825687Y794762D01*
X825731Y794835D01*
X825786Y794901D01*
X825847Y794967D01*
X825853Y794973D01*
X825864Y794984D01*
X825881Y795001D01*
X825908Y795023D01*
X825947Y795050D01*
X825986Y795078D01*
X826036Y795111D01*
X826091Y795145D01*
X826152Y795172D01*
X826218Y795206D01*
X826296Y795233D01*
X826373Y795261D01*
X826456Y795283D01*
X826551Y795300D01*
X826645Y795311D01*
X826744Y795316D01*
X826750D01*
X826766D01*
X826794D01*
X826833Y795311D01*
D02*
G37*
G36*
X828040Y791097D02*
X825044D01*
X825050Y791091D01*
X825072Y791064D01*
X825105Y791030D01*
X825144Y790975D01*
X825194Y790914D01*
X825249Y790837D01*
X825310Y790748D01*
X825371Y790648D01*
Y790643D01*
X825377Y790637D01*
X825399Y790604D01*
X825426Y790549D01*
X825460Y790482D01*
X825498Y790405D01*
X825537Y790322D01*
X825576Y790239D01*
X825609Y790155D01*
X825155D01*
Y790161D01*
X825144Y790172D01*
X825138Y790194D01*
X825122Y790222D01*
X825105Y790255D01*
X825083Y790294D01*
X825028Y790388D01*
X824967Y790499D01*
X824889Y790610D01*
X824801Y790726D01*
X824707Y790842D01*
X824701Y790848D01*
X824696Y790853D01*
X824679Y790870D01*
X824662Y790892D01*
X824607Y790942D01*
X824540Y791008D01*
X824463Y791075D01*
X824374Y791147D01*
X824286Y791208D01*
X824192Y791263D01*
Y791568D01*
X828040D01*
Y791097D01*
D02*
G37*
G36*
Y788865D02*
X827243Y788362D01*
X827237D01*
X827226Y788350D01*
X827209Y788339D01*
X827187Y788323D01*
X827126Y788284D01*
X827049Y788234D01*
X826966Y788173D01*
X826877Y788112D01*
X826794Y788051D01*
X826717Y787996D01*
X826711Y787990D01*
X826689Y787974D01*
X826656Y787946D01*
X826617Y787907D01*
X826534Y787824D01*
X826495Y787780D01*
X826462Y787736D01*
X826456Y787730D01*
X826451Y787719D01*
X826440Y787697D01*
X826423Y787664D01*
X826406Y787631D01*
X826390Y787592D01*
X826362Y787503D01*
Y787498D01*
X826357Y787487D01*
Y787465D01*
X826351Y787437D01*
X826346Y787398D01*
Y787354D01*
X826340Y787293D01*
Y786639D01*
X828040D01*
Y786130D01*
X824208D01*
Y787907D01*
X824214Y787952D01*
Y788002D01*
X824219Y788118D01*
X824236Y788240D01*
X824253Y788373D01*
X824280Y788494D01*
X824297Y788555D01*
X824314Y788605D01*
Y788611D01*
X824319Y788616D01*
X824336Y788649D01*
X824358Y788699D01*
X824397Y788760D01*
X824446Y788827D01*
X824513Y788899D01*
X824590Y788965D01*
X824679Y789032D01*
X824685D01*
X824690Y789037D01*
X824723Y789059D01*
X824779Y789081D01*
X824851Y789115D01*
X824934Y789142D01*
X825033Y789170D01*
X825138Y789186D01*
X825255Y789192D01*
X825260D01*
X825271D01*
X825294D01*
X825321Y789186D01*
X825360D01*
X825399Y789181D01*
X825493Y789159D01*
X825604Y789126D01*
X825720Y789081D01*
X825836Y789015D01*
X825892Y788971D01*
X825947Y788926D01*
X825953Y788921D01*
X825958Y788915D01*
X825975Y788899D01*
X825991Y788876D01*
X826013Y788849D01*
X826036Y788816D01*
X826063Y788771D01*
X826096Y788727D01*
X826124Y788672D01*
X826152Y788611D01*
X826185Y788544D01*
X826213Y788472D01*
X826235Y788389D01*
X826263Y788306D01*
X826279Y788212D01*
X826296Y788112D01*
X826301Y788123D01*
X826312Y788146D01*
X826335Y788179D01*
X826357Y788223D01*
X826418Y788323D01*
X826456Y788373D01*
X826490Y788417D01*
X826501Y788428D01*
X826528Y788456D01*
X826573Y788500D01*
X826628Y788555D01*
X826705Y788616D01*
X826789Y788688D01*
X826888Y788760D01*
X826999Y788838D01*
X828040Y789497D01*
Y788865D01*
D02*
G37*
G36*
X1183805Y533128D02*
X1183816Y533117D01*
X1183838Y533095D01*
X1183871Y533073D01*
X1183910Y533039D01*
X1183954Y532995D01*
X1184009Y532951D01*
X1184076Y532901D01*
X1184142Y532851D01*
X1184220Y532790D01*
X1184308Y532729D01*
X1184397Y532668D01*
X1184497Y532602D01*
X1184602Y532536D01*
X1184718Y532469D01*
X1184835Y532403D01*
X1184840Y532397D01*
X1184862Y532386D01*
X1184895Y532369D01*
X1184945Y532342D01*
X1185006Y532314D01*
X1185073Y532281D01*
X1185150Y532242D01*
X1185239Y532203D01*
X1185338Y532159D01*
X1185438Y532109D01*
X1185549Y532065D01*
X1185665Y532021D01*
X1185903Y531932D01*
X1186158Y531849D01*
X1186163D01*
X1186180Y531843D01*
X1186208Y531838D01*
X1186241Y531827D01*
X1186285Y531816D01*
X1186341Y531805D01*
X1186402Y531788D01*
X1186468Y531777D01*
X1186546Y531760D01*
X1186629Y531744D01*
X1186806Y531716D01*
X1187000Y531688D01*
X1187210Y531672D01*
Y531190D01*
X1187205D01*
X1187188D01*
X1187166D01*
X1187132Y531196D01*
X1187088D01*
X1187033Y531201D01*
X1186972Y531207D01*
X1186906Y531212D01*
X1186828Y531223D01*
X1186750Y531234D01*
X1186656Y531251D01*
X1186562Y531268D01*
X1186462Y531284D01*
X1186352Y531306D01*
X1186125Y531362D01*
X1186119D01*
X1186097Y531367D01*
X1186064Y531378D01*
X1186014Y531395D01*
X1185959Y531412D01*
X1185892Y531434D01*
X1185815Y531456D01*
X1185732Y531489D01*
X1185638Y531522D01*
X1185543Y531555D01*
X1185333Y531638D01*
X1185111Y531738D01*
X1184890Y531849D01*
X1184884Y531855D01*
X1184862Y531866D01*
X1184835Y531882D01*
X1184790Y531904D01*
X1184740Y531932D01*
X1184679Y531971D01*
X1184613Y532010D01*
X1184541Y532054D01*
X1184380Y532159D01*
X1184214Y532270D01*
X1184043Y532397D01*
X1183882Y532530D01*
Y530653D01*
X1183428D01*
Y533134D01*
X1183799D01*
X1183805Y533128D01*
D02*
G37*
G36*
X1187210Y527574D02*
X1187205D01*
X1187182D01*
X1187149D01*
X1187105Y527580D01*
X1187055Y527585D01*
X1187000Y527596D01*
X1186944Y527607D01*
X1186883Y527630D01*
X1186878D01*
X1186872Y527635D01*
X1186839Y527646D01*
X1186789Y527668D01*
X1186723Y527702D01*
X1186645Y527746D01*
X1186557Y527801D01*
X1186468Y527862D01*
X1186374Y527940D01*
X1186368D01*
X1186363Y527951D01*
X1186330Y527978D01*
X1186280Y528028D01*
X1186208Y528100D01*
X1186125Y528183D01*
X1186025Y528288D01*
X1185914Y528416D01*
X1185798Y528554D01*
X1185792Y528560D01*
X1185776Y528582D01*
X1185748Y528615D01*
X1185715Y528654D01*
X1185671Y528704D01*
X1185621Y528765D01*
X1185565Y528826D01*
X1185505Y528898D01*
X1185372Y529036D01*
X1185239Y529174D01*
X1185172Y529241D01*
X1185106Y529302D01*
X1185045Y529357D01*
X1184984Y529402D01*
X1184978D01*
X1184973Y529413D01*
X1184956Y529424D01*
X1184934Y529435D01*
X1184873Y529473D01*
X1184801Y529518D01*
X1184713Y529557D01*
X1184619Y529595D01*
X1184513Y529618D01*
X1184414Y529628D01*
X1184408D01*
X1184403D01*
X1184369Y529623D01*
X1184314Y529618D01*
X1184253Y529601D01*
X1184176Y529579D01*
X1184098Y529540D01*
X1184021Y529490D01*
X1183943Y529424D01*
X1183932Y529413D01*
X1183910Y529385D01*
X1183882Y529346D01*
X1183843Y529285D01*
X1183810Y529208D01*
X1183777Y529119D01*
X1183755Y529014D01*
X1183749Y528898D01*
Y528864D01*
X1183755Y528842D01*
X1183760Y528776D01*
X1183777Y528698D01*
X1183799Y528615D01*
X1183838Y528521D01*
X1183888Y528433D01*
X1183954Y528349D01*
X1183965Y528338D01*
X1183993Y528316D01*
X1184037Y528283D01*
X1184104Y528250D01*
X1184181Y528211D01*
X1184281Y528178D01*
X1184392Y528156D01*
X1184519Y528145D01*
X1184469Y527663D01*
X1184464D01*
X1184447Y527668D01*
X1184419D01*
X1184380Y527674D01*
X1184336Y527685D01*
X1184286Y527696D01*
X1184225Y527713D01*
X1184165Y527729D01*
X1184032Y527774D01*
X1183899Y527840D01*
X1183832Y527879D01*
X1183766Y527929D01*
X1183705Y527978D01*
X1183650Y528034D01*
X1183644Y528039D01*
X1183639Y528050D01*
X1183622Y528067D01*
X1183605Y528095D01*
X1183583Y528128D01*
X1183561Y528167D01*
X1183533Y528211D01*
X1183506Y528266D01*
X1183478Y528327D01*
X1183450Y528394D01*
X1183428Y528466D01*
X1183406Y528543D01*
X1183389Y528626D01*
X1183373Y528715D01*
X1183367Y528809D01*
X1183362Y528909D01*
Y528964D01*
X1183367Y529003D01*
X1183373Y529047D01*
X1183378Y529103D01*
X1183389Y529163D01*
X1183400Y529224D01*
X1183439Y529368D01*
X1183495Y529512D01*
X1183528Y529584D01*
X1183567Y529656D01*
X1183616Y529723D01*
X1183672Y529784D01*
X1183677Y529789D01*
X1183683Y529800D01*
X1183705Y529811D01*
X1183727Y529833D01*
X1183755Y529861D01*
X1183794Y529889D01*
X1183832Y529916D01*
X1183882Y529950D01*
X1183987Y530005D01*
X1184120Y530060D01*
X1184187Y530083D01*
X1184264Y530094D01*
X1184342Y530105D01*
X1184425Y530110D01*
X1184436D01*
X1184464D01*
X1184508Y530105D01*
X1184569Y530099D01*
X1184635Y530088D01*
X1184713Y530066D01*
X1184796Y530044D01*
X1184879Y530011D01*
X1184890Y530005D01*
X1184918Y529994D01*
X1184962Y529972D01*
X1185023Y529939D01*
X1185089Y529894D01*
X1185172Y529839D01*
X1185255Y529772D01*
X1185350Y529695D01*
X1185361Y529684D01*
X1185394Y529656D01*
X1185422Y529628D01*
X1185449Y529601D01*
X1185482Y529568D01*
X1185527Y529523D01*
X1185571Y529479D01*
X1185621Y529424D01*
X1185676Y529368D01*
X1185737Y529302D01*
X1185798Y529230D01*
X1185870Y529152D01*
X1185942Y529064D01*
X1186020Y528975D01*
X1186025Y528970D01*
X1186036Y528959D01*
X1186053Y528936D01*
X1186075Y528909D01*
X1186108Y528876D01*
X1186141Y528837D01*
X1186213Y528748D01*
X1186296Y528654D01*
X1186379Y528565D01*
X1186451Y528488D01*
X1186479Y528455D01*
X1186507Y528427D01*
X1186512Y528421D01*
X1186529Y528405D01*
X1186551Y528383D01*
X1186584Y528355D01*
X1186623Y528327D01*
X1186662Y528294D01*
X1186756Y528228D01*
Y530116D01*
X1187210D01*
Y527574D01*
D02*
G37*
G36*
X1186025Y527203D02*
X1186058Y527192D01*
X1186103Y527176D01*
X1186152Y527159D01*
X1186213Y527137D01*
X1186280Y527109D01*
X1186352Y527076D01*
X1186507Y526998D01*
X1186662Y526899D01*
X1186739Y526838D01*
X1186817Y526777D01*
X1186883Y526710D01*
X1186950Y526633D01*
X1186955Y526627D01*
X1186966Y526616D01*
X1186977Y526589D01*
X1187000Y526561D01*
X1187027Y526517D01*
X1187055Y526472D01*
X1187083Y526411D01*
X1187110Y526351D01*
X1187144Y526278D01*
X1187171Y526201D01*
X1187199Y526118D01*
X1187227Y526029D01*
X1187249Y525935D01*
X1187260Y525835D01*
X1187271Y525730D01*
X1187277Y525620D01*
Y525559D01*
X1187271Y525514D01*
Y525465D01*
X1187265Y525404D01*
X1187254Y525337D01*
X1187243Y525260D01*
X1187216Y525099D01*
X1187171Y524933D01*
X1187110Y524767D01*
X1187072Y524689D01*
X1187027Y524612D01*
X1187022Y524606D01*
X1187016Y524595D01*
X1187000Y524573D01*
X1186977Y524551D01*
X1186955Y524518D01*
X1186922Y524479D01*
X1186883Y524435D01*
X1186839Y524390D01*
X1186789Y524346D01*
X1186739Y524296D01*
X1186612Y524197D01*
X1186462Y524102D01*
X1186296Y524019D01*
X1186291D01*
X1186274Y524008D01*
X1186246Y524003D01*
X1186213Y523986D01*
X1186169Y523975D01*
X1186114Y523958D01*
X1186053Y523936D01*
X1185986Y523920D01*
X1185914Y523903D01*
X1185831Y523881D01*
X1185660Y523853D01*
X1185466Y523831D01*
X1185266Y523820D01*
X1185261D01*
X1185239D01*
X1185206D01*
X1185167Y523825D01*
X1185111D01*
X1185056Y523831D01*
X1184984Y523837D01*
X1184912Y523848D01*
X1184752Y523875D01*
X1184574Y523914D01*
X1184397Y523969D01*
X1184225Y524047D01*
X1184220Y524053D01*
X1184203Y524058D01*
X1184181Y524069D01*
X1184154Y524091D01*
X1184115Y524114D01*
X1184070Y524141D01*
X1183971Y524213D01*
X1183860Y524307D01*
X1183749Y524418D01*
X1183639Y524545D01*
X1183544Y524695D01*
X1183539Y524700D01*
X1183533Y524717D01*
X1183522Y524739D01*
X1183506Y524767D01*
X1183489Y524811D01*
X1183472Y524855D01*
X1183450Y524911D01*
X1183428Y524972D01*
X1183406Y525038D01*
X1183384Y525110D01*
X1183351Y525265D01*
X1183323Y525442D01*
X1183312Y525625D01*
Y525681D01*
X1183317Y525719D01*
X1183323Y525769D01*
X1183328Y525830D01*
X1183334Y525891D01*
X1183351Y525963D01*
X1183384Y526112D01*
X1183434Y526278D01*
X1183467Y526362D01*
X1183506Y526439D01*
X1183556Y526517D01*
X1183605Y526594D01*
X1183611Y526600D01*
X1183616Y526611D01*
X1183633Y526633D01*
X1183661Y526661D01*
X1183688Y526688D01*
X1183727Y526727D01*
X1183771Y526766D01*
X1183816Y526810D01*
X1183871Y526854D01*
X1183938Y526899D01*
X1184004Y526949D01*
X1184076Y526993D01*
X1184159Y527032D01*
X1184242Y527076D01*
X1184331Y527109D01*
X1184430Y527142D01*
X1184547Y526644D01*
X1184541D01*
X1184530Y526638D01*
X1184508Y526627D01*
X1184480Y526616D01*
X1184447Y526605D01*
X1184403Y526589D01*
X1184314Y526544D01*
X1184214Y526489D01*
X1184115Y526423D01*
X1184021Y526339D01*
X1183938Y526251D01*
X1183926Y526240D01*
X1183904Y526207D01*
X1183877Y526151D01*
X1183838Y526079D01*
X1183805Y525985D01*
X1183771Y525880D01*
X1183749Y525752D01*
X1183744Y525614D01*
Y525570D01*
X1183749Y525542D01*
Y525503D01*
X1183755Y525459D01*
X1183771Y525354D01*
X1183794Y525238D01*
X1183832Y525116D01*
X1183888Y524988D01*
X1183960Y524872D01*
Y524866D01*
X1183971Y524861D01*
X1183998Y524822D01*
X1184043Y524772D01*
X1184109Y524711D01*
X1184192Y524640D01*
X1184286Y524573D01*
X1184403Y524512D01*
X1184530Y524457D01*
X1184536D01*
X1184547Y524451D01*
X1184563Y524446D01*
X1184591Y524440D01*
X1184624Y524429D01*
X1184663Y524418D01*
X1184757Y524401D01*
X1184868Y524379D01*
X1184990Y524357D01*
X1185123Y524346D01*
X1185266Y524341D01*
X1185272D01*
X1185289D01*
X1185316D01*
X1185350D01*
X1185388Y524346D01*
X1185438D01*
X1185493Y524352D01*
X1185554Y524357D01*
X1185687Y524374D01*
X1185831Y524401D01*
X1185975Y524435D01*
X1186119Y524479D01*
X1186125D01*
X1186136Y524484D01*
X1186152Y524496D01*
X1186180Y524507D01*
X1186246Y524540D01*
X1186324Y524590D01*
X1186413Y524651D01*
X1186507Y524728D01*
X1186590Y524817D01*
X1186667Y524922D01*
Y524927D01*
X1186673Y524939D01*
X1186684Y524955D01*
X1186695Y524977D01*
X1186706Y525005D01*
X1186723Y525038D01*
X1186756Y525116D01*
X1186789Y525215D01*
X1186817Y525326D01*
X1186839Y525448D01*
X1186845Y525575D01*
Y525614D01*
X1186839Y525647D01*
Y525686D01*
X1186833Y525725D01*
X1186811Y525825D01*
X1186784Y525941D01*
X1186739Y526057D01*
X1186678Y526179D01*
X1186645Y526240D01*
X1186601Y526295D01*
X1186595Y526301D01*
X1186590Y526306D01*
X1186573Y526323D01*
X1186557Y526345D01*
X1186529Y526367D01*
X1186496Y526395D01*
X1186462Y526428D01*
X1186418Y526456D01*
X1186368Y526489D01*
X1186313Y526528D01*
X1186258Y526561D01*
X1186191Y526594D01*
X1186119Y526622D01*
X1186042Y526650D01*
X1185959Y526677D01*
X1185870Y526699D01*
X1185997Y527209D01*
X1186003D01*
X1186025Y527203D01*
D02*
G37*
G36*
X1155159Y533824D02*
X1155231D01*
X1155314Y533818D01*
X1155397Y533807D01*
X1155586Y533790D01*
X1155785Y533763D01*
X1155973Y533724D01*
X1156067Y533696D01*
X1156151Y533669D01*
X1156156D01*
X1156167Y533663D01*
X1156189Y533652D01*
X1156223Y533641D01*
X1156256Y533624D01*
X1156300Y533602D01*
X1156394Y533547D01*
X1156499Y533480D01*
X1156610Y533403D01*
X1156715Y533303D01*
X1156809Y533192D01*
Y533187D01*
X1156821Y533176D01*
X1156832Y533159D01*
X1156843Y533137D01*
X1156859Y533104D01*
X1156881Y533070D01*
X1156904Y533026D01*
X1156920Y532982D01*
X1156964Y532877D01*
X1157003Y532749D01*
X1157025Y532611D01*
X1157036Y532456D01*
Y532412D01*
X1157031Y532384D01*
Y532345D01*
X1157025Y532301D01*
X1157003Y532196D01*
X1156975Y532079D01*
X1156931Y531958D01*
X1156870Y531836D01*
X1156832Y531775D01*
X1156787Y531719D01*
X1156782Y531714D01*
X1156776Y531708D01*
X1156760Y531692D01*
X1156743Y531675D01*
X1156715Y531653D01*
X1156682Y531625D01*
X1156605Y531570D01*
X1156505Y531515D01*
X1156383Y531459D01*
X1156245Y531415D01*
X1156084Y531382D01*
X1156045Y531836D01*
X1156051D01*
X1156062Y531841D01*
X1156073D01*
X1156095Y531847D01*
X1156156Y531863D01*
X1156223Y531886D01*
X1156300Y531913D01*
X1156377Y531952D01*
X1156450Y531996D01*
X1156510Y532052D01*
X1156516Y532057D01*
X1156533Y532079D01*
X1156555Y532118D01*
X1156577Y532162D01*
X1156605Y532223D01*
X1156627Y532295D01*
X1156643Y532378D01*
X1156649Y532467D01*
Y532506D01*
X1156643Y532545D01*
X1156638Y532594D01*
X1156627Y532655D01*
X1156610Y532716D01*
X1156588Y532783D01*
X1156555Y532844D01*
X1156549Y532849D01*
X1156538Y532871D01*
X1156516Y532904D01*
X1156483Y532938D01*
X1156444Y532982D01*
X1156400Y533026D01*
X1156350Y533070D01*
X1156289Y533115D01*
X1156283Y533120D01*
X1156256Y533131D01*
X1156217Y533154D01*
X1156167Y533176D01*
X1156101Y533203D01*
X1156023Y533231D01*
X1155935Y533259D01*
X1155835Y533287D01*
X1155829D01*
X1155824Y533292D01*
X1155807D01*
X1155785Y533298D01*
X1155730Y533309D01*
X1155658Y533325D01*
X1155569Y533336D01*
X1155475Y533347D01*
X1155370Y533353D01*
X1155259Y533358D01*
X1155254D01*
X1155237D01*
X1155209D01*
X1155165D01*
X1155176Y533353D01*
X1155204Y533331D01*
X1155242Y533298D01*
X1155298Y533259D01*
X1155353Y533203D01*
X1155414Y533137D01*
X1155475Y533059D01*
X1155530Y532971D01*
X1155536Y532960D01*
X1155553Y532926D01*
X1155575Y532877D01*
X1155597Y532816D01*
X1155624Y532733D01*
X1155647Y532644D01*
X1155663Y532545D01*
X1155669Y532439D01*
Y532395D01*
X1155663Y532362D01*
X1155658Y532318D01*
X1155652Y532273D01*
X1155641Y532218D01*
X1155624Y532162D01*
X1155586Y532035D01*
X1155558Y531969D01*
X1155525Y531902D01*
X1155486Y531830D01*
X1155436Y531764D01*
X1155386Y531697D01*
X1155325Y531636D01*
X1155320Y531631D01*
X1155309Y531620D01*
X1155292Y531609D01*
X1155265Y531586D01*
X1155226Y531559D01*
X1155187Y531531D01*
X1155137Y531503D01*
X1155082Y531476D01*
X1155021Y531443D01*
X1154955Y531415D01*
X1154877Y531387D01*
X1154799Y531359D01*
X1154711Y531337D01*
X1154617Y531326D01*
X1154523Y531315D01*
X1154417Y531310D01*
X1154412D01*
X1154390D01*
X1154362D01*
X1154323Y531315D01*
X1154273Y531321D01*
X1154212Y531326D01*
X1154152Y531337D01*
X1154080Y531354D01*
X1153936Y531393D01*
X1153858Y531420D01*
X1153775Y531454D01*
X1153698Y531492D01*
X1153625Y531542D01*
X1153548Y531592D01*
X1153482Y531653D01*
X1153476Y531659D01*
X1153465Y531670D01*
X1153448Y531686D01*
X1153426Y531714D01*
X1153399Y531747D01*
X1153365Y531791D01*
X1153338Y531836D01*
X1153299Y531891D01*
X1153266Y531946D01*
X1153238Y532013D01*
X1153177Y532162D01*
X1153155Y532240D01*
X1153138Y532328D01*
X1153127Y532417D01*
X1153122Y532511D01*
Y532550D01*
X1153127Y532578D01*
Y532605D01*
X1153133Y532644D01*
X1153149Y532738D01*
X1153171Y532844D01*
X1153210Y532960D01*
X1153260Y533076D01*
X1153326Y533192D01*
Y533198D01*
X1153338Y533203D01*
X1153349Y533220D01*
X1153365Y533242D01*
X1153410Y533298D01*
X1153471Y533369D01*
X1153553Y533442D01*
X1153653Y533525D01*
X1153770Y533596D01*
X1153902Y533663D01*
X1153908D01*
X1153919Y533669D01*
X1153941Y533680D01*
X1153969Y533691D01*
X1154008Y533702D01*
X1154057Y533718D01*
X1154113Y533729D01*
X1154174Y533746D01*
X1154246Y533763D01*
X1154329Y533779D01*
X1154417Y533790D01*
X1154511Y533801D01*
X1154617Y533812D01*
X1154727Y533824D01*
X1154849Y533829D01*
X1154977D01*
X1154982D01*
X1155010D01*
X1155049D01*
X1155098D01*
X1155159Y533824D01*
D02*
G37*
G36*
X1156970Y528264D02*
X1156964D01*
X1156942D01*
X1156909D01*
X1156865Y528270D01*
X1156815Y528275D01*
X1156760Y528286D01*
X1156704Y528297D01*
X1156643Y528320D01*
X1156638D01*
X1156632Y528325D01*
X1156599Y528336D01*
X1156549Y528358D01*
X1156483Y528392D01*
X1156405Y528436D01*
X1156317Y528491D01*
X1156228Y528552D01*
X1156134Y528630D01*
X1156128D01*
X1156123Y528641D01*
X1156090Y528668D01*
X1156040Y528718D01*
X1155968Y528790D01*
X1155885Y528873D01*
X1155785Y528979D01*
X1155674Y529106D01*
X1155558Y529244D01*
X1155553Y529250D01*
X1155536Y529272D01*
X1155508Y529305D01*
X1155475Y529344D01*
X1155431Y529394D01*
X1155381Y529455D01*
X1155325Y529516D01*
X1155265Y529588D01*
X1155132Y529726D01*
X1154999Y529865D01*
X1154932Y529931D01*
X1154866Y529992D01*
X1154805Y530047D01*
X1154744Y530092D01*
X1154738D01*
X1154733Y530103D01*
X1154716Y530114D01*
X1154694Y530125D01*
X1154633Y530163D01*
X1154561Y530208D01*
X1154473Y530247D01*
X1154379Y530285D01*
X1154273Y530307D01*
X1154174Y530318D01*
X1154168D01*
X1154163D01*
X1154129Y530313D01*
X1154074Y530307D01*
X1154013Y530291D01*
X1153936Y530269D01*
X1153858Y530230D01*
X1153781Y530180D01*
X1153703Y530114D01*
X1153692Y530103D01*
X1153670Y530075D01*
X1153642Y530036D01*
X1153603Y529975D01*
X1153570Y529898D01*
X1153537Y529809D01*
X1153515Y529704D01*
X1153509Y529588D01*
Y529554D01*
X1153515Y529532D01*
X1153520Y529466D01*
X1153537Y529388D01*
X1153559Y529305D01*
X1153598Y529211D01*
X1153648Y529123D01*
X1153714Y529039D01*
X1153725Y529028D01*
X1153753Y529006D01*
X1153797Y528973D01*
X1153864Y528940D01*
X1153941Y528901D01*
X1154041Y528868D01*
X1154152Y528846D01*
X1154279Y528835D01*
X1154229Y528353D01*
X1154223D01*
X1154207Y528358D01*
X1154179D01*
X1154140Y528364D01*
X1154096Y528375D01*
X1154046Y528386D01*
X1153985Y528403D01*
X1153924Y528419D01*
X1153792Y528464D01*
X1153659Y528530D01*
X1153592Y528569D01*
X1153526Y528619D01*
X1153465Y528668D01*
X1153410Y528724D01*
X1153404Y528729D01*
X1153399Y528740D01*
X1153382Y528757D01*
X1153365Y528785D01*
X1153343Y528818D01*
X1153321Y528857D01*
X1153293Y528901D01*
X1153266Y528956D01*
X1153238Y529017D01*
X1153210Y529084D01*
X1153188Y529156D01*
X1153166Y529233D01*
X1153149Y529316D01*
X1153133Y529405D01*
X1153127Y529499D01*
X1153122Y529599D01*
Y529654D01*
X1153127Y529693D01*
X1153133Y529737D01*
X1153138Y529793D01*
X1153149Y529853D01*
X1153160Y529914D01*
X1153199Y530058D01*
X1153254Y530202D01*
X1153288Y530274D01*
X1153326Y530346D01*
X1153376Y530413D01*
X1153432Y530474D01*
X1153437Y530479D01*
X1153443Y530490D01*
X1153465Y530501D01*
X1153487Y530523D01*
X1153515Y530551D01*
X1153553Y530579D01*
X1153592Y530606D01*
X1153642Y530640D01*
X1153747Y530695D01*
X1153880Y530750D01*
X1153947Y530773D01*
X1154024Y530784D01*
X1154102Y530795D01*
X1154185Y530800D01*
X1154196D01*
X1154223D01*
X1154268Y530795D01*
X1154329Y530789D01*
X1154395Y530778D01*
X1154473Y530756D01*
X1154556Y530734D01*
X1154639Y530701D01*
X1154650Y530695D01*
X1154678Y530684D01*
X1154722Y530662D01*
X1154783Y530629D01*
X1154849Y530584D01*
X1154932Y530529D01*
X1155015Y530462D01*
X1155109Y530385D01*
X1155121Y530374D01*
X1155154Y530346D01*
X1155182Y530318D01*
X1155209Y530291D01*
X1155242Y530258D01*
X1155287Y530213D01*
X1155331Y530169D01*
X1155381Y530114D01*
X1155436Y530058D01*
X1155497Y529992D01*
X1155558Y529920D01*
X1155630Y529842D01*
X1155702Y529754D01*
X1155779Y529665D01*
X1155785Y529660D01*
X1155796Y529649D01*
X1155813Y529626D01*
X1155835Y529599D01*
X1155868Y529566D01*
X1155901Y529527D01*
X1155973Y529438D01*
X1156056Y529344D01*
X1156139Y529255D01*
X1156211Y529178D01*
X1156239Y529145D01*
X1156267Y529117D01*
X1156272Y529111D01*
X1156289Y529095D01*
X1156311Y529073D01*
X1156344Y529045D01*
X1156383Y529017D01*
X1156422Y528984D01*
X1156516Y528918D01*
Y530806D01*
X1156970D01*
Y528264D01*
D02*
G37*
G36*
X1155785Y527893D02*
X1155818Y527882D01*
X1155863Y527865D01*
X1155912Y527849D01*
X1155973Y527827D01*
X1156040Y527799D01*
X1156112Y527766D01*
X1156267Y527688D01*
X1156422Y527589D01*
X1156499Y527528D01*
X1156577Y527467D01*
X1156643Y527400D01*
X1156710Y527323D01*
X1156715Y527317D01*
X1156726Y527306D01*
X1156737Y527279D01*
X1156760Y527251D01*
X1156787Y527207D01*
X1156815Y527162D01*
X1156843Y527101D01*
X1156870Y527040D01*
X1156904Y526968D01*
X1156931Y526891D01*
X1156959Y526808D01*
X1156987Y526719D01*
X1157009Y526625D01*
X1157020Y526525D01*
X1157031Y526420D01*
X1157036Y526310D01*
Y526249D01*
X1157031Y526204D01*
Y526155D01*
X1157025Y526094D01*
X1157014Y526027D01*
X1157003Y525950D01*
X1156975Y525789D01*
X1156931Y525623D01*
X1156870Y525457D01*
X1156832Y525379D01*
X1156787Y525302D01*
X1156782Y525296D01*
X1156776Y525285D01*
X1156760Y525263D01*
X1156737Y525241D01*
X1156715Y525208D01*
X1156682Y525169D01*
X1156643Y525125D01*
X1156599Y525080D01*
X1156549Y525036D01*
X1156499Y524986D01*
X1156372Y524887D01*
X1156223Y524792D01*
X1156056Y524709D01*
X1156051D01*
X1156034Y524698D01*
X1156006Y524693D01*
X1155973Y524676D01*
X1155929Y524665D01*
X1155874Y524648D01*
X1155813Y524626D01*
X1155746Y524610D01*
X1155674Y524593D01*
X1155591Y524571D01*
X1155420Y524543D01*
X1155226Y524521D01*
X1155026Y524510D01*
X1155021D01*
X1154999D01*
X1154966D01*
X1154927Y524515D01*
X1154871D01*
X1154816Y524521D01*
X1154744Y524527D01*
X1154672Y524538D01*
X1154511Y524565D01*
X1154334Y524604D01*
X1154157Y524660D01*
X1153985Y524737D01*
X1153980Y524743D01*
X1153963Y524748D01*
X1153941Y524759D01*
X1153913Y524781D01*
X1153875Y524804D01*
X1153830Y524831D01*
X1153731Y524903D01*
X1153620Y524997D01*
X1153509Y525108D01*
X1153399Y525235D01*
X1153304Y525385D01*
X1153299Y525390D01*
X1153293Y525407D01*
X1153282Y525429D01*
X1153266Y525457D01*
X1153249Y525501D01*
X1153232Y525546D01*
X1153210Y525601D01*
X1153188Y525662D01*
X1153166Y525728D01*
X1153144Y525800D01*
X1153111Y525955D01*
X1153083Y526132D01*
X1153072Y526315D01*
Y526371D01*
X1153077Y526409D01*
X1153083Y526459D01*
X1153088Y526520D01*
X1153094Y526581D01*
X1153111Y526653D01*
X1153144Y526802D01*
X1153194Y526968D01*
X1153227Y527052D01*
X1153266Y527129D01*
X1153315Y527207D01*
X1153365Y527284D01*
X1153371Y527290D01*
X1153376Y527301D01*
X1153393Y527323D01*
X1153421Y527351D01*
X1153448Y527378D01*
X1153487Y527417D01*
X1153531Y527456D01*
X1153576Y527500D01*
X1153631Y527544D01*
X1153698Y527589D01*
X1153764Y527639D01*
X1153836Y527683D01*
X1153919Y527722D01*
X1154002Y527766D01*
X1154091Y527799D01*
X1154190Y527832D01*
X1154307Y527334D01*
X1154301D01*
X1154290Y527328D01*
X1154268Y527317D01*
X1154240Y527306D01*
X1154207Y527295D01*
X1154163Y527279D01*
X1154074Y527234D01*
X1153974Y527179D01*
X1153875Y527113D01*
X1153781Y527029D01*
X1153698Y526941D01*
X1153686Y526930D01*
X1153664Y526897D01*
X1153637Y526841D01*
X1153598Y526769D01*
X1153565Y526675D01*
X1153531Y526570D01*
X1153509Y526442D01*
X1153504Y526304D01*
Y526260D01*
X1153509Y526232D01*
Y526193D01*
X1153515Y526149D01*
X1153531Y526044D01*
X1153553Y525928D01*
X1153592Y525806D01*
X1153648Y525678D01*
X1153720Y525562D01*
Y525556D01*
X1153731Y525551D01*
X1153758Y525512D01*
X1153803Y525462D01*
X1153869Y525401D01*
X1153952Y525330D01*
X1154046Y525263D01*
X1154163Y525202D01*
X1154290Y525147D01*
X1154296D01*
X1154307Y525141D01*
X1154323Y525136D01*
X1154351Y525130D01*
X1154384Y525119D01*
X1154423Y525108D01*
X1154517Y525091D01*
X1154628Y525069D01*
X1154750Y525047D01*
X1154883Y525036D01*
X1155026Y525031D01*
X1155032D01*
X1155049D01*
X1155076D01*
X1155109D01*
X1155148Y525036D01*
X1155198D01*
X1155254Y525042D01*
X1155314Y525047D01*
X1155447Y525064D01*
X1155591Y525091D01*
X1155735Y525125D01*
X1155879Y525169D01*
X1155885D01*
X1155896Y525174D01*
X1155912Y525186D01*
X1155940Y525197D01*
X1156006Y525230D01*
X1156084Y525280D01*
X1156173Y525341D01*
X1156267Y525418D01*
X1156350Y525507D01*
X1156427Y525612D01*
Y525617D01*
X1156433Y525629D01*
X1156444Y525645D01*
X1156455Y525667D01*
X1156466Y525695D01*
X1156483Y525728D01*
X1156516Y525806D01*
X1156549Y525905D01*
X1156577Y526016D01*
X1156599Y526138D01*
X1156605Y526265D01*
Y526304D01*
X1156599Y526337D01*
Y526376D01*
X1156593Y526415D01*
X1156571Y526515D01*
X1156544Y526631D01*
X1156499Y526747D01*
X1156438Y526869D01*
X1156405Y526930D01*
X1156361Y526985D01*
X1156355Y526991D01*
X1156350Y526996D01*
X1156333Y527013D01*
X1156317Y527035D01*
X1156289Y527057D01*
X1156256Y527085D01*
X1156223Y527118D01*
X1156178Y527146D01*
X1156128Y527179D01*
X1156073Y527218D01*
X1156018Y527251D01*
X1155951Y527284D01*
X1155879Y527312D01*
X1155802Y527340D01*
X1155719Y527367D01*
X1155630Y527389D01*
X1155757Y527899D01*
X1155763D01*
X1155785Y527893D01*
D02*
G37*
G36*
X828040Y623514D02*
X828035D01*
X828012D01*
X827979D01*
X827935Y623520D01*
X827885Y623525D01*
X827830Y623536D01*
X827774Y623547D01*
X827713Y623570D01*
X827708D01*
X827702Y623575D01*
X827669Y623586D01*
X827619Y623608D01*
X827553Y623642D01*
X827475Y623686D01*
X827387Y623741D01*
X827298Y623802D01*
X827204Y623880D01*
X827198D01*
X827193Y623891D01*
X827160Y623918D01*
X827110Y623968D01*
X827038Y624040D01*
X826955Y624123D01*
X826855Y624229D01*
X826744Y624356D01*
X826628Y624494D01*
X826622Y624500D01*
X826606Y624522D01*
X826578Y624555D01*
X826545Y624594D01*
X826501Y624644D01*
X826451Y624705D01*
X826395Y624766D01*
X826335Y624838D01*
X826202Y624976D01*
X826069Y625115D01*
X826002Y625181D01*
X825936Y625242D01*
X825875Y625297D01*
X825814Y625341D01*
X825808D01*
X825803Y625353D01*
X825786Y625364D01*
X825764Y625375D01*
X825703Y625414D01*
X825631Y625458D01*
X825543Y625496D01*
X825449Y625535D01*
X825343Y625557D01*
X825244Y625569D01*
X825238D01*
X825233D01*
X825199Y625563D01*
X825144Y625557D01*
X825083Y625541D01*
X825006Y625519D01*
X824928Y625480D01*
X824851Y625430D01*
X824773Y625364D01*
X824762Y625353D01*
X824740Y625325D01*
X824712Y625286D01*
X824673Y625225D01*
X824640Y625148D01*
X824607Y625059D01*
X824585Y624954D01*
X824579Y624838D01*
Y624804D01*
X824585Y624782D01*
X824590Y624716D01*
X824607Y624638D01*
X824629Y624555D01*
X824668Y624461D01*
X824718Y624372D01*
X824784Y624289D01*
X824795Y624278D01*
X824823Y624256D01*
X824867Y624223D01*
X824934Y624190D01*
X825011Y624151D01*
X825111Y624118D01*
X825222Y624096D01*
X825349Y624085D01*
X825299Y623603D01*
X825294D01*
X825277Y623608D01*
X825249D01*
X825210Y623614D01*
X825166Y623625D01*
X825116Y623636D01*
X825055Y623653D01*
X824995Y623669D01*
X824862Y623714D01*
X824729Y623780D01*
X824662Y623819D01*
X824596Y623869D01*
X824535Y623918D01*
X824480Y623974D01*
X824474Y623979D01*
X824469Y623990D01*
X824452Y624007D01*
X824435Y624035D01*
X824413Y624068D01*
X824391Y624107D01*
X824363Y624151D01*
X824336Y624206D01*
X824308Y624267D01*
X824280Y624334D01*
X824258Y624406D01*
X824236Y624483D01*
X824219Y624566D01*
X824203Y624655D01*
X824197Y624749D01*
X824192Y624849D01*
Y624904D01*
X824197Y624943D01*
X824203Y624987D01*
X824208Y625042D01*
X824219Y625103D01*
X824230Y625164D01*
X824269Y625308D01*
X824324Y625452D01*
X824358Y625524D01*
X824397Y625596D01*
X824446Y625663D01*
X824502Y625724D01*
X824507Y625729D01*
X824513Y625740D01*
X824535Y625751D01*
X824557Y625773D01*
X824585Y625801D01*
X824623Y625829D01*
X824662Y625857D01*
X824712Y625890D01*
X824817Y625945D01*
X824950Y626000D01*
X825017Y626023D01*
X825094Y626034D01*
X825172Y626045D01*
X825255Y626050D01*
X825266D01*
X825294D01*
X825338Y626045D01*
X825399Y626039D01*
X825465Y626028D01*
X825543Y626006D01*
X825626Y625984D01*
X825709Y625951D01*
X825720Y625945D01*
X825748Y625934D01*
X825792Y625912D01*
X825853Y625879D01*
X825919Y625834D01*
X826002Y625779D01*
X826085Y625713D01*
X826180Y625635D01*
X826191Y625624D01*
X826224Y625596D01*
X826252Y625569D01*
X826279Y625541D01*
X826312Y625508D01*
X826357Y625463D01*
X826401Y625419D01*
X826451Y625364D01*
X826506Y625308D01*
X826567Y625242D01*
X826628Y625170D01*
X826700Y625092D01*
X826772Y625004D01*
X826850Y624915D01*
X826855Y624910D01*
X826866Y624898D01*
X826883Y624876D01*
X826905Y624849D01*
X826938Y624815D01*
X826971Y624777D01*
X827043Y624688D01*
X827126Y624594D01*
X827209Y624505D01*
X827281Y624428D01*
X827309Y624395D01*
X827337Y624367D01*
X827342Y624361D01*
X827359Y624345D01*
X827381Y624323D01*
X827414Y624295D01*
X827453Y624267D01*
X827492Y624234D01*
X827586Y624168D01*
Y626056D01*
X828040D01*
Y623514D01*
D02*
G37*
G36*
X826855Y623143D02*
X826888Y623132D01*
X826933Y623116D01*
X826982Y623099D01*
X827043Y623077D01*
X827110Y623049D01*
X827182Y623016D01*
X827337Y622938D01*
X827492Y622839D01*
X827569Y622778D01*
X827647Y622717D01*
X827713Y622650D01*
X827780Y622573D01*
X827785Y622567D01*
X827796Y622556D01*
X827807Y622529D01*
X827830Y622501D01*
X827857Y622457D01*
X827885Y622412D01*
X827913Y622351D01*
X827940Y622290D01*
X827974Y622219D01*
X828001Y622141D01*
X828029Y622058D01*
X828057Y621969D01*
X828079Y621875D01*
X828090Y621776D01*
X828101Y621670D01*
X828106Y621560D01*
Y621499D01*
X828101Y621454D01*
Y621404D01*
X828095Y621344D01*
X828084Y621277D01*
X828073Y621200D01*
X828046Y621039D01*
X828001Y620873D01*
X827940Y620707D01*
X827902Y620629D01*
X827857Y620552D01*
X827852Y620546D01*
X827846Y620535D01*
X827830Y620513D01*
X827807Y620491D01*
X827785Y620458D01*
X827752Y620419D01*
X827713Y620375D01*
X827669Y620330D01*
X827619Y620286D01*
X827569Y620236D01*
X827442Y620136D01*
X827292Y620042D01*
X827126Y619959D01*
X827121D01*
X827104Y619948D01*
X827076Y619943D01*
X827043Y619926D01*
X826999Y619915D01*
X826944Y619898D01*
X826883Y619876D01*
X826816Y619860D01*
X826744Y619843D01*
X826661Y619821D01*
X826490Y619793D01*
X826296Y619771D01*
X826096Y619760D01*
X826091D01*
X826069D01*
X826036D01*
X825997Y619766D01*
X825941D01*
X825886Y619771D01*
X825814Y619777D01*
X825742Y619788D01*
X825582Y619815D01*
X825404Y619854D01*
X825227Y619910D01*
X825055Y619987D01*
X825050Y619993D01*
X825033Y619998D01*
X825011Y620009D01*
X824984Y620031D01*
X824945Y620053D01*
X824900Y620081D01*
X824801Y620153D01*
X824690Y620247D01*
X824579Y620358D01*
X824469Y620485D01*
X824374Y620635D01*
X824369Y620640D01*
X824363Y620657D01*
X824352Y620679D01*
X824336Y620707D01*
X824319Y620751D01*
X824302Y620796D01*
X824280Y620851D01*
X824258Y620912D01*
X824236Y620978D01*
X824214Y621050D01*
X824181Y621205D01*
X824153Y621382D01*
X824142Y621565D01*
Y621620D01*
X824147Y621659D01*
X824153Y621709D01*
X824158Y621770D01*
X824164Y621831D01*
X824181Y621903D01*
X824214Y622052D01*
X824264Y622219D01*
X824297Y622302D01*
X824336Y622379D01*
X824385Y622457D01*
X824435Y622534D01*
X824441Y622540D01*
X824446Y622551D01*
X824463Y622573D01*
X824491Y622601D01*
X824518Y622628D01*
X824557Y622667D01*
X824601Y622706D01*
X824646Y622750D01*
X824701Y622794D01*
X824768Y622839D01*
X824834Y622888D01*
X824906Y622933D01*
X824989Y622972D01*
X825072Y623016D01*
X825161Y623049D01*
X825260Y623082D01*
X825377Y622584D01*
X825371D01*
X825360Y622578D01*
X825338Y622567D01*
X825310Y622556D01*
X825277Y622545D01*
X825233Y622529D01*
X825144Y622484D01*
X825044Y622429D01*
X824945Y622363D01*
X824851Y622279D01*
X824768Y622191D01*
X824756Y622180D01*
X824734Y622146D01*
X824707Y622091D01*
X824668Y622019D01*
X824635Y621925D01*
X824601Y621820D01*
X824579Y621693D01*
X824574Y621554D01*
Y621510D01*
X824579Y621482D01*
Y621443D01*
X824585Y621399D01*
X824601Y621294D01*
X824623Y621177D01*
X824662Y621056D01*
X824718Y620928D01*
X824790Y620812D01*
Y620807D01*
X824801Y620801D01*
X824828Y620762D01*
X824873Y620712D01*
X824939Y620652D01*
X825022Y620579D01*
X825116Y620513D01*
X825233Y620452D01*
X825360Y620397D01*
X825366D01*
X825377Y620391D01*
X825393Y620386D01*
X825421Y620380D01*
X825454Y620369D01*
X825493Y620358D01*
X825587Y620341D01*
X825698Y620319D01*
X825820Y620297D01*
X825953Y620286D01*
X826096Y620280D01*
X826102D01*
X826119D01*
X826146D01*
X826180D01*
X826218Y620286D01*
X826268D01*
X826323Y620292D01*
X826384Y620297D01*
X826517Y620314D01*
X826661Y620341D01*
X826805Y620375D01*
X826949Y620419D01*
X826955D01*
X826966Y620424D01*
X826982Y620435D01*
X827010Y620447D01*
X827076Y620480D01*
X827154Y620530D01*
X827243Y620591D01*
X827337Y620668D01*
X827420Y620757D01*
X827497Y620862D01*
Y620867D01*
X827503Y620878D01*
X827514Y620895D01*
X827525Y620917D01*
X827536Y620945D01*
X827553Y620978D01*
X827586Y621056D01*
X827619Y621155D01*
X827647Y621266D01*
X827669Y621388D01*
X827674Y621515D01*
Y621554D01*
X827669Y621587D01*
Y621626D01*
X827663Y621665D01*
X827641Y621764D01*
X827614Y621881D01*
X827569Y621997D01*
X827508Y622119D01*
X827475Y622180D01*
X827431Y622235D01*
X827425Y622241D01*
X827420Y622246D01*
X827403Y622263D01*
X827387Y622285D01*
X827359Y622307D01*
X827326Y622335D01*
X827292Y622368D01*
X827248Y622396D01*
X827198Y622429D01*
X827143Y622468D01*
X827088Y622501D01*
X827021Y622534D01*
X826949Y622562D01*
X826872Y622589D01*
X826789Y622617D01*
X826700Y622639D01*
X826827Y623149D01*
X826833D01*
X826855Y623143D01*
D02*
G37*
G36*
X827121Y661697D02*
X828040D01*
Y661227D01*
X827121D01*
Y659560D01*
X826689D01*
X824208Y661315D01*
Y661697D01*
X826689D01*
Y662218D01*
X827121D01*
Y661697D01*
D02*
G37*
G36*
X826855Y659283D02*
X826888Y659272D01*
X826933Y659256D01*
X826982Y659239D01*
X827043Y659217D01*
X827110Y659189D01*
X827182Y659156D01*
X827337Y659078D01*
X827492Y658979D01*
X827569Y658918D01*
X827647Y658857D01*
X827713Y658790D01*
X827780Y658713D01*
X827785Y658707D01*
X827796Y658696D01*
X827807Y658669D01*
X827830Y658641D01*
X827857Y658597D01*
X827885Y658552D01*
X827913Y658491D01*
X827940Y658430D01*
X827974Y658359D01*
X828001Y658281D01*
X828029Y658198D01*
X828057Y658109D01*
X828079Y658015D01*
X828090Y657915D01*
X828101Y657810D01*
X828106Y657700D01*
Y657639D01*
X828101Y657594D01*
Y657545D01*
X828095Y657484D01*
X828084Y657417D01*
X828073Y657340D01*
X828046Y657179D01*
X828001Y657013D01*
X827940Y656847D01*
X827902Y656769D01*
X827857Y656692D01*
X827852Y656686D01*
X827846Y656675D01*
X827830Y656653D01*
X827807Y656631D01*
X827785Y656598D01*
X827752Y656559D01*
X827713Y656515D01*
X827669Y656470D01*
X827619Y656426D01*
X827569Y656376D01*
X827442Y656276D01*
X827292Y656182D01*
X827126Y656099D01*
X827121D01*
X827104Y656088D01*
X827076Y656083D01*
X827043Y656066D01*
X826999Y656055D01*
X826944Y656038D01*
X826883Y656016D01*
X826816Y656000D01*
X826744Y655983D01*
X826661Y655961D01*
X826490Y655933D01*
X826296Y655911D01*
X826096Y655900D01*
X826091D01*
X826069D01*
X826036D01*
X825997Y655906D01*
X825941D01*
X825886Y655911D01*
X825814Y655917D01*
X825742Y655928D01*
X825582Y655955D01*
X825404Y655994D01*
X825227Y656049D01*
X825055Y656127D01*
X825050Y656133D01*
X825033Y656138D01*
X825011Y656149D01*
X824984Y656171D01*
X824945Y656193D01*
X824900Y656221D01*
X824801Y656293D01*
X824690Y656387D01*
X824579Y656498D01*
X824469Y656625D01*
X824374Y656775D01*
X824369Y656780D01*
X824363Y656797D01*
X824352Y656819D01*
X824336Y656847D01*
X824319Y656891D01*
X824302Y656936D01*
X824280Y656991D01*
X824258Y657052D01*
X824236Y657118D01*
X824214Y657190D01*
X824181Y657345D01*
X824153Y657522D01*
X824142Y657705D01*
Y657760D01*
X824147Y657799D01*
X824153Y657849D01*
X824158Y657910D01*
X824164Y657971D01*
X824181Y658043D01*
X824214Y658192D01*
X824264Y658359D01*
X824297Y658442D01*
X824336Y658519D01*
X824385Y658597D01*
X824435Y658674D01*
X824441Y658680D01*
X824446Y658691D01*
X824463Y658713D01*
X824491Y658741D01*
X824518Y658768D01*
X824557Y658807D01*
X824601Y658846D01*
X824646Y658890D01*
X824701Y658934D01*
X824768Y658979D01*
X824834Y659028D01*
X824906Y659073D01*
X824989Y659112D01*
X825072Y659156D01*
X825161Y659189D01*
X825260Y659222D01*
X825377Y658724D01*
X825371D01*
X825360Y658718D01*
X825338Y658707D01*
X825310Y658696D01*
X825277Y658685D01*
X825233Y658669D01*
X825144Y658624D01*
X825044Y658569D01*
X824945Y658503D01*
X824851Y658419D01*
X824768Y658331D01*
X824756Y658320D01*
X824734Y658287D01*
X824707Y658231D01*
X824668Y658159D01*
X824635Y658065D01*
X824601Y657960D01*
X824579Y657832D01*
X824574Y657694D01*
Y657650D01*
X824579Y657622D01*
Y657583D01*
X824585Y657539D01*
X824601Y657434D01*
X824623Y657318D01*
X824662Y657196D01*
X824718Y657068D01*
X824790Y656952D01*
Y656946D01*
X824801Y656941D01*
X824828Y656902D01*
X824873Y656852D01*
X824939Y656792D01*
X825022Y656720D01*
X825116Y656653D01*
X825233Y656592D01*
X825360Y656537D01*
X825366D01*
X825377Y656531D01*
X825393Y656526D01*
X825421Y656520D01*
X825454Y656509D01*
X825493Y656498D01*
X825587Y656481D01*
X825698Y656459D01*
X825820Y656437D01*
X825953Y656426D01*
X826096Y656421D01*
X826102D01*
X826119D01*
X826146D01*
X826180D01*
X826218Y656426D01*
X826268D01*
X826323Y656432D01*
X826384Y656437D01*
X826517Y656454D01*
X826661Y656481D01*
X826805Y656515D01*
X826949Y656559D01*
X826955D01*
X826966Y656564D01*
X826982Y656575D01*
X827010Y656587D01*
X827076Y656620D01*
X827154Y656670D01*
X827243Y656731D01*
X827337Y656808D01*
X827420Y656897D01*
X827497Y657002D01*
Y657007D01*
X827503Y657019D01*
X827514Y657035D01*
X827525Y657057D01*
X827536Y657085D01*
X827553Y657118D01*
X827586Y657196D01*
X827619Y657295D01*
X827647Y657406D01*
X827669Y657528D01*
X827674Y657655D01*
Y657694D01*
X827669Y657727D01*
Y657766D01*
X827663Y657805D01*
X827641Y657905D01*
X827614Y658021D01*
X827569Y658137D01*
X827508Y658259D01*
X827475Y658320D01*
X827431Y658375D01*
X827425Y658381D01*
X827420Y658386D01*
X827403Y658403D01*
X827387Y658425D01*
X827359Y658447D01*
X827326Y658475D01*
X827292Y658508D01*
X827248Y658536D01*
X827198Y658569D01*
X827143Y658608D01*
X827088Y658641D01*
X827021Y658674D01*
X826949Y658702D01*
X826872Y658729D01*
X826789Y658757D01*
X826700Y658779D01*
X826827Y659289D01*
X826833D01*
X826855Y659283D01*
D02*
G37*
G36*
X824454Y730919D02*
X824498Y730913D01*
X824548Y730902D01*
X824603Y730891D01*
X824664Y730880D01*
X824797Y730836D01*
X824869Y730803D01*
X824935Y730770D01*
X825007Y730725D01*
X825079Y730675D01*
X825151Y730620D01*
X825218Y730554D01*
X825223Y730548D01*
X825234Y730537D01*
X825251Y730515D01*
X825273Y730487D01*
X825301Y730454D01*
X825328Y730410D01*
X825362Y730360D01*
X825389Y730299D01*
X825423Y730238D01*
X825456Y730166D01*
X825483Y730094D01*
X825511Y730011D01*
X825533Y729922D01*
X825550Y729828D01*
X825561Y729734D01*
X825566Y729629D01*
Y729579D01*
X825561Y729546D01*
X825555Y729501D01*
X825550Y729452D01*
X825539Y729396D01*
X825528Y729335D01*
X825495Y729202D01*
X825439Y729064D01*
X825406Y728992D01*
X825367Y728926D01*
X825317Y728859D01*
X825267Y728793D01*
X825262Y728787D01*
X825251Y728776D01*
X825234Y728760D01*
X825212Y728743D01*
X825184Y728715D01*
X825146Y728688D01*
X825107Y728654D01*
X825057Y728621D01*
X825002Y728588D01*
X824946Y728555D01*
X824813Y728494D01*
X824658Y728444D01*
X824575Y728427D01*
X824487Y728416D01*
X824426Y728887D01*
X824431D01*
X824442Y728892D01*
X824464Y728898D01*
X824492Y728904D01*
X824526Y728909D01*
X824564Y728920D01*
X824647Y728948D01*
X824747Y728987D01*
X824841Y729036D01*
X824930Y729092D01*
X825007Y729158D01*
X825013Y729169D01*
X825035Y729191D01*
X825063Y729236D01*
X825090Y729291D01*
X825124Y729358D01*
X825151Y729441D01*
X825173Y729535D01*
X825179Y729634D01*
Y729668D01*
X825173Y729690D01*
X825168Y729751D01*
X825151Y729828D01*
X825124Y729917D01*
X825085Y730011D01*
X825029Y730105D01*
X824952Y730194D01*
X824941Y730205D01*
X824908Y730232D01*
X824858Y730266D01*
X824791Y730310D01*
X824708Y730354D01*
X824614Y730387D01*
X824503Y730415D01*
X824381Y730426D01*
X824376D01*
X824365D01*
X824348D01*
X824326Y730421D01*
X824265Y730415D01*
X824193Y730398D01*
X824105Y730376D01*
X824016Y730338D01*
X823927Y730282D01*
X823844Y730210D01*
X823833Y730199D01*
X823811Y730172D01*
X823778Y730127D01*
X823739Y730066D01*
X823700Y729989D01*
X823667Y729895D01*
X823645Y729789D01*
X823634Y729673D01*
Y729623D01*
X823640Y729585D01*
X823645Y729535D01*
X823656Y729479D01*
X823667Y729413D01*
X823684Y729341D01*
X823269Y729396D01*
Y729424D01*
X823274Y729446D01*
Y729518D01*
X823263Y729579D01*
X823252Y729651D01*
X823235Y729734D01*
X823208Y729828D01*
X823169Y729917D01*
X823119Y730011D01*
Y730016D01*
X823113Y730022D01*
X823091Y730050D01*
X823053Y730088D01*
X823003Y730133D01*
X822931Y730177D01*
X822848Y730216D01*
X822754Y730244D01*
X822698Y730255D01*
X822637D01*
X822632D01*
X822626D01*
X822593D01*
X822549Y730244D01*
X822488Y730232D01*
X822421Y730210D01*
X822349Y730183D01*
X822277Y730138D01*
X822211Y730077D01*
X822205Y730072D01*
X822183Y730044D01*
X822156Y730005D01*
X822122Y729956D01*
X822095Y729889D01*
X822067Y729812D01*
X822045Y729723D01*
X822039Y729623D01*
Y729579D01*
X822050Y729529D01*
X822061Y729463D01*
X822084Y729391D01*
X822111Y729319D01*
X822156Y729241D01*
X822211Y729169D01*
X822216Y729164D01*
X822244Y729142D01*
X822283Y729108D01*
X822338Y729070D01*
X822410Y729031D01*
X822499Y728992D01*
X822604Y728959D01*
X822726Y728937D01*
X822643Y728466D01*
X822637D01*
X822621Y728472D01*
X822598Y728477D01*
X822565Y728483D01*
X822526Y728494D01*
X822482Y728510D01*
X822377Y728544D01*
X822255Y728599D01*
X822133Y728665D01*
X822017Y728748D01*
X821912Y728854D01*
X821906Y728859D01*
X821901Y728870D01*
X821890Y728887D01*
X821873Y728909D01*
X821851Y728937D01*
X821829Y728976D01*
X821807Y729014D01*
X821779Y729064D01*
X821735Y729175D01*
X821690Y729302D01*
X821663Y729452D01*
X821652Y729529D01*
Y729668D01*
X821657Y729728D01*
X821668Y729800D01*
X821685Y729889D01*
X821713Y729989D01*
X821746Y730088D01*
X821790Y730188D01*
Y730194D01*
X821796Y730199D01*
X821812Y730232D01*
X821845Y730282D01*
X821884Y730338D01*
X821940Y730404D01*
X822001Y730471D01*
X822073Y730537D01*
X822156Y730592D01*
X822167Y730598D01*
X822194Y730614D01*
X822244Y730637D01*
X822305Y730664D01*
X822377Y730692D01*
X822460Y730714D01*
X822554Y730731D01*
X822648Y730736D01*
X822659D01*
X822693D01*
X822737Y730731D01*
X822798Y730720D01*
X822870Y730703D01*
X822947Y730675D01*
X823025Y730642D01*
X823102Y730598D01*
X823113Y730592D01*
X823136Y730576D01*
X823174Y730543D01*
X823219Y730498D01*
X823269Y730443D01*
X823324Y730376D01*
X823374Y730299D01*
X823423Y730205D01*
Y730210D01*
X823429Y730221D01*
X823435Y730238D01*
X823440Y730260D01*
X823462Y730321D01*
X823495Y730398D01*
X823540Y730487D01*
X823595Y730576D01*
X823667Y730659D01*
X823750Y730736D01*
X823761Y730742D01*
X823794Y730764D01*
X823850Y730797D01*
X823922Y730830D01*
X824010Y730864D01*
X824116Y730897D01*
X824238Y730919D01*
X824370Y730925D01*
X824376D01*
X824393D01*
X824420D01*
X824454Y730919D01*
D02*
G37*
G36*
X824315Y727973D02*
X824348Y727962D01*
X824393Y727945D01*
X824442Y727929D01*
X824503Y727907D01*
X824570Y727879D01*
X824642Y727846D01*
X824797Y727768D01*
X824952Y727669D01*
X825029Y727608D01*
X825107Y727547D01*
X825173Y727480D01*
X825240Y727403D01*
X825245Y727397D01*
X825256Y727386D01*
X825267Y727359D01*
X825290Y727331D01*
X825317Y727287D01*
X825345Y727242D01*
X825373Y727181D01*
X825400Y727121D01*
X825434Y727048D01*
X825461Y726971D01*
X825489Y726888D01*
X825517Y726799D01*
X825539Y726705D01*
X825550Y726606D01*
X825561Y726500D01*
X825566Y726390D01*
Y726329D01*
X825561Y726284D01*
Y726235D01*
X825555Y726174D01*
X825544Y726107D01*
X825533Y726030D01*
X825506Y725869D01*
X825461Y725703D01*
X825400Y725537D01*
X825362Y725459D01*
X825317Y725382D01*
X825312Y725376D01*
X825306Y725365D01*
X825290Y725343D01*
X825267Y725321D01*
X825245Y725288D01*
X825212Y725249D01*
X825173Y725205D01*
X825129Y725160D01*
X825079Y725116D01*
X825029Y725066D01*
X824902Y724967D01*
X824753Y724872D01*
X824586Y724789D01*
X824581D01*
X824564Y724778D01*
X824537Y724773D01*
X824503Y724756D01*
X824459Y724745D01*
X824404Y724728D01*
X824343Y724706D01*
X824276Y724690D01*
X824204Y724673D01*
X824121Y724651D01*
X823950Y724623D01*
X823756Y724601D01*
X823556Y724590D01*
X823551D01*
X823529D01*
X823495D01*
X823457Y724595D01*
X823401D01*
X823346Y724601D01*
X823274Y724607D01*
X823202Y724618D01*
X823042Y724645D01*
X822864Y724684D01*
X822687Y724740D01*
X822515Y724817D01*
X822510Y724823D01*
X822493Y724828D01*
X822471Y724839D01*
X822443Y724861D01*
X822405Y724883D01*
X822360Y724911D01*
X822261Y724983D01*
X822150Y725077D01*
X822039Y725188D01*
X821928Y725315D01*
X821834Y725465D01*
X821829Y725470D01*
X821823Y725487D01*
X821812Y725509D01*
X821796Y725537D01*
X821779Y725581D01*
X821762Y725625D01*
X821740Y725681D01*
X821718Y725742D01*
X821696Y725808D01*
X821674Y725880D01*
X821641Y726035D01*
X821613Y726212D01*
X821602Y726395D01*
Y726451D01*
X821607Y726489D01*
X821613Y726539D01*
X821618Y726600D01*
X821624Y726661D01*
X821641Y726733D01*
X821674Y726882D01*
X821724Y727048D01*
X821757Y727132D01*
X821796Y727209D01*
X821845Y727287D01*
X821895Y727364D01*
X821901Y727370D01*
X821906Y727381D01*
X821923Y727403D01*
X821951Y727431D01*
X821978Y727458D01*
X822017Y727497D01*
X822061Y727536D01*
X822106Y727580D01*
X822161Y727624D01*
X822227Y727669D01*
X822294Y727719D01*
X822366Y727763D01*
X822449Y727802D01*
X822532Y727846D01*
X822621Y727879D01*
X822720Y727912D01*
X822837Y727414D01*
X822831D01*
X822820Y727408D01*
X822798Y727397D01*
X822770Y727386D01*
X822737Y727375D01*
X822693Y727359D01*
X822604Y727314D01*
X822504Y727259D01*
X822405Y727193D01*
X822311Y727109D01*
X822227Y727021D01*
X822216Y727010D01*
X822194Y726976D01*
X822167Y726921D01*
X822128Y726849D01*
X822095Y726755D01*
X822061Y726650D01*
X822039Y726523D01*
X822034Y726384D01*
Y726340D01*
X822039Y726312D01*
Y726273D01*
X822045Y726229D01*
X822061Y726124D01*
X822084Y726008D01*
X822122Y725886D01*
X822178Y725758D01*
X822250Y725642D01*
Y725637D01*
X822261Y725631D01*
X822288Y725592D01*
X822333Y725542D01*
X822399Y725481D01*
X822482Y725409D01*
X822576Y725343D01*
X822693Y725282D01*
X822820Y725227D01*
X822825D01*
X822837Y725221D01*
X822853Y725216D01*
X822881Y725210D01*
X822914Y725199D01*
X822953Y725188D01*
X823047Y725171D01*
X823158Y725149D01*
X823280Y725127D01*
X823412Y725116D01*
X823556Y725110D01*
X823562D01*
X823579D01*
X823606D01*
X823640D01*
X823678Y725116D01*
X823728D01*
X823783Y725122D01*
X823844Y725127D01*
X823977Y725144D01*
X824121Y725171D01*
X824265Y725205D01*
X824409Y725249D01*
X824415D01*
X824426Y725255D01*
X824442Y725266D01*
X824470Y725277D01*
X824537Y725310D01*
X824614Y725360D01*
X824703Y725421D01*
X824797Y725498D01*
X824880Y725587D01*
X824957Y725692D01*
Y725697D01*
X824963Y725708D01*
X824974Y725725D01*
X824985Y725747D01*
X824996Y725775D01*
X825013Y725808D01*
X825046Y725886D01*
X825079Y725985D01*
X825107Y726096D01*
X825129Y726218D01*
X825135Y726345D01*
Y726384D01*
X825129Y726417D01*
Y726456D01*
X825124Y726495D01*
X825101Y726594D01*
X825074Y726711D01*
X825029Y726827D01*
X824968Y726949D01*
X824935Y727010D01*
X824891Y727065D01*
X824885Y727071D01*
X824880Y727076D01*
X824863Y727093D01*
X824847Y727115D01*
X824819Y727137D01*
X824786Y727165D01*
X824753Y727198D01*
X824708Y727226D01*
X824658Y727259D01*
X824603Y727298D01*
X824548Y727331D01*
X824481Y727364D01*
X824409Y727392D01*
X824332Y727420D01*
X824249Y727447D01*
X824160Y727469D01*
X824287Y727979D01*
X824293D01*
X824315Y727973D01*
D02*
G37*
G36*
X980615Y946183D02*
X980654D01*
X980698Y946177D01*
X980803Y946155D01*
X980919Y946127D01*
X981041Y946083D01*
X981163Y946017D01*
X981224Y945978D01*
X981279Y945934D01*
X981285Y945928D01*
X981290Y945923D01*
X981307Y945906D01*
X981324Y945889D01*
X981351Y945862D01*
X981373Y945828D01*
X981434Y945751D01*
X981495Y945651D01*
X981551Y945529D01*
X981600Y945391D01*
X981634Y945236D01*
X981163Y945197D01*
Y945203D01*
X981157Y945208D01*
X981152Y945241D01*
X981135Y945291D01*
X981113Y945352D01*
X981091Y945419D01*
X981058Y945485D01*
X981019Y945546D01*
X980980Y945596D01*
X980969Y945607D01*
X980947Y945629D01*
X980908Y945662D01*
X980853Y945701D01*
X980781Y945734D01*
X980703Y945768D01*
X980609Y945790D01*
X980510Y945801D01*
X980471D01*
X980426Y945795D01*
X980377Y945784D01*
X980310Y945768D01*
X980244Y945745D01*
X980177Y945718D01*
X980111Y945673D01*
X980100Y945668D01*
X980072Y945646D01*
X980033Y945607D01*
X979984Y945552D01*
X979928Y945485D01*
X979867Y945408D01*
X979812Y945308D01*
X979756Y945197D01*
Y945192D01*
X979751Y945181D01*
X979745Y945164D01*
X979734Y945142D01*
X979729Y945109D01*
X979718Y945070D01*
X979707Y945025D01*
X979696Y944970D01*
X979679Y944909D01*
X979668Y944843D01*
X979657Y944771D01*
X979651Y944693D01*
X979640Y944605D01*
X979635Y944516D01*
X979629Y944416D01*
Y944317D01*
X979635Y944322D01*
X979657Y944355D01*
X979696Y944400D01*
X979745Y944455D01*
X979801Y944522D01*
X979873Y944583D01*
X979950Y944643D01*
X980039Y944699D01*
X980044D01*
X980050Y944704D01*
X980083Y944721D01*
X980133Y944738D01*
X980200Y944765D01*
X980277Y944787D01*
X980366Y944804D01*
X980460Y944821D01*
X980559Y944826D01*
X980604D01*
X980637Y944821D01*
X980681Y944815D01*
X980725Y944810D01*
X980781Y944799D01*
X980836Y944782D01*
X980964Y944743D01*
X981030Y944715D01*
X981096Y944677D01*
X981163Y944638D01*
X981235Y944594D01*
X981301Y944538D01*
X981362Y944477D01*
X981368Y944472D01*
X981379Y944461D01*
X981395Y944444D01*
X981412Y944416D01*
X981440Y944378D01*
X981468Y944339D01*
X981495Y944289D01*
X981528Y944234D01*
X981562Y944173D01*
X981589Y944106D01*
X981617Y944029D01*
X981645Y943951D01*
X981661Y943868D01*
X981678Y943774D01*
X981689Y943680D01*
X981695Y943580D01*
Y943575D01*
Y943564D01*
Y943547D01*
Y943519D01*
X981689Y943486D01*
Y943453D01*
X981672Y943364D01*
X981656Y943259D01*
X981628Y943148D01*
X981589Y943027D01*
X981534Y942910D01*
Y942905D01*
X981528Y942899D01*
X981517Y942883D01*
X981506Y942860D01*
X981473Y942805D01*
X981423Y942733D01*
X981362Y942656D01*
X981290Y942578D01*
X981202Y942501D01*
X981108Y942434D01*
X981102D01*
X981096Y942429D01*
X981080Y942418D01*
X981058Y942412D01*
X981002Y942384D01*
X980930Y942357D01*
X980836Y942323D01*
X980731Y942301D01*
X980615Y942279D01*
X980487Y942274D01*
X980460D01*
X980432Y942279D01*
X980388D01*
X980338Y942285D01*
X980283Y942296D01*
X980216Y942312D01*
X980150Y942329D01*
X980072Y942351D01*
X979995Y942379D01*
X979917Y942412D01*
X979834Y942456D01*
X979756Y942506D01*
X979679Y942561D01*
X979602Y942628D01*
X979529Y942706D01*
X979524Y942711D01*
X979513Y942728D01*
X979496Y942750D01*
X979474Y942788D01*
X979441Y942838D01*
X979413Y942894D01*
X979380Y942966D01*
X979347Y943043D01*
X979308Y943137D01*
X979275Y943243D01*
X979247Y943359D01*
X979219Y943486D01*
X979192Y943630D01*
X979175Y943785D01*
X979164Y943951D01*
X979158Y944128D01*
Y944134D01*
Y944140D01*
Y944156D01*
Y944178D01*
X979164Y944234D01*
Y944311D01*
X979170Y944400D01*
X979181Y944505D01*
X979192Y944621D01*
X979208Y944749D01*
X979230Y944876D01*
X979258Y945014D01*
X979291Y945147D01*
X979330Y945280D01*
X979380Y945408D01*
X979435Y945529D01*
X979496Y945646D01*
X979568Y945745D01*
X979574Y945751D01*
X979585Y945762D01*
X979607Y945784D01*
X979635Y945817D01*
X979668Y945851D01*
X979712Y945884D01*
X979768Y945928D01*
X979823Y945967D01*
X979889Y946006D01*
X979961Y946050D01*
X980044Y946083D01*
X980127Y946122D01*
X980222Y946150D01*
X980321Y946172D01*
X980426Y946183D01*
X980537Y946188D01*
X980582D01*
X980615Y946183D01*
D02*
G37*
G36*
X977259Y946233D02*
X977309Y946227D01*
X977370Y946222D01*
X977431Y946216D01*
X977503Y946199D01*
X977652Y946166D01*
X977819Y946116D01*
X977902Y946083D01*
X977979Y946044D01*
X978057Y945995D01*
X978134Y945945D01*
X978140Y945939D01*
X978151Y945934D01*
X978173Y945917D01*
X978201Y945889D01*
X978228Y945862D01*
X978267Y945823D01*
X978306Y945779D01*
X978350Y945734D01*
X978394Y945679D01*
X978439Y945612D01*
X978488Y945546D01*
X978533Y945474D01*
X978572Y945391D01*
X978616Y945308D01*
X978649Y945219D01*
X978682Y945120D01*
X978184Y945003D01*
Y945009D01*
X978178Y945020D01*
X978167Y945042D01*
X978156Y945070D01*
X978145Y945103D01*
X978129Y945147D01*
X978084Y945236D01*
X978029Y945336D01*
X977962Y945435D01*
X977879Y945529D01*
X977791Y945612D01*
X977780Y945624D01*
X977747Y945646D01*
X977691Y945673D01*
X977619Y945712D01*
X977525Y945745D01*
X977420Y945779D01*
X977292Y945801D01*
X977154Y945806D01*
X977110D01*
X977082Y945801D01*
X977043D01*
X976999Y945795D01*
X976894Y945779D01*
X976777Y945757D01*
X976656Y945718D01*
X976528Y945662D01*
X976412Y945590D01*
X976406D01*
X976401Y945579D01*
X976362Y945552D01*
X976312Y945507D01*
X976252Y945441D01*
X976180Y945358D01*
X976113Y945264D01*
X976052Y945147D01*
X975997Y945020D01*
Y945014D01*
X975991Y945003D01*
X975986Y944987D01*
X975980Y944959D01*
X975969Y944926D01*
X975958Y944887D01*
X975941Y944793D01*
X975919Y944682D01*
X975897Y944560D01*
X975886Y944427D01*
X975881Y944284D01*
Y944278D01*
Y944261D01*
Y944234D01*
Y944201D01*
X975886Y944162D01*
Y944112D01*
X975892Y944056D01*
X975897Y943996D01*
X975914Y943863D01*
X975941Y943719D01*
X975975Y943575D01*
X976019Y943431D01*
Y943425D01*
X976024Y943414D01*
X976036Y943398D01*
X976047Y943370D01*
X976080Y943304D01*
X976130Y943226D01*
X976191Y943137D01*
X976268Y943043D01*
X976357Y942960D01*
X976462Y942883D01*
X976467D01*
X976479Y942877D01*
X976495Y942866D01*
X976517Y942855D01*
X976545Y942844D01*
X976578Y942827D01*
X976656Y942794D01*
X976755Y942761D01*
X976866Y942733D01*
X976988Y942711D01*
X977115Y942706D01*
X977154D01*
X977187Y942711D01*
X977226D01*
X977265Y942717D01*
X977365Y942739D01*
X977481Y942766D01*
X977597Y942811D01*
X977719Y942872D01*
X977780Y942905D01*
X977835Y942949D01*
X977841Y942955D01*
X977846Y942960D01*
X977863Y942977D01*
X977885Y942993D01*
X977907Y943021D01*
X977935Y943054D01*
X977968Y943087D01*
X977996Y943132D01*
X978029Y943182D01*
X978068Y943237D01*
X978101Y943292D01*
X978134Y943359D01*
X978162Y943431D01*
X978189Y943508D01*
X978217Y943591D01*
X978239Y943680D01*
X978749Y943553D01*
Y943547D01*
X978743Y943525D01*
X978732Y943492D01*
X978716Y943447D01*
X978699Y943398D01*
X978677Y943337D01*
X978649Y943270D01*
X978616Y943198D01*
X978538Y943043D01*
X978439Y942888D01*
X978378Y942811D01*
X978317Y942733D01*
X978250Y942667D01*
X978173Y942600D01*
X978167Y942595D01*
X978156Y942584D01*
X978129Y942573D01*
X978101Y942550D01*
X978057Y942523D01*
X978012Y942495D01*
X977951Y942467D01*
X977890Y942440D01*
X977819Y942406D01*
X977741Y942379D01*
X977658Y942351D01*
X977569Y942323D01*
X977475Y942301D01*
X977375Y942290D01*
X977270Y942279D01*
X977160Y942274D01*
X977099D01*
X977054Y942279D01*
X977004D01*
X976944Y942285D01*
X976877Y942296D01*
X976800Y942307D01*
X976639Y942335D01*
X976473Y942379D01*
X976307Y942440D01*
X976229Y942478D01*
X976152Y942523D01*
X976146Y942528D01*
X976135Y942534D01*
X976113Y942550D01*
X976091Y942573D01*
X976058Y942595D01*
X976019Y942628D01*
X975975Y942667D01*
X975930Y942711D01*
X975886Y942761D01*
X975836Y942811D01*
X975736Y942938D01*
X975642Y943087D01*
X975559Y943254D01*
Y943259D01*
X975548Y943276D01*
X975543Y943304D01*
X975526Y943337D01*
X975515Y943381D01*
X975498Y943436D01*
X975476Y943497D01*
X975460Y943564D01*
X975443Y943636D01*
X975421Y943719D01*
X975393Y943890D01*
X975371Y944084D01*
X975360Y944284D01*
Y944289D01*
Y944311D01*
Y944344D01*
X975366Y944383D01*
Y944439D01*
X975371Y944494D01*
X975377Y944566D01*
X975388Y944638D01*
X975415Y944799D01*
X975454Y944976D01*
X975509Y945153D01*
X975587Y945325D01*
X975593Y945330D01*
X975598Y945347D01*
X975609Y945369D01*
X975631Y945396D01*
X975654Y945435D01*
X975681Y945480D01*
X975753Y945579D01*
X975847Y945690D01*
X975958Y945801D01*
X976085Y945911D01*
X976235Y946006D01*
X976240Y946011D01*
X976257Y946017D01*
X976279Y946028D01*
X976307Y946044D01*
X976351Y946061D01*
X976395Y946078D01*
X976451Y946100D01*
X976512Y946122D01*
X976578Y946144D01*
X976650Y946166D01*
X976805Y946199D01*
X976982Y946227D01*
X977165Y946238D01*
X977221D01*
X977259Y946233D01*
D02*
G37*
G36*
X1035896Y955101D02*
X1035946D01*
X1036006Y955095D01*
X1036073Y955084D01*
X1036150Y955073D01*
X1036311Y955045D01*
X1036477Y955001D01*
X1036643Y954940D01*
X1036721Y954902D01*
X1036798Y954857D01*
X1036804Y954852D01*
X1036815Y954846D01*
X1036837Y954830D01*
X1036859Y954807D01*
X1036892Y954785D01*
X1036931Y954752D01*
X1036975Y954713D01*
X1037020Y954669D01*
X1037064Y954619D01*
X1037114Y954569D01*
X1037214Y954442D01*
X1037308Y954293D01*
X1037391Y954126D01*
Y954121D01*
X1037402Y954104D01*
X1037407Y954077D01*
X1037424Y954043D01*
X1037435Y953999D01*
X1037452Y953944D01*
X1037474Y953883D01*
X1037490Y953816D01*
X1037507Y953744D01*
X1037529Y953661D01*
X1037557Y953490D01*
X1037579Y953296D01*
X1037590Y953096D01*
Y953091D01*
Y953069D01*
Y953036D01*
X1037585Y952997D01*
Y952941D01*
X1037579Y952886D01*
X1037573Y952814D01*
X1037562Y952742D01*
X1037535Y952581D01*
X1037496Y952404D01*
X1037440Y952227D01*
X1037363Y952055D01*
X1037357Y952050D01*
X1037352Y952033D01*
X1037341Y952011D01*
X1037319Y951983D01*
X1037297Y951945D01*
X1037269Y951900D01*
X1037197Y951801D01*
X1037103Y951690D01*
X1036992Y951579D01*
X1036865Y951469D01*
X1036715Y951374D01*
X1036710Y951369D01*
X1036693Y951363D01*
X1036671Y951352D01*
X1036643Y951336D01*
X1036599Y951319D01*
X1036554Y951302D01*
X1036499Y951280D01*
X1036438Y951258D01*
X1036372Y951236D01*
X1036300Y951214D01*
X1036145Y951181D01*
X1035968Y951153D01*
X1035785Y951142D01*
X1035730D01*
X1035691Y951147D01*
X1035641Y951153D01*
X1035580Y951158D01*
X1035519Y951164D01*
X1035447Y951181D01*
X1035298Y951214D01*
X1035132Y951264D01*
X1035048Y951297D01*
X1034971Y951336D01*
X1034893Y951385D01*
X1034816Y951435D01*
X1034810Y951441D01*
X1034799Y951446D01*
X1034777Y951463D01*
X1034749Y951491D01*
X1034722Y951518D01*
X1034683Y951557D01*
X1034644Y951601D01*
X1034600Y951646D01*
X1034556Y951701D01*
X1034511Y951768D01*
X1034462Y951834D01*
X1034417Y951906D01*
X1034378Y951989D01*
X1034334Y952072D01*
X1034301Y952161D01*
X1034268Y952260D01*
X1034766Y952377D01*
Y952371D01*
X1034772Y952360D01*
X1034783Y952338D01*
X1034794Y952310D01*
X1034805Y952277D01*
X1034821Y952233D01*
X1034866Y952144D01*
X1034921Y952044D01*
X1034987Y951945D01*
X1035071Y951851D01*
X1035159Y951768D01*
X1035170Y951756D01*
X1035203Y951734D01*
X1035259Y951707D01*
X1035331Y951668D01*
X1035425Y951635D01*
X1035530Y951601D01*
X1035658Y951579D01*
X1035796Y951574D01*
X1035840D01*
X1035868Y951579D01*
X1035907D01*
X1035951Y951585D01*
X1036056Y951601D01*
X1036172Y951624D01*
X1036294Y951662D01*
X1036422Y951718D01*
X1036538Y951790D01*
X1036544D01*
X1036549Y951801D01*
X1036588Y951828D01*
X1036638Y951873D01*
X1036699Y951939D01*
X1036770Y952022D01*
X1036837Y952116D01*
X1036898Y952233D01*
X1036953Y952360D01*
Y952365D01*
X1036959Y952377D01*
X1036964Y952393D01*
X1036970Y952421D01*
X1036981Y952454D01*
X1036992Y952493D01*
X1037009Y952587D01*
X1037031Y952698D01*
X1037053Y952820D01*
X1037064Y952952D01*
X1037069Y953096D01*
Y953102D01*
Y953119D01*
Y953146D01*
Y953179D01*
X1037064Y953218D01*
Y953268D01*
X1037058Y953324D01*
X1037053Y953384D01*
X1037036Y953517D01*
X1037009Y953661D01*
X1036975Y953805D01*
X1036931Y953949D01*
Y953955D01*
X1036926Y953966D01*
X1036915Y953982D01*
X1036903Y954010D01*
X1036870Y954077D01*
X1036820Y954154D01*
X1036759Y954243D01*
X1036682Y954337D01*
X1036593Y954420D01*
X1036488Y954497D01*
X1036483D01*
X1036471Y954503D01*
X1036455Y954514D01*
X1036433Y954525D01*
X1036405Y954536D01*
X1036372Y954553D01*
X1036294Y954586D01*
X1036195Y954619D01*
X1036084Y954647D01*
X1035962Y954669D01*
X1035835Y954675D01*
X1035796D01*
X1035763Y954669D01*
X1035724D01*
X1035685Y954663D01*
X1035585Y954641D01*
X1035469Y954614D01*
X1035353Y954569D01*
X1035231Y954508D01*
X1035170Y954475D01*
X1035115Y954431D01*
X1035109Y954425D01*
X1035104Y954420D01*
X1035087Y954403D01*
X1035065Y954387D01*
X1035043Y954359D01*
X1035015Y954326D01*
X1034982Y954293D01*
X1034954Y954248D01*
X1034921Y954198D01*
X1034882Y954143D01*
X1034849Y954088D01*
X1034816Y954021D01*
X1034788Y953949D01*
X1034761Y953872D01*
X1034733Y953789D01*
X1034711Y953700D01*
X1034201Y953827D01*
Y953833D01*
X1034207Y953855D01*
X1034218Y953888D01*
X1034234Y953933D01*
X1034251Y953982D01*
X1034273Y954043D01*
X1034301Y954110D01*
X1034334Y954182D01*
X1034412Y954337D01*
X1034511Y954492D01*
X1034572Y954569D01*
X1034633Y954647D01*
X1034700Y954713D01*
X1034777Y954780D01*
X1034783Y954785D01*
X1034794Y954796D01*
X1034821Y954807D01*
X1034849Y954830D01*
X1034893Y954857D01*
X1034938Y954885D01*
X1034999Y954913D01*
X1035060Y954940D01*
X1035132Y954974D01*
X1035209Y955001D01*
X1035292Y955029D01*
X1035381Y955057D01*
X1035475Y955079D01*
X1035574Y955090D01*
X1035680Y955101D01*
X1035790Y955106D01*
X1035851D01*
X1035896Y955101D01*
D02*
G37*
G36*
X1033199Y955034D02*
Y955018D01*
Y954996D01*
X1033194Y954962D01*
Y954918D01*
X1033188Y954863D01*
X1033182Y954802D01*
X1033177Y954735D01*
X1033166Y954658D01*
X1033155Y954580D01*
X1033138Y954486D01*
X1033121Y954392D01*
X1033105Y954293D01*
X1033083Y954182D01*
X1033027Y953955D01*
Y953949D01*
X1033022Y953927D01*
X1033011Y953894D01*
X1032994Y953844D01*
X1032978Y953789D01*
X1032955Y953722D01*
X1032933Y953645D01*
X1032900Y953562D01*
X1032867Y953467D01*
X1032833Y953373D01*
X1032750Y953163D01*
X1032651Y952941D01*
X1032540Y952720D01*
X1032534Y952714D01*
X1032523Y952692D01*
X1032507Y952664D01*
X1032485Y952620D01*
X1032457Y952570D01*
X1032418Y952510D01*
X1032380Y952443D01*
X1032335Y952371D01*
X1032230Y952210D01*
X1032119Y952044D01*
X1031992Y951873D01*
X1031859Y951712D01*
X1033736D01*
Y951258D01*
X1031255D01*
Y951629D01*
X1031261Y951635D01*
X1031272Y951646D01*
X1031294Y951668D01*
X1031316Y951701D01*
X1031350Y951740D01*
X1031394Y951784D01*
X1031438Y951840D01*
X1031488Y951906D01*
X1031538Y951972D01*
X1031599Y952050D01*
X1031660Y952139D01*
X1031721Y952227D01*
X1031787Y952327D01*
X1031853Y952432D01*
X1031920Y952548D01*
X1031986Y952664D01*
X1031992Y952670D01*
X1032003Y952692D01*
X1032020Y952726D01*
X1032047Y952775D01*
X1032075Y952836D01*
X1032108Y952903D01*
X1032147Y952980D01*
X1032186Y953069D01*
X1032230Y953168D01*
X1032280Y953268D01*
X1032324Y953379D01*
X1032368Y953495D01*
X1032457Y953733D01*
X1032540Y953988D01*
Y953994D01*
X1032546Y954010D01*
X1032551Y954038D01*
X1032562Y954071D01*
X1032573Y954115D01*
X1032584Y954171D01*
X1032601Y954232D01*
X1032612Y954298D01*
X1032629Y954376D01*
X1032645Y954459D01*
X1032673Y954636D01*
X1032701Y954830D01*
X1032717Y955040D01*
X1033199D01*
Y955034D01*
D02*
G37*
G36*
X1054039Y823043D02*
X1054089Y823037D01*
X1054150Y823032D01*
X1054211Y823026D01*
X1054283Y823009D01*
X1054432Y822976D01*
X1054598Y822926D01*
X1054682Y822893D01*
X1054759Y822854D01*
X1054837Y822805D01*
X1054914Y822755D01*
X1054920Y822749D01*
X1054931Y822744D01*
X1054953Y822727D01*
X1054981Y822699D01*
X1055008Y822672D01*
X1055047Y822633D01*
X1055086Y822589D01*
X1055130Y822544D01*
X1055174Y822489D01*
X1055219Y822422D01*
X1055268Y822356D01*
X1055313Y822284D01*
X1055352Y822201D01*
X1055396Y822118D01*
X1055429Y822029D01*
X1055462Y821930D01*
X1054964Y821813D01*
Y821819D01*
X1054958Y821830D01*
X1054947Y821852D01*
X1054936Y821880D01*
X1054925Y821913D01*
X1054909Y821957D01*
X1054864Y822046D01*
X1054809Y822146D01*
X1054743Y822245D01*
X1054659Y822339D01*
X1054571Y822422D01*
X1054560Y822434D01*
X1054527Y822456D01*
X1054471Y822483D01*
X1054399Y822522D01*
X1054305Y822555D01*
X1054200Y822589D01*
X1054072Y822611D01*
X1053934Y822616D01*
X1053890D01*
X1053862Y822611D01*
X1053823D01*
X1053779Y822605D01*
X1053674Y822589D01*
X1053558Y822567D01*
X1053436Y822528D01*
X1053308Y822472D01*
X1053192Y822400D01*
X1053186D01*
X1053181Y822389D01*
X1053142Y822362D01*
X1053092Y822317D01*
X1053031Y822251D01*
X1052960Y822168D01*
X1052893Y822074D01*
X1052832Y821957D01*
X1052777Y821830D01*
Y821824D01*
X1052771Y821813D01*
X1052766Y821797D01*
X1052760Y821769D01*
X1052749Y821736D01*
X1052738Y821697D01*
X1052721Y821603D01*
X1052699Y821492D01*
X1052677Y821370D01*
X1052666Y821237D01*
X1052661Y821094D01*
Y821088D01*
Y821071D01*
Y821044D01*
Y821011D01*
X1052666Y820972D01*
Y820922D01*
X1052672Y820866D01*
X1052677Y820806D01*
X1052694Y820673D01*
X1052721Y820529D01*
X1052755Y820385D01*
X1052799Y820241D01*
Y820235D01*
X1052804Y820224D01*
X1052815Y820208D01*
X1052827Y820180D01*
X1052860Y820114D01*
X1052910Y820036D01*
X1052971Y819947D01*
X1053048Y819853D01*
X1053137Y819770D01*
X1053242Y819693D01*
X1053247D01*
X1053259Y819687D01*
X1053275Y819676D01*
X1053297Y819665D01*
X1053325Y819654D01*
X1053358Y819637D01*
X1053436Y819604D01*
X1053535Y819571D01*
X1053646Y819543D01*
X1053768Y819521D01*
X1053895Y819516D01*
X1053934D01*
X1053967Y819521D01*
X1054006D01*
X1054045Y819527D01*
X1054145Y819549D01*
X1054261Y819576D01*
X1054377Y819621D01*
X1054499Y819682D01*
X1054560Y819715D01*
X1054615Y819759D01*
X1054621Y819765D01*
X1054626Y819770D01*
X1054643Y819787D01*
X1054665Y819803D01*
X1054687Y819831D01*
X1054715Y819864D01*
X1054748Y819898D01*
X1054776Y819942D01*
X1054809Y819992D01*
X1054848Y820047D01*
X1054881Y820102D01*
X1054914Y820169D01*
X1054942Y820241D01*
X1054969Y820318D01*
X1054997Y820401D01*
X1055019Y820490D01*
X1055529Y820363D01*
Y820357D01*
X1055523Y820335D01*
X1055512Y820302D01*
X1055496Y820257D01*
X1055479Y820208D01*
X1055457Y820147D01*
X1055429Y820080D01*
X1055396Y820008D01*
X1055318Y819853D01*
X1055219Y819698D01*
X1055158Y819621D01*
X1055097Y819543D01*
X1055030Y819477D01*
X1054953Y819410D01*
X1054947Y819405D01*
X1054936Y819394D01*
X1054909Y819383D01*
X1054881Y819360D01*
X1054837Y819333D01*
X1054792Y819305D01*
X1054731Y819277D01*
X1054670Y819250D01*
X1054598Y819216D01*
X1054521Y819189D01*
X1054438Y819161D01*
X1054349Y819133D01*
X1054255Y819111D01*
X1054156Y819100D01*
X1054050Y819089D01*
X1053940Y819084D01*
X1053879D01*
X1053834Y819089D01*
X1053785D01*
X1053724Y819095D01*
X1053657Y819106D01*
X1053580Y819117D01*
X1053419Y819145D01*
X1053253Y819189D01*
X1053087Y819250D01*
X1053009Y819288D01*
X1052932Y819333D01*
X1052926Y819338D01*
X1052915Y819344D01*
X1052893Y819360D01*
X1052871Y819383D01*
X1052838Y819405D01*
X1052799Y819438D01*
X1052755Y819477D01*
X1052710Y819521D01*
X1052666Y819571D01*
X1052616Y819621D01*
X1052516Y819748D01*
X1052422Y819898D01*
X1052339Y820064D01*
Y820069D01*
X1052328Y820086D01*
X1052323Y820114D01*
X1052306Y820147D01*
X1052295Y820191D01*
X1052278Y820246D01*
X1052256Y820307D01*
X1052240Y820374D01*
X1052223Y820446D01*
X1052201Y820529D01*
X1052173Y820700D01*
X1052151Y820894D01*
X1052140Y821094D01*
Y821099D01*
Y821121D01*
Y821154D01*
X1052145Y821193D01*
Y821249D01*
X1052151Y821304D01*
X1052157Y821376D01*
X1052168Y821448D01*
X1052195Y821609D01*
X1052234Y821786D01*
X1052290Y821963D01*
X1052367Y822135D01*
X1052373Y822140D01*
X1052378Y822157D01*
X1052389Y822179D01*
X1052411Y822206D01*
X1052433Y822245D01*
X1052461Y822290D01*
X1052533Y822389D01*
X1052627Y822500D01*
X1052738Y822611D01*
X1052865Y822721D01*
X1053015Y822816D01*
X1053020Y822821D01*
X1053037Y822827D01*
X1053059Y822838D01*
X1053087Y822854D01*
X1053131Y822871D01*
X1053176Y822888D01*
X1053231Y822910D01*
X1053292Y822932D01*
X1053358Y822954D01*
X1053430Y822976D01*
X1053585Y823009D01*
X1053762Y823037D01*
X1053945Y823048D01*
X1054000D01*
X1054039Y823043D01*
D02*
G37*
G36*
X1057290Y822993D02*
X1057334Y822987D01*
X1057384Y822982D01*
X1057439Y822976D01*
X1057495Y822960D01*
X1057627Y822926D01*
X1057760Y822877D01*
X1057827Y822843D01*
X1057893Y822805D01*
X1057954Y822755D01*
X1058015Y822705D01*
X1058020Y822699D01*
X1058026Y822694D01*
X1058043Y822677D01*
X1058065Y822655D01*
X1058087Y822622D01*
X1058115Y822589D01*
X1058170Y822505D01*
X1058225Y822400D01*
X1058275Y822279D01*
X1058314Y822140D01*
X1058319Y822068D01*
X1058325Y821991D01*
Y821985D01*
Y821980D01*
Y821946D01*
X1058319Y821897D01*
X1058308Y821835D01*
X1058292Y821758D01*
X1058264Y821681D01*
X1058231Y821603D01*
X1058181Y821525D01*
X1058176Y821514D01*
X1058153Y821492D01*
X1058120Y821459D01*
X1058076Y821415D01*
X1058015Y821365D01*
X1057943Y821315D01*
X1057860Y821265D01*
X1057760Y821221D01*
X1057766D01*
X1057777Y821215D01*
X1057794Y821210D01*
X1057816Y821199D01*
X1057882Y821171D01*
X1057960Y821132D01*
X1058043Y821077D01*
X1058131Y821016D01*
X1058214Y820938D01*
X1058292Y820850D01*
Y820844D01*
X1058297Y820839D01*
X1058319Y820806D01*
X1058353Y820750D01*
X1058386Y820678D01*
X1058419Y820590D01*
X1058452Y820484D01*
X1058475Y820368D01*
X1058480Y820241D01*
Y820235D01*
Y820219D01*
Y820191D01*
X1058475Y820158D01*
X1058469Y820119D01*
X1058464Y820069D01*
X1058452Y820014D01*
X1058436Y819953D01*
X1058397Y819826D01*
X1058369Y819754D01*
X1058331Y819687D01*
X1058292Y819615D01*
X1058248Y819549D01*
X1058192Y819482D01*
X1058131Y819416D01*
X1058126Y819410D01*
X1058115Y819399D01*
X1058098Y819383D01*
X1058070Y819366D01*
X1058032Y819338D01*
X1057993Y819311D01*
X1057943Y819283D01*
X1057888Y819250D01*
X1057827Y819216D01*
X1057755Y819189D01*
X1057677Y819161D01*
X1057600Y819133D01*
X1057511Y819117D01*
X1057417Y819100D01*
X1057323Y819089D01*
X1057218Y819084D01*
X1057162D01*
X1057123Y819089D01*
X1057074Y819095D01*
X1057018Y819100D01*
X1056957Y819111D01*
X1056891Y819128D01*
X1056741Y819167D01*
X1056664Y819194D01*
X1056592Y819222D01*
X1056514Y819261D01*
X1056437Y819305D01*
X1056365Y819355D01*
X1056298Y819416D01*
X1056293Y819421D01*
X1056282Y819432D01*
X1056265Y819449D01*
X1056243Y819477D01*
X1056221Y819510D01*
X1056188Y819549D01*
X1056160Y819593D01*
X1056127Y819648D01*
X1056094Y819704D01*
X1056066Y819770D01*
X1056011Y819909D01*
X1055988Y819992D01*
X1055972Y820075D01*
X1055961Y820163D01*
X1055955Y820252D01*
Y820257D01*
Y820268D01*
Y820291D01*
X1055961Y820313D01*
Y820346D01*
X1055966Y820385D01*
X1055977Y820473D01*
X1055999Y820573D01*
X1056033Y820673D01*
X1056083Y820778D01*
X1056143Y820878D01*
Y820883D01*
X1056154Y820889D01*
X1056177Y820916D01*
X1056221Y820961D01*
X1056282Y821016D01*
X1056359Y821071D01*
X1056453Y821132D01*
X1056559Y821182D01*
X1056686Y821221D01*
X1056681D01*
X1056675Y821226D01*
X1056658Y821232D01*
X1056636Y821243D01*
X1056586Y821265D01*
X1056520Y821298D01*
X1056448Y821343D01*
X1056376Y821398D01*
X1056310Y821459D01*
X1056249Y821525D01*
X1056243Y821536D01*
X1056227Y821559D01*
X1056204Y821603D01*
X1056182Y821658D01*
X1056154Y821730D01*
X1056132Y821813D01*
X1056116Y821908D01*
X1056110Y822007D01*
Y822013D01*
Y822024D01*
Y822046D01*
X1056116Y822079D01*
X1056121Y822112D01*
X1056127Y822157D01*
X1056149Y822251D01*
X1056182Y822362D01*
X1056237Y822478D01*
X1056271Y822539D01*
X1056310Y822600D01*
X1056359Y822655D01*
X1056409Y822710D01*
X1056415Y822716D01*
X1056426Y822721D01*
X1056442Y822738D01*
X1056465Y822755D01*
X1056492Y822777D01*
X1056531Y822799D01*
X1056575Y822827D01*
X1056620Y822854D01*
X1056675Y822882D01*
X1056736Y822910D01*
X1056802Y822932D01*
X1056874Y822954D01*
X1057029Y822987D01*
X1057118Y822993D01*
X1057206Y822998D01*
X1057256D01*
X1057290Y822993D01*
D02*
G37*
G36*
X1054729Y831933D02*
X1054779Y831927D01*
X1054840Y831922D01*
X1054901Y831916D01*
X1054973Y831899D01*
X1055122Y831866D01*
X1055288Y831816D01*
X1055372Y831783D01*
X1055449Y831744D01*
X1055527Y831695D01*
X1055604Y831645D01*
X1055610Y831639D01*
X1055621Y831634D01*
X1055643Y831617D01*
X1055671Y831589D01*
X1055698Y831562D01*
X1055737Y831523D01*
X1055776Y831479D01*
X1055820Y831434D01*
X1055864Y831379D01*
X1055909Y831312D01*
X1055958Y831246D01*
X1056003Y831174D01*
X1056042Y831091D01*
X1056086Y831008D01*
X1056119Y830919D01*
X1056152Y830820D01*
X1055654Y830703D01*
Y830709D01*
X1055648Y830720D01*
X1055637Y830742D01*
X1055626Y830770D01*
X1055615Y830803D01*
X1055599Y830847D01*
X1055554Y830936D01*
X1055499Y831036D01*
X1055433Y831135D01*
X1055349Y831229D01*
X1055261Y831312D01*
X1055250Y831324D01*
X1055217Y831346D01*
X1055161Y831373D01*
X1055089Y831412D01*
X1054995Y831445D01*
X1054890Y831479D01*
X1054762Y831501D01*
X1054624Y831506D01*
X1054580D01*
X1054552Y831501D01*
X1054513D01*
X1054469Y831495D01*
X1054364Y831479D01*
X1054248Y831457D01*
X1054126Y831418D01*
X1053998Y831362D01*
X1053882Y831290D01*
X1053876D01*
X1053871Y831279D01*
X1053832Y831252D01*
X1053782Y831207D01*
X1053721Y831141D01*
X1053650Y831058D01*
X1053583Y830964D01*
X1053522Y830847D01*
X1053467Y830720D01*
Y830714D01*
X1053461Y830703D01*
X1053456Y830687D01*
X1053450Y830659D01*
X1053439Y830626D01*
X1053428Y830587D01*
X1053411Y830493D01*
X1053389Y830382D01*
X1053367Y830260D01*
X1053356Y830127D01*
X1053351Y829984D01*
Y829978D01*
Y829961D01*
Y829934D01*
Y829901D01*
X1053356Y829862D01*
Y829812D01*
X1053362Y829756D01*
X1053367Y829696D01*
X1053384Y829563D01*
X1053411Y829419D01*
X1053445Y829275D01*
X1053489Y829131D01*
Y829125D01*
X1053494Y829114D01*
X1053505Y829098D01*
X1053517Y829070D01*
X1053550Y829004D01*
X1053600Y828926D01*
X1053661Y828837D01*
X1053738Y828743D01*
X1053827Y828660D01*
X1053932Y828583D01*
X1053937D01*
X1053949Y828577D01*
X1053965Y828566D01*
X1053987Y828555D01*
X1054015Y828544D01*
X1054048Y828527D01*
X1054126Y828494D01*
X1054225Y828461D01*
X1054336Y828433D01*
X1054458Y828411D01*
X1054585Y828406D01*
X1054624D01*
X1054657Y828411D01*
X1054696D01*
X1054735Y828417D01*
X1054835Y828439D01*
X1054951Y828466D01*
X1055067Y828511D01*
X1055189Y828572D01*
X1055250Y828605D01*
X1055305Y828649D01*
X1055311Y828655D01*
X1055316Y828660D01*
X1055333Y828677D01*
X1055355Y828693D01*
X1055377Y828721D01*
X1055405Y828754D01*
X1055438Y828788D01*
X1055466Y828832D01*
X1055499Y828882D01*
X1055538Y828937D01*
X1055571Y828992D01*
X1055604Y829059D01*
X1055632Y829131D01*
X1055659Y829208D01*
X1055687Y829291D01*
X1055709Y829380D01*
X1056219Y829253D01*
Y829247D01*
X1056213Y829225D01*
X1056202Y829192D01*
X1056186Y829147D01*
X1056169Y829098D01*
X1056147Y829037D01*
X1056119Y828970D01*
X1056086Y828898D01*
X1056008Y828743D01*
X1055909Y828588D01*
X1055848Y828511D01*
X1055787Y828433D01*
X1055720Y828367D01*
X1055643Y828300D01*
X1055637Y828295D01*
X1055626Y828284D01*
X1055599Y828273D01*
X1055571Y828250D01*
X1055527Y828223D01*
X1055482Y828195D01*
X1055421Y828167D01*
X1055360Y828140D01*
X1055288Y828106D01*
X1055211Y828079D01*
X1055128Y828051D01*
X1055039Y828023D01*
X1054945Y828001D01*
X1054846Y827990D01*
X1054740Y827979D01*
X1054630Y827974D01*
X1054569D01*
X1054524Y827979D01*
X1054474D01*
X1054414Y827985D01*
X1054347Y827996D01*
X1054270Y828007D01*
X1054109Y828035D01*
X1053943Y828079D01*
X1053777Y828140D01*
X1053699Y828178D01*
X1053622Y828223D01*
X1053616Y828228D01*
X1053605Y828234D01*
X1053583Y828250D01*
X1053561Y828273D01*
X1053528Y828295D01*
X1053489Y828328D01*
X1053445Y828367D01*
X1053400Y828411D01*
X1053356Y828461D01*
X1053306Y828511D01*
X1053206Y828638D01*
X1053112Y828788D01*
X1053029Y828954D01*
Y828959D01*
X1053018Y828976D01*
X1053013Y829004D01*
X1052996Y829037D01*
X1052985Y829081D01*
X1052968Y829136D01*
X1052946Y829197D01*
X1052930Y829264D01*
X1052913Y829336D01*
X1052891Y829419D01*
X1052863Y829590D01*
X1052841Y829784D01*
X1052830Y829984D01*
Y829989D01*
Y830011D01*
Y830044D01*
X1052835Y830083D01*
Y830139D01*
X1052841Y830194D01*
X1052847Y830266D01*
X1052858Y830338D01*
X1052885Y830499D01*
X1052924Y830676D01*
X1052980Y830853D01*
X1053057Y831025D01*
X1053063Y831030D01*
X1053068Y831047D01*
X1053079Y831069D01*
X1053101Y831096D01*
X1053123Y831135D01*
X1053151Y831180D01*
X1053223Y831279D01*
X1053317Y831390D01*
X1053428Y831501D01*
X1053555Y831611D01*
X1053705Y831706D01*
X1053710Y831711D01*
X1053727Y831717D01*
X1053749Y831728D01*
X1053777Y831744D01*
X1053821Y831761D01*
X1053866Y831778D01*
X1053921Y831800D01*
X1053982Y831822D01*
X1054048Y831844D01*
X1054120Y831866D01*
X1054275Y831899D01*
X1054452Y831927D01*
X1054635Y831938D01*
X1054690D01*
X1054729Y831933D01*
D02*
G37*
G36*
X1057919Y831883D02*
X1057946D01*
X1057985Y831877D01*
X1058079Y831861D01*
X1058185Y831839D01*
X1058301Y831800D01*
X1058417Y831750D01*
X1058533Y831684D01*
X1058539D01*
X1058544Y831672D01*
X1058561Y831661D01*
X1058583Y831645D01*
X1058639Y831600D01*
X1058710Y831540D01*
X1058783Y831457D01*
X1058866Y831357D01*
X1058938Y831240D01*
X1059004Y831108D01*
Y831102D01*
X1059009Y831091D01*
X1059021Y831069D01*
X1059032Y831041D01*
X1059043Y831002D01*
X1059059Y830953D01*
X1059070Y830897D01*
X1059087Y830836D01*
X1059104Y830764D01*
X1059120Y830681D01*
X1059131Y830593D01*
X1059142Y830499D01*
X1059154Y830393D01*
X1059165Y830283D01*
X1059170Y830161D01*
Y830033D01*
Y830028D01*
Y830000D01*
Y829961D01*
Y829912D01*
X1059165Y829851D01*
Y829779D01*
X1059159Y829696D01*
X1059148Y829613D01*
X1059131Y829424D01*
X1059104Y829225D01*
X1059065Y829037D01*
X1059037Y828943D01*
X1059009Y828859D01*
Y828854D01*
X1059004Y828843D01*
X1058993Y828821D01*
X1058982Y828788D01*
X1058965Y828754D01*
X1058943Y828710D01*
X1058888Y828616D01*
X1058821Y828511D01*
X1058744Y828400D01*
X1058644Y828295D01*
X1058533Y828201D01*
X1058528D01*
X1058517Y828189D01*
X1058500Y828178D01*
X1058478Y828167D01*
X1058445Y828151D01*
X1058411Y828129D01*
X1058367Y828106D01*
X1058323Y828090D01*
X1058218Y828046D01*
X1058090Y828007D01*
X1057952Y827985D01*
X1057797Y827974D01*
X1057753D01*
X1057725Y827979D01*
X1057686D01*
X1057642Y827985D01*
X1057537Y828007D01*
X1057420Y828035D01*
X1057299Y828079D01*
X1057177Y828140D01*
X1057116Y828178D01*
X1057060Y828223D01*
X1057055Y828228D01*
X1057049Y828234D01*
X1057033Y828250D01*
X1057016Y828267D01*
X1056994Y828295D01*
X1056966Y828328D01*
X1056911Y828406D01*
X1056855Y828505D01*
X1056800Y828627D01*
X1056756Y828765D01*
X1056723Y828926D01*
X1057177Y828965D01*
Y828959D01*
X1057182Y828948D01*
Y828937D01*
X1057188Y828915D01*
X1057204Y828854D01*
X1057226Y828788D01*
X1057254Y828710D01*
X1057293Y828633D01*
X1057337Y828560D01*
X1057393Y828500D01*
X1057398Y828494D01*
X1057420Y828477D01*
X1057459Y828455D01*
X1057503Y828433D01*
X1057564Y828406D01*
X1057636Y828383D01*
X1057719Y828367D01*
X1057808Y828361D01*
X1057847D01*
X1057886Y828367D01*
X1057935Y828372D01*
X1057996Y828383D01*
X1058057Y828400D01*
X1058124Y828422D01*
X1058185Y828455D01*
X1058190Y828461D01*
X1058212Y828472D01*
X1058245Y828494D01*
X1058279Y828527D01*
X1058323Y828566D01*
X1058367Y828610D01*
X1058411Y828660D01*
X1058456Y828721D01*
X1058461Y828727D01*
X1058472Y828754D01*
X1058495Y828793D01*
X1058517Y828843D01*
X1058544Y828909D01*
X1058572Y828987D01*
X1058600Y829075D01*
X1058627Y829175D01*
Y829181D01*
X1058633Y829186D01*
Y829203D01*
X1058639Y829225D01*
X1058650Y829280D01*
X1058666Y829352D01*
X1058677Y829441D01*
X1058688Y829535D01*
X1058694Y829640D01*
X1058699Y829751D01*
Y829756D01*
Y829773D01*
Y829801D01*
Y829845D01*
X1058694Y829834D01*
X1058672Y829806D01*
X1058639Y829768D01*
X1058600Y829712D01*
X1058544Y829657D01*
X1058478Y829596D01*
X1058400Y829535D01*
X1058312Y829480D01*
X1058301Y829474D01*
X1058268Y829457D01*
X1058218Y829435D01*
X1058157Y829413D01*
X1058074Y829386D01*
X1057985Y829363D01*
X1057886Y829347D01*
X1057780Y829341D01*
X1057736D01*
X1057703Y829347D01*
X1057658Y829352D01*
X1057614Y829358D01*
X1057559Y829369D01*
X1057503Y829386D01*
X1057376Y829424D01*
X1057310Y829452D01*
X1057243Y829485D01*
X1057171Y829524D01*
X1057105Y829574D01*
X1057038Y829624D01*
X1056977Y829685D01*
X1056972Y829690D01*
X1056961Y829701D01*
X1056950Y829718D01*
X1056927Y829745D01*
X1056900Y829784D01*
X1056872Y829823D01*
X1056844Y829873D01*
X1056817Y829928D01*
X1056784Y829989D01*
X1056756Y830055D01*
X1056728Y830133D01*
X1056701Y830211D01*
X1056678Y830299D01*
X1056667Y830393D01*
X1056656Y830487D01*
X1056651Y830593D01*
Y830598D01*
Y830620D01*
Y830648D01*
X1056656Y830687D01*
X1056662Y830737D01*
X1056667Y830798D01*
X1056678Y830858D01*
X1056695Y830930D01*
X1056734Y831074D01*
X1056761Y831152D01*
X1056795Y831235D01*
X1056833Y831312D01*
X1056883Y831385D01*
X1056933Y831462D01*
X1056994Y831528D01*
X1057000Y831534D01*
X1057011Y831545D01*
X1057027Y831562D01*
X1057055Y831584D01*
X1057088Y831611D01*
X1057132Y831645D01*
X1057177Y831672D01*
X1057232Y831711D01*
X1057287Y831744D01*
X1057354Y831772D01*
X1057503Y831833D01*
X1057581Y831855D01*
X1057670Y831872D01*
X1057758Y831883D01*
X1057852Y831888D01*
X1057891D01*
X1057919Y831883D01*
D02*
G37*
G36*
X828040Y689072D02*
X825044D01*
X825050Y689066D01*
X825072Y689039D01*
X825105Y689006D01*
X825144Y688950D01*
X825194Y688889D01*
X825249Y688812D01*
X825310Y688723D01*
X825371Y688623D01*
Y688618D01*
X825377Y688612D01*
X825399Y688579D01*
X825426Y688524D01*
X825460Y688457D01*
X825498Y688380D01*
X825537Y688297D01*
X825576Y688214D01*
X825609Y688131D01*
X825155D01*
Y688136D01*
X825144Y688147D01*
X825138Y688169D01*
X825122Y688197D01*
X825105Y688230D01*
X825083Y688269D01*
X825028Y688363D01*
X824967Y688474D01*
X824889Y688585D01*
X824801Y688701D01*
X824707Y688817D01*
X824701Y688823D01*
X824696Y688828D01*
X824679Y688845D01*
X824662Y688867D01*
X824607Y688917D01*
X824540Y688983D01*
X824463Y689050D01*
X824374Y689122D01*
X824286Y689183D01*
X824192Y689238D01*
Y689543D01*
X828040D01*
Y689072D01*
D02*
G37*
G36*
X826855Y687333D02*
X826888Y687322D01*
X826933Y687306D01*
X826982Y687289D01*
X827043Y687267D01*
X827110Y687239D01*
X827182Y687206D01*
X827337Y687128D01*
X827492Y687029D01*
X827569Y686968D01*
X827647Y686907D01*
X827713Y686840D01*
X827780Y686763D01*
X827785Y686757D01*
X827796Y686746D01*
X827807Y686719D01*
X827830Y686691D01*
X827857Y686647D01*
X827885Y686602D01*
X827913Y686541D01*
X827940Y686480D01*
X827974Y686408D01*
X828001Y686331D01*
X828029Y686248D01*
X828057Y686159D01*
X828079Y686065D01*
X828090Y685965D01*
X828101Y685860D01*
X828106Y685750D01*
Y685689D01*
X828101Y685644D01*
Y685594D01*
X828095Y685534D01*
X828084Y685467D01*
X828073Y685390D01*
X828046Y685229D01*
X828001Y685063D01*
X827940Y684897D01*
X827902Y684819D01*
X827857Y684742D01*
X827852Y684736D01*
X827846Y684725D01*
X827830Y684703D01*
X827807Y684681D01*
X827785Y684648D01*
X827752Y684609D01*
X827713Y684565D01*
X827669Y684520D01*
X827619Y684476D01*
X827569Y684426D01*
X827442Y684326D01*
X827292Y684232D01*
X827126Y684149D01*
X827121D01*
X827104Y684138D01*
X827076Y684133D01*
X827043Y684116D01*
X826999Y684105D01*
X826944Y684088D01*
X826883Y684066D01*
X826816Y684050D01*
X826744Y684033D01*
X826661Y684011D01*
X826490Y683983D01*
X826296Y683961D01*
X826096Y683950D01*
X826091D01*
X826069D01*
X826036D01*
X825997Y683956D01*
X825941D01*
X825886Y683961D01*
X825814Y683967D01*
X825742Y683978D01*
X825582Y684005D01*
X825404Y684044D01*
X825227Y684100D01*
X825055Y684177D01*
X825050Y684183D01*
X825033Y684188D01*
X825011Y684199D01*
X824984Y684221D01*
X824945Y684243D01*
X824900Y684271D01*
X824801Y684343D01*
X824690Y684437D01*
X824579Y684548D01*
X824469Y684675D01*
X824374Y684825D01*
X824369Y684830D01*
X824363Y684847D01*
X824352Y684869D01*
X824336Y684897D01*
X824319Y684941D01*
X824302Y684985D01*
X824280Y685041D01*
X824258Y685102D01*
X824236Y685168D01*
X824214Y685240D01*
X824181Y685395D01*
X824153Y685572D01*
X824142Y685755D01*
Y685810D01*
X824147Y685849D01*
X824153Y685899D01*
X824158Y685960D01*
X824164Y686021D01*
X824181Y686093D01*
X824214Y686242D01*
X824264Y686408D01*
X824297Y686492D01*
X824336Y686569D01*
X824385Y686647D01*
X824435Y686724D01*
X824441Y686730D01*
X824446Y686741D01*
X824463Y686763D01*
X824491Y686791D01*
X824518Y686818D01*
X824557Y686857D01*
X824601Y686896D01*
X824646Y686940D01*
X824701Y686984D01*
X824768Y687029D01*
X824834Y687078D01*
X824906Y687123D01*
X824989Y687162D01*
X825072Y687206D01*
X825161Y687239D01*
X825260Y687272D01*
X825377Y686774D01*
X825371D01*
X825360Y686768D01*
X825338Y686757D01*
X825310Y686746D01*
X825277Y686735D01*
X825233Y686719D01*
X825144Y686674D01*
X825044Y686619D01*
X824945Y686553D01*
X824851Y686469D01*
X824768Y686381D01*
X824756Y686370D01*
X824734Y686337D01*
X824707Y686281D01*
X824668Y686209D01*
X824635Y686115D01*
X824601Y686010D01*
X824579Y685882D01*
X824574Y685744D01*
Y685700D01*
X824579Y685672D01*
Y685633D01*
X824585Y685589D01*
X824601Y685484D01*
X824623Y685368D01*
X824662Y685246D01*
X824718Y685118D01*
X824790Y685002D01*
Y684996D01*
X824801Y684991D01*
X824828Y684952D01*
X824873Y684902D01*
X824939Y684842D01*
X825022Y684770D01*
X825116Y684703D01*
X825233Y684642D01*
X825360Y684587D01*
X825366D01*
X825377Y684581D01*
X825393Y684576D01*
X825421Y684570D01*
X825454Y684559D01*
X825493Y684548D01*
X825587Y684531D01*
X825698Y684509D01*
X825820Y684487D01*
X825953Y684476D01*
X826096Y684471D01*
X826102D01*
X826119D01*
X826146D01*
X826180D01*
X826218Y684476D01*
X826268D01*
X826323Y684482D01*
X826384Y684487D01*
X826517Y684504D01*
X826661Y684531D01*
X826805Y684565D01*
X826949Y684609D01*
X826955D01*
X826966Y684614D01*
X826982Y684625D01*
X827010Y684637D01*
X827076Y684670D01*
X827154Y684720D01*
X827243Y684781D01*
X827337Y684858D01*
X827420Y684947D01*
X827497Y685052D01*
Y685057D01*
X827503Y685069D01*
X827514Y685085D01*
X827525Y685107D01*
X827536Y685135D01*
X827553Y685168D01*
X827586Y685246D01*
X827619Y685345D01*
X827647Y685456D01*
X827669Y685578D01*
X827674Y685705D01*
Y685744D01*
X827669Y685777D01*
Y685816D01*
X827663Y685855D01*
X827641Y685955D01*
X827614Y686071D01*
X827569Y686187D01*
X827508Y686309D01*
X827475Y686370D01*
X827431Y686425D01*
X827425Y686431D01*
X827420Y686436D01*
X827403Y686453D01*
X827387Y686475D01*
X827359Y686497D01*
X827326Y686525D01*
X827292Y686558D01*
X827248Y686586D01*
X827198Y686619D01*
X827143Y686658D01*
X827088Y686691D01*
X827021Y686724D01*
X826949Y686752D01*
X826872Y686779D01*
X826789Y686807D01*
X826700Y686829D01*
X826827Y687339D01*
X826833D01*
X826855Y687333D01*
D02*
G37*
%LPC*%
G36*
X825260Y788672D02*
X825255D01*
X825249D01*
X825216Y788666D01*
X825166Y788661D01*
X825100Y788649D01*
X825033Y788622D01*
X824956Y788588D01*
X824884Y788539D01*
X824812Y788472D01*
X824806Y788461D01*
X824784Y788434D01*
X824756Y788389D01*
X824723Y788317D01*
X824690Y788234D01*
X824662Y788123D01*
X824640Y787996D01*
X824635Y787847D01*
Y786639D01*
X825903D01*
Y787780D01*
X825897Y787847D01*
X825892Y787924D01*
X825886Y788013D01*
X825875Y788101D01*
X825858Y788190D01*
X825836Y788267D01*
X825831Y788278D01*
X825820Y788301D01*
X825803Y788334D01*
X825781Y788378D01*
X825748Y788428D01*
X825709Y788478D01*
X825659Y788528D01*
X825604Y788566D01*
X825598Y788572D01*
X825576Y788583D01*
X825543Y788600D01*
X825498Y788622D01*
X825449Y788638D01*
X825393Y788655D01*
X825327Y788666D01*
X825260Y788672D01*
D02*
G37*
G36*
X1154395Y533309D02*
X1154390D01*
X1154379D01*
X1154356D01*
X1154329Y533303D01*
X1154290D01*
X1154251Y533298D01*
X1154163Y533281D01*
X1154057Y533259D01*
X1153947Y533220D01*
X1153841Y533165D01*
X1153747Y533093D01*
X1153742D01*
X1153736Y533082D01*
X1153709Y533054D01*
X1153670Y533010D01*
X1153625Y532949D01*
X1153587Y532871D01*
X1153548Y532783D01*
X1153520Y532683D01*
X1153509Y532627D01*
Y532539D01*
X1153515Y532517D01*
X1153520Y532456D01*
X1153542Y532384D01*
X1153570Y532295D01*
X1153620Y532201D01*
X1153681Y532107D01*
X1153725Y532063D01*
X1153770Y532018D01*
X1153775D01*
X1153781Y532007D01*
X1153797Y531996D01*
X1153814Y531985D01*
X1153869Y531946D01*
X1153947Y531908D01*
X1154041Y531863D01*
X1154157Y531825D01*
X1154290Y531802D01*
X1154434Y531791D01*
X1154439D01*
X1154451D01*
X1154467D01*
X1154495Y531797D01*
X1154528D01*
X1154561Y531802D01*
X1154644Y531819D01*
X1154738Y531847D01*
X1154838Y531880D01*
X1154938Y531935D01*
X1155026Y532007D01*
X1155038Y532018D01*
X1155060Y532046D01*
X1155098Y532096D01*
X1155137Y532157D01*
X1155182Y532240D01*
X1155220Y532334D01*
X1155242Y532439D01*
X1155254Y532556D01*
Y532589D01*
X1155248Y532611D01*
X1155242Y532672D01*
X1155226Y532744D01*
X1155198Y532832D01*
X1155159Y532921D01*
X1155104Y533010D01*
X1155026Y533093D01*
X1155015Y533104D01*
X1154982Y533126D01*
X1154932Y533159D01*
X1154860Y533203D01*
X1154772Y533242D01*
X1154667Y533275D01*
X1154539Y533298D01*
X1154395Y533309D01*
D02*
G37*
G36*
X826689Y661227D02*
X824972D01*
X826689Y660020D01*
Y661227D01*
D02*
G37*
G36*
X980465Y944411D02*
X980432D01*
X980410Y944405D01*
X980355Y944400D01*
X980277Y944383D01*
X980194Y944355D01*
X980100Y944311D01*
X980011Y944256D01*
X979923Y944178D01*
X979912Y944167D01*
X979889Y944140D01*
X979851Y944090D01*
X979812Y944018D01*
X979773Y943935D01*
X979734Y943829D01*
X979712Y943713D01*
X979701Y943580D01*
Y943569D01*
Y943542D01*
X979707Y943492D01*
X979712Y943431D01*
X979723Y943359D01*
X979745Y943281D01*
X979768Y943198D01*
X979801Y943115D01*
X979806Y943104D01*
X979823Y943076D01*
X979845Y943038D01*
X979878Y942988D01*
X979917Y942938D01*
X979967Y942877D01*
X980022Y942827D01*
X980089Y942777D01*
X980100Y942772D01*
X980122Y942761D01*
X980161Y942739D01*
X980211Y942722D01*
X980266Y942700D01*
X980332Y942678D01*
X980404Y942667D01*
X980482Y942661D01*
X980510D01*
X980532Y942667D01*
X980587Y942672D01*
X980659Y942689D01*
X980737Y942722D01*
X980825Y942761D01*
X980914Y942822D01*
X980958Y942855D01*
X980997Y942899D01*
Y942905D01*
X981008Y942910D01*
X981030Y942944D01*
X981063Y942999D01*
X981108Y943071D01*
X981146Y943165D01*
X981180Y943276D01*
X981202Y943403D01*
X981213Y943553D01*
Y943558D01*
Y943569D01*
Y943591D01*
X981207Y943619D01*
Y943652D01*
X981202Y943691D01*
X981185Y943780D01*
X981163Y943879D01*
X981124Y943985D01*
X981069Y944084D01*
X980997Y944178D01*
X980986Y944189D01*
X980958Y944217D01*
X980914Y944250D01*
X980853Y944295D01*
X980775Y944339D01*
X980687Y944372D01*
X980582Y944400D01*
X980465Y944411D01*
D02*
G37*
G36*
X1057218Y822611D02*
X1057173D01*
X1057123Y822600D01*
X1057057Y822589D01*
X1056985Y822567D01*
X1056908Y822539D01*
X1056836Y822495D01*
X1056764Y822434D01*
X1056758Y822428D01*
X1056736Y822406D01*
X1056708Y822367D01*
X1056681Y822317D01*
X1056647Y822256D01*
X1056620Y822184D01*
X1056598Y822107D01*
X1056592Y822018D01*
Y822013D01*
Y822007D01*
X1056598Y821974D01*
X1056603Y821924D01*
X1056614Y821863D01*
X1056636Y821791D01*
X1056664Y821719D01*
X1056708Y821642D01*
X1056764Y821575D01*
X1056769Y821570D01*
X1056797Y821548D01*
X1056836Y821520D01*
X1056885Y821492D01*
X1056952Y821459D01*
X1057029Y821431D01*
X1057118Y821409D01*
X1057218Y821404D01*
X1057229D01*
X1057262Y821409D01*
X1057312Y821415D01*
X1057378Y821426D01*
X1057450Y821448D01*
X1057522Y821476D01*
X1057600Y821520D01*
X1057666Y821575D01*
X1057672Y821581D01*
X1057694Y821609D01*
X1057721Y821642D01*
X1057755Y821692D01*
X1057788Y821752D01*
X1057816Y821824D01*
X1057838Y821908D01*
X1057843Y821996D01*
Y822002D01*
Y822007D01*
Y822040D01*
X1057832Y822090D01*
X1057821Y822151D01*
X1057799Y822218D01*
X1057766Y822290D01*
X1057721Y822362D01*
X1057661Y822434D01*
X1057655Y822439D01*
X1057627Y822461D01*
X1057589Y822489D01*
X1057539Y822522D01*
X1057472Y822555D01*
X1057400Y822583D01*
X1057312Y822605D01*
X1057218Y822611D01*
D02*
G37*
G36*
X1057201Y821022D02*
X1057168D01*
X1057146Y821016D01*
X1057085Y821011D01*
X1057007Y820994D01*
X1056919Y820966D01*
X1056830Y820927D01*
X1056736Y820872D01*
X1056653Y820800D01*
X1056642Y820789D01*
X1056620Y820761D01*
X1056586Y820712D01*
X1056548Y820651D01*
X1056503Y820567D01*
X1056470Y820473D01*
X1056448Y820368D01*
X1056437Y820252D01*
Y820241D01*
Y820219D01*
X1056442Y820180D01*
X1056448Y820130D01*
X1056459Y820069D01*
X1056476Y820003D01*
X1056498Y819936D01*
X1056525Y819864D01*
X1056531Y819859D01*
X1056542Y819831D01*
X1056564Y819798D01*
X1056598Y819759D01*
X1056636Y819709D01*
X1056686Y819659D01*
X1056741Y819615D01*
X1056808Y819571D01*
X1056819Y819565D01*
X1056841Y819554D01*
X1056880Y819538D01*
X1056930Y819521D01*
X1056991Y819504D01*
X1057063Y819488D01*
X1057140Y819477D01*
X1057218Y819471D01*
X1057251D01*
X1057273Y819477D01*
X1057339Y819482D01*
X1057417Y819499D01*
X1057506Y819527D01*
X1057600Y819560D01*
X1057688Y819615D01*
X1057777Y819687D01*
X1057788Y819698D01*
X1057810Y819726D01*
X1057849Y819776D01*
X1057888Y819837D01*
X1057926Y819914D01*
X1057965Y820008D01*
X1057987Y820119D01*
X1057998Y820235D01*
Y820241D01*
Y820252D01*
Y820268D01*
X1057993Y820291D01*
X1057987Y820352D01*
X1057971Y820435D01*
X1057943Y820518D01*
X1057904Y820612D01*
X1057849Y820706D01*
X1057771Y820795D01*
X1057760Y820806D01*
X1057733Y820828D01*
X1057683Y820866D01*
X1057616Y820911D01*
X1057533Y820950D01*
X1057434Y820988D01*
X1057323Y821011D01*
X1057201Y821022D01*
D02*
G37*
G36*
X1057969Y831501D02*
X1057880D01*
X1057858Y831495D01*
X1057797Y831490D01*
X1057725Y831468D01*
X1057636Y831440D01*
X1057542Y831390D01*
X1057448Y831329D01*
X1057404Y831285D01*
X1057359Y831240D01*
Y831235D01*
X1057348Y831229D01*
X1057337Y831213D01*
X1057326Y831196D01*
X1057287Y831141D01*
X1057249Y831063D01*
X1057204Y830969D01*
X1057166Y830853D01*
X1057143Y830720D01*
X1057132Y830576D01*
Y830571D01*
Y830559D01*
Y830543D01*
X1057138Y830515D01*
Y830482D01*
X1057143Y830449D01*
X1057160Y830366D01*
X1057188Y830272D01*
X1057221Y830172D01*
X1057276Y830072D01*
X1057348Y829984D01*
X1057359Y829973D01*
X1057387Y829950D01*
X1057437Y829912D01*
X1057498Y829873D01*
X1057581Y829828D01*
X1057675Y829790D01*
X1057780Y829768D01*
X1057896Y829756D01*
X1057930D01*
X1057952Y829762D01*
X1058013Y829768D01*
X1058085Y829784D01*
X1058173Y829812D01*
X1058262Y829851D01*
X1058351Y829906D01*
X1058434Y829984D01*
X1058445Y829995D01*
X1058467Y830028D01*
X1058500Y830078D01*
X1058544Y830150D01*
X1058583Y830238D01*
X1058616Y830343D01*
X1058639Y830471D01*
X1058650Y830615D01*
Y830620D01*
Y830631D01*
Y830654D01*
X1058644Y830681D01*
Y830720D01*
X1058639Y830759D01*
X1058622Y830847D01*
X1058600Y830953D01*
X1058561Y831063D01*
X1058506Y831169D01*
X1058434Y831263D01*
Y831268D01*
X1058423Y831274D01*
X1058395Y831301D01*
X1058351Y831340D01*
X1058290Y831385D01*
X1058212Y831423D01*
X1058124Y831462D01*
X1058024Y831490D01*
X1057969Y831501D01*
D02*
G37*
%LPD*%
D12*
X1113063Y897808D02*
X1110564Y900308D01*
X1105565D01*
X1103066Y897808D01*
Y887812D01*
X1105565Y885312D01*
X1110564D01*
X1113063Y887812D01*
X1118061Y885312D02*
X1123060D01*
X1120560D01*
Y900308D01*
X1118061Y897808D01*
X1130557Y900308D02*
X1140554D01*
Y897808D01*
X1130557Y887812D01*
Y885312D01*
X796290Y1075972D02*
X801288D01*
X798789D01*
Y1088468D01*
X801288Y1090968D01*
X803788D01*
X806287Y1088468D01*
X791292Y1090968D02*
X786293D01*
X788792D01*
Y1075972D01*
X791292Y1078472D01*
X1007069Y1011002D02*
X1009568Y1008502D01*
X1014567D01*
X1017066Y1011002D01*
Y1020998D01*
X1014567Y1023498D01*
X1009568D01*
X1007069Y1020998D01*
X992074Y1008502D02*
X1002071D01*
Y1016000D01*
X997072Y1013501D01*
X994573D01*
X992074Y1016000D01*
Y1020998D01*
X994573Y1023498D01*
X999572D01*
X1002071Y1020998D01*
D18*
X1116310Y501569D02*
Y491571D01*
Y501569D02*
X1120595D01*
X1122023Y501093D01*
X1122499Y500617D01*
X1122975Y499665D01*
Y498712D01*
X1122499Y497760D01*
X1122023Y497284D01*
X1120595Y496808D01*
X1116310D01*
X1119643D02*
X1122975Y491571D01*
X1125213Y499665D02*
X1126165Y500141D01*
X1127593Y501569D01*
Y491571D01*
X1133021Y499188D02*
Y499665D01*
X1133497Y500617D01*
X1133973Y501093D01*
X1134925Y501569D01*
X1136830D01*
X1137782Y501093D01*
X1138258Y500617D01*
X1138734Y499665D01*
Y498712D01*
X1138258Y497760D01*
X1137306Y496332D01*
X1132545Y491571D01*
X1139210D01*
X1624252Y647162D02*
X1623299Y646686D01*
X1622347Y645734D01*
X1621871Y644782D01*
Y642877D01*
X1622347Y641925D01*
X1623299Y640973D01*
X1624252Y640497D01*
X1625680Y640021D01*
X1628060D01*
X1629489Y640497D01*
X1630441Y640973D01*
X1631393Y641925D01*
X1631869Y642877D01*
Y644782D01*
X1631393Y645734D01*
X1630441Y646686D01*
X1629489Y647162D01*
X1624252Y650447D02*
X1623775D01*
X1622823Y650923D01*
X1622347Y651399D01*
X1621871Y652352D01*
Y654256D01*
X1622347Y655208D01*
X1622823Y655684D01*
X1623775Y656160D01*
X1624728D01*
X1625680Y655684D01*
X1627108Y654732D01*
X1631869Y649971D01*
Y656636D01*
X1621871Y664587D02*
Y659826D01*
X1626156Y659350D01*
X1625680Y659826D01*
X1625204Y661254D01*
Y662683D01*
X1625680Y664111D01*
X1626632Y665063D01*
X1628060Y665539D01*
X1629012D01*
X1630441Y665063D01*
X1631393Y664111D01*
X1631869Y662683D01*
Y661254D01*
X1631393Y659826D01*
X1630917Y659350D01*
X1629965Y658874D01*
X1624252Y918942D02*
X1623299Y918466D01*
X1622347Y917514D01*
X1621871Y916562D01*
Y914657D01*
X1622347Y913705D01*
X1623299Y912753D01*
X1624252Y912277D01*
X1625680Y911801D01*
X1628060D01*
X1629489Y912277D01*
X1630441Y912753D01*
X1631393Y913705D01*
X1631869Y914657D01*
Y916562D01*
X1631393Y917514D01*
X1630441Y918466D01*
X1629489Y918942D01*
X1624252Y922227D02*
X1623775D01*
X1622823Y922703D01*
X1622347Y923179D01*
X1621871Y924131D01*
Y926036D01*
X1622347Y926988D01*
X1622823Y927464D01*
X1623775Y927940D01*
X1624728D01*
X1625680Y927464D01*
X1627108Y926512D01*
X1631869Y921751D01*
Y928416D01*
X1624252Y931130D02*
X1623775D01*
X1622823Y931606D01*
X1622347Y932082D01*
X1621871Y933034D01*
Y934939D01*
X1622347Y935891D01*
X1622823Y936367D01*
X1623775Y936843D01*
X1624728D01*
X1625680Y936367D01*
X1627108Y935415D01*
X1631869Y930654D01*
Y937319D01*
X1536622Y920212D02*
X1535669Y919736D01*
X1534717Y918784D01*
X1534241Y917832D01*
Y915927D01*
X1534717Y914975D01*
X1535669Y914023D01*
X1536622Y913547D01*
X1538050Y913071D01*
X1540430D01*
X1541859Y913547D01*
X1542811Y914023D01*
X1543763Y914975D01*
X1544239Y915927D01*
Y917832D01*
X1543763Y918784D01*
X1542811Y919736D01*
X1541859Y920212D01*
X1536622Y923497D02*
X1536145D01*
X1535193Y923973D01*
X1534717Y924449D01*
X1534241Y925402D01*
Y927306D01*
X1534717Y928258D01*
X1535193Y928734D01*
X1536145Y929210D01*
X1537098D01*
X1538050Y928734D01*
X1539478Y927782D01*
X1544239Y923021D01*
Y929686D01*
X1534241Y932876D02*
Y938113D01*
X1538050Y935257D01*
Y936685D01*
X1538526Y937637D01*
X1539002Y938113D01*
X1540430Y938589D01*
X1541382D01*
X1542811Y938113D01*
X1543763Y937161D01*
X1544239Y935733D01*
Y934304D01*
X1543763Y932876D01*
X1543287Y932400D01*
X1542335Y931924D01*
X1527731Y645654D02*
X1526779Y645178D01*
X1525827Y644226D01*
X1525351Y643274D01*
Y641369D01*
X1525827Y640417D01*
X1526779Y639465D01*
X1527731Y638989D01*
X1529160Y638513D01*
X1531540D01*
X1532968Y638989D01*
X1533921Y639465D01*
X1534873Y640417D01*
X1535349Y641369D01*
Y643274D01*
X1534873Y644226D01*
X1533921Y645178D01*
X1532968Y645654D01*
X1527731Y648939D02*
X1527255D01*
X1526303Y649415D01*
X1525827Y649891D01*
X1525351Y650844D01*
Y652748D01*
X1525827Y653700D01*
X1526303Y654176D01*
X1527255Y654652D01*
X1528208D01*
X1529160Y654176D01*
X1530588Y653224D01*
X1535349Y648463D01*
Y655128D01*
X1525351Y662127D02*
X1532016Y657366D01*
Y664507D01*
X1525351Y662127D02*
X1535349D01*
X1120959Y398616D02*
Y402901D01*
X1120483Y404329D01*
X1120007Y404805D01*
X1119055Y405281D01*
X1117626D01*
X1116674Y404805D01*
X1116198Y404329D01*
X1115722Y402901D01*
Y398616D01*
X1125720D01*
X1118102Y407995D02*
X1117626D01*
X1116674Y408471D01*
X1116198Y408947D01*
X1115722Y409899D01*
Y411804D01*
X1116198Y412756D01*
X1116674Y413232D01*
X1117626Y413708D01*
X1118578D01*
X1119531Y413232D01*
X1120959Y412280D01*
X1125720Y407519D01*
Y414184D01*
X1224518Y400758D02*
Y405043D01*
X1224042Y406471D01*
X1223566Y406948D01*
X1222614Y407424D01*
X1221185D01*
X1220233Y406948D01*
X1219757Y406471D01*
X1219281Y405043D01*
Y400758D01*
X1229279D01*
X1221185Y409661D02*
X1220709Y410613D01*
X1219281Y412042D01*
X1229279D01*
X1214973Y500299D02*
Y490301D01*
Y500299D02*
X1219257D01*
X1220686Y499823D01*
X1221162Y499347D01*
X1221638Y498395D01*
Y497442D01*
X1221162Y496490D01*
X1220686Y496014D01*
X1219257Y495538D01*
X1214973D01*
X1218305D02*
X1221638Y490301D01*
X1223875Y498395D02*
X1224827Y498871D01*
X1226256Y500299D01*
Y490301D01*
X1231207Y498395D02*
X1232159Y498871D01*
X1233587Y500299D01*
Y490301D01*
M02*
