G04*
G04 #@! TF.GenerationSoftware,Altium Limited,Altium Designer,26.4.1 (12)*
G04*
G04 Layer_Color=8421504*
%FSLAX44Y44*%
%MOMM*%
G71*
G04*
G04 #@! TF.SameCoordinates,0A6EDB4D-EBB9-47F7-83F3-19040AB4B5EA*
G04*
G04*
G04 #@! TF.FilePolarity,Positive*
G04*
G01*
G75*
%ADD19R,1.0000X3.2000*%
%ADD20R,0.6000X1.5000*%
%ADD21R,1.5000X0.6000*%
%ADD22R,1.7800X1.7800*%
%ADD23R,2.7900X0.7600*%
%ADD24R,1.6002X3.0988*%
%ADD25R,1.6002X0.8382*%
%ADD26R,0.3213X0.9725*%
%ADD27R,1.5000X0.6000*%
%ADD28R,0.8552X1.3562*%
%ADD29R,1.3000X1.4500*%
G04:AMPARAMS|DCode=30|XSize=1.57mm|YSize=0.41mm|CornerRadius=0.1025mm|HoleSize=0mm|Usage=FLASHONLY|Rotation=0.000|XOffset=0mm|YOffset=0mm|HoleType=Round|Shape=RoundedRectangle|*
%AMROUNDEDRECTD30*
21,1,1.5700,0.2050,0,0,0.0*
21,1,1.3650,0.4100,0,0,0.0*
1,1,0.2050,0.6825,-0.1025*
1,1,0.2050,-0.6825,-0.1025*
1,1,0.2050,-0.6825,0.1025*
1,1,0.2050,0.6825,0.1025*
%
%ADD30ROUNDEDRECTD30*%
G04:AMPARAMS|DCode=31|XSize=0.55mm|YSize=0.5mm|CornerRadius=0.0625mm|HoleSize=0mm|Usage=FLASHONLY|Rotation=90.000|XOffset=0mm|YOffset=0mm|HoleType=Round|Shape=RoundedRectangle|*
%AMROUNDEDRECTD31*
21,1,0.5500,0.3750,0,0,90.0*
21,1,0.4250,0.5000,0,0,90.0*
1,1,0.1250,0.1875,0.2125*
1,1,0.1250,0.1875,-0.2125*
1,1,0.1250,-0.1875,-0.2125*
1,1,0.1250,-0.1875,0.2125*
%
%ADD31ROUNDEDRECTD31*%
%ADD32R,0.9725X0.3213*%
%ADD33R,1.4500X1.3000*%
%ADD34R,3.2500X2.1500*%
%ADD35R,0.9500X2.1500*%
G04:AMPARAMS|DCode=36|XSize=0.55mm|YSize=0.5mm|CornerRadius=0.0625mm|HoleSize=0mm|Usage=FLASHONLY|Rotation=180.000|XOffset=0mm|YOffset=0mm|HoleType=Round|Shape=RoundedRectangle|*
%AMROUNDEDRECTD36*
21,1,0.5500,0.3750,0,0,180.0*
21,1,0.4250,0.5000,0,0,180.0*
1,1,0.1250,-0.2125,0.1875*
1,1,0.1250,0.2125,0.1875*
1,1,0.1250,0.2125,-0.1875*
1,1,0.1250,-0.2125,-0.1875*
%
%ADD36ROUNDEDRECTD36*%
%ADD37R,1.3500X1.5500*%
%ADD38R,2.9000X5.4000*%
%ADD39R,1.0000X1.2500*%
D19*
X1096760Y496570D02*
D03*
X1158760D02*
D03*
X1193280Y495300D02*
D03*
X1255280D02*
D03*
D20*
X563220Y800860D02*
D03*
X573220D02*
D03*
X583220D02*
D03*
X593220D02*
D03*
X633220D02*
D03*
X643220D02*
D03*
X653220Y800860D02*
D03*
X603220Y800860D02*
D03*
X613220D02*
D03*
X623220D02*
D03*
D21*
X535720Y604360D02*
D03*
Y614360D02*
D03*
X535720Y624360D02*
D03*
X535720Y634360D02*
D03*
Y644360D02*
D03*
Y654360D02*
D03*
Y674360D02*
D03*
Y684360D02*
D03*
Y694360D02*
D03*
Y704360D02*
D03*
Y714360D02*
D03*
Y724360D02*
D03*
Y734360D02*
D03*
Y744360D02*
D03*
Y754360D02*
D03*
Y764360D02*
D03*
Y774360D02*
D03*
Y784360D02*
D03*
X680720Y594360D02*
D03*
Y604360D02*
D03*
Y614360D02*
D03*
X680720Y624360D02*
D03*
X680720Y634360D02*
D03*
Y644360D02*
D03*
Y654360D02*
D03*
Y664360D02*
D03*
Y674360D02*
D03*
Y684360D02*
D03*
Y694360D02*
D03*
Y704360D02*
D03*
Y714360D02*
D03*
Y724360D02*
D03*
Y734360D02*
D03*
Y754360D02*
D03*
Y764360D02*
D03*
Y774360D02*
D03*
Y784360D02*
D03*
X535720Y664360D02*
D03*
Y594360D02*
D03*
X680720Y744360D02*
D03*
D22*
X560520Y698660D02*
D03*
D23*
X641120Y597560D02*
D03*
D24*
X777494Y933450D02*
D03*
D25*
X713486D02*
D03*
Y910336D02*
D03*
Y956564D02*
D03*
D26*
X668922Y933450D02*
D03*
X508620Y762650D02*
D03*
X503908D02*
D03*
X1225306Y847170D02*
D03*
X1220594D02*
D03*
X796106Y901700D02*
D03*
X664210Y933450D02*
D03*
X791394Y901700D02*
D03*
D27*
X469910Y772150D02*
D03*
X488910Y762650D02*
D03*
X469910Y753150D02*
D03*
D28*
X516255Y664210D02*
D03*
X499745D02*
D03*
D29*
X1268670Y848440D02*
D03*
X1252670D02*
D03*
X1289430Y715010D02*
D03*
X1273430D02*
D03*
D30*
X1190360Y827260D02*
D03*
X1115960D02*
D03*
X1190360Y762260D02*
D03*
Y781760D02*
D03*
Y742760D02*
D03*
Y801260D02*
D03*
Y820760D02*
D03*
X1115960Y775260D02*
D03*
X1190360Y729760D02*
D03*
Y736260D02*
D03*
X1115960D02*
D03*
Y820760D02*
D03*
Y788260D02*
D03*
Y742760D02*
D03*
Y749260D02*
D03*
X1190360Y794760D02*
D03*
Y755760D02*
D03*
Y768760D02*
D03*
Y807760D02*
D03*
Y775260D02*
D03*
Y788260D02*
D03*
Y749260D02*
D03*
Y814260D02*
D03*
X1115960Y781760D02*
D03*
Y814260D02*
D03*
Y807760D02*
D03*
Y801260D02*
D03*
Y794760D02*
D03*
Y768760D02*
D03*
Y762260D02*
D03*
Y755760D02*
D03*
Y729760D02*
D03*
D31*
X1070030Y829310D02*
D03*
X1029390Y953770D02*
D03*
X1020390D02*
D03*
X983560Y943610D02*
D03*
X1061030Y829310D02*
D03*
X992560Y943610D02*
D03*
X1069340Y820420D02*
D03*
X1060340D02*
D03*
D32*
X1163320Y706120D02*
D03*
X1064260Y790842D02*
D03*
X582930Y821506D02*
D03*
Y826218D02*
D03*
X641350Y827856D02*
D03*
Y823144D02*
D03*
X1163320Y710832D02*
D03*
X1064260Y786130D02*
D03*
D33*
Y755270D02*
D03*
Y771270D02*
D03*
D34*
X609600Y904240D02*
D03*
D35*
Y846240D02*
D03*
X586600D02*
D03*
X632600D02*
D03*
D36*
X826770Y794330D02*
D03*
X1155700Y541710D02*
D03*
X1185940Y541020D02*
D03*
X824230Y732790D02*
D03*
X826770Y664100D02*
D03*
Y803330D02*
D03*
X1185940Y532020D02*
D03*
X1155700Y532710D02*
D03*
X826770Y627960D02*
D03*
Y636960D02*
D03*
Y673100D02*
D03*
X824230Y741790D02*
D03*
X826770Y701150D02*
D03*
Y692150D02*
D03*
D37*
X1132840Y539750D02*
D03*
X1207850Y538480D02*
D03*
X1227850D02*
D03*
X1112840Y539750D02*
D03*
D38*
X1458200Y726440D02*
D03*
X1361200D02*
D03*
X1456930Y886460D02*
D03*
X1359930D02*
D03*
X1459470Y589280D02*
D03*
X1362470D02*
D03*
X1454390Y1049020D02*
D03*
X1357390D02*
D03*
D39*
X1240630Y789940D02*
D03*
X1239520Y732790D02*
D03*
X1240630Y764540D02*
D03*
Y821690D02*
D03*
X1219520Y732790D02*
D03*
X1220630Y821690D02*
D03*
Y764540D02*
D03*
Y789940D02*
D03*
M02*
