G04*
G04 #@! TF.GenerationSoftware,Altium Limited,Altium Designer,26.4.1 (12)*
G04*
G04 Layer_Physical_Order=1*
G04 Layer_Color=255*
%FSLAX44Y44*%
%MOMM*%
G71*
G04*
G04 #@! TF.SameCoordinates,0A6EDB4D-EBB9-47F7-83F3-19040AB4B5EA*
G04*
G04*
G04 #@! TF.FilePolarity,Positive*
G04*
G01*
G75*
%ADD15C,0.2540*%
%ADD19R,1.0000X3.2000*%
%ADD20R,0.6000X1.5000*%
%ADD21R,1.5000X0.6000*%
%ADD22R,1.7800X1.7800*%
%ADD23R,2.7900X0.7600*%
%ADD24R,1.6002X3.0988*%
%ADD25R,1.6002X0.8382*%
%ADD26R,0.3213X0.9725*%
%ADD27R,1.5000X0.6000*%
%ADD28R,0.8552X1.3562*%
%ADD29R,1.3000X1.4500*%
G04:AMPARAMS|DCode=30|XSize=1.57mm|YSize=0.41mm|CornerRadius=0.1025mm|HoleSize=0mm|Usage=FLASHONLY|Rotation=0.000|XOffset=0mm|YOffset=0mm|HoleType=Round|Shape=RoundedRectangle|*
%AMROUNDEDRECTD30*
21,1,1.5700,0.2050,0,0,0.0*
21,1,1.3650,0.4100,0,0,0.0*
1,1,0.2050,0.6825,-0.1025*
1,1,0.2050,-0.6825,-0.1025*
1,1,0.2050,-0.6825,0.1025*
1,1,0.2050,0.6825,0.1025*
%
%ADD30ROUNDEDRECTD30*%
G04:AMPARAMS|DCode=31|XSize=0.55mm|YSize=0.5mm|CornerRadius=0.0625mm|HoleSize=0mm|Usage=FLASHONLY|Rotation=90.000|XOffset=0mm|YOffset=0mm|HoleType=Round|Shape=RoundedRectangle|*
%AMROUNDEDRECTD31*
21,1,0.5500,0.3750,0,0,90.0*
21,1,0.4250,0.5000,0,0,90.0*
1,1,0.1250,0.1875,0.2125*
1,1,0.1250,0.1875,-0.2125*
1,1,0.1250,-0.1875,-0.2125*
1,1,0.1250,-0.1875,0.2125*
%
%ADD31ROUNDEDRECTD31*%
%ADD32R,0.9725X0.3213*%
%ADD33R,1.4500X1.3000*%
%ADD34R,3.2500X2.1500*%
%ADD35R,0.9500X2.1500*%
G04:AMPARAMS|DCode=36|XSize=0.55mm|YSize=0.5mm|CornerRadius=0.0625mm|HoleSize=0mm|Usage=FLASHONLY|Rotation=180.000|XOffset=0mm|YOffset=0mm|HoleType=Round|Shape=RoundedRectangle|*
%AMROUNDEDRECTD36*
21,1,0.5500,0.3750,0,0,180.0*
21,1,0.4250,0.5000,0,0,180.0*
1,1,0.1250,-0.2125,0.1875*
1,1,0.1250,0.2125,0.1875*
1,1,0.1250,0.2125,-0.1875*
1,1,0.1250,-0.2125,-0.1875*
%
%ADD36ROUNDEDRECTD36*%
%ADD37R,1.3500X1.5500*%
%ADD38R,2.9000X5.4000*%
%ADD39R,1.0000X1.2500*%
%ADD40C,1.5748*%
%ADD41R,1.5748X1.5748*%
%ADD42O,2.2500X1.5000*%
%ADD43R,1.2000X1.2000*%
%ADD44R,1.5500X1.5500*%
%ADD45C,1.5500*%
%ADD46R,1.3500X1.3500*%
G04:AMPARAMS|DCode=47|XSize=1.4mm|YSize=1.4mm|CornerRadius=0.35mm|HoleSize=0mm|Usage=FLASHONLY|Rotation=0.000|XOffset=0mm|YOffset=0mm|HoleType=Round|Shape=RoundedRectangle|*
%AMROUNDEDRECTD47*
21,1,1.4000,0.7000,0,0,0.0*
21,1,0.7000,1.4000,0,0,0.0*
1,1,0.7000,0.3500,-0.3500*
1,1,0.7000,-0.3500,-0.3500*
1,1,0.7000,-0.3500,0.3500*
1,1,0.7000,0.3500,0.3500*
%
%ADD47ROUNDEDRECTD47*%
%ADD48C,1.4000*%
%ADD49R,1.7500X1.7500*%
%ADD50C,1.3000*%
%ADD51C,1.1500*%
%ADD52C,1.8288*%
%ADD53R,1.8288X1.8288*%
%ADD54R,1.3000X1.3000*%
%ADD55R,1.5240X1.5240*%
%ADD56C,1.3500*%
%ADD57C,6.0000*%
%ADD58C,2.4000*%
%ADD59C,1.6500*%
G04:AMPARAMS|DCode=60|XSize=2.4mm|YSize=2.4mm|CornerRadius=0.6mm|HoleSize=0mm|Usage=FLASHONLY|Rotation=90.000|XOffset=0mm|YOffset=0mm|HoleType=Round|Shape=RoundedRectangle|*
%AMROUNDEDRECTD60*
21,1,2.4000,1.2000,0,0,90.0*
21,1,1.2000,2.4000,0,0,90.0*
1,1,1.2000,0.6000,0.6000*
1,1,1.2000,0.6000,-0.6000*
1,1,1.2000,-0.6000,-0.6000*
1,1,1.2000,-0.6000,0.6000*
%
%ADD60ROUNDEDRECTD60*%
%ADD61C,1.5240*%
%ADD62R,1.3500X1.3500*%
%ADD63R,1.1500X1.1500*%
%ADD64R,1.3000X1.3000*%
%ADD65C,1.7500*%
%ADD66C,1.2000*%
%ADD67O,1.5000X2.2500*%
%ADD68C,1.2700*%
%ADD69C,0.6000*%
%ADD70C,0.3810*%
%ADD71C,0.7620*%
%ADD72C,0.8890*%
G36*
X1696720Y407670D02*
X1294130D01*
Y318770D01*
X1043940D01*
Y372424D01*
X1046480Y372758D01*
X1046785Y371620D01*
X1047818Y369830D01*
X1048038Y369610D01*
Y334228D01*
X1048500Y331908D01*
X1049814Y329942D01*
X1055112Y324644D01*
X1057078Y323330D01*
X1059398Y322868D01*
X1130082D01*
X1132402Y323330D01*
X1134368Y324644D01*
X1135856Y326132D01*
X1137170Y328098D01*
X1137632Y330418D01*
Y358335D01*
X1137771Y358518D01*
X1138527Y360342D01*
X1138785Y362300D01*
Y374300D01*
X1138527Y376258D01*
X1137771Y378082D01*
X1136569Y379649D01*
X1135002Y380851D01*
X1133178Y381607D01*
X1131220Y381865D01*
X1119220D01*
X1117262Y381607D01*
X1115438Y380851D01*
X1113871Y379649D01*
X1112669Y378082D01*
X1111913Y376258D01*
X1111663Y374361D01*
X1074131D01*
Y472469D01*
X1087720Y486058D01*
X1090260Y485006D01*
Y479070D01*
X1103260D01*
Y514070D01*
X1105564Y514638D01*
X1111032D01*
X1113352Y515100D01*
X1115318Y516414D01*
X1116806Y517902D01*
X1118120Y519868D01*
X1118581Y522188D01*
Y530500D01*
X1121090D01*
Y549000D01*
X1104590D01*
Y530500D01*
X1106459D01*
Y526762D01*
X1101090D01*
X1098770Y526300D01*
X1096804Y524986D01*
X1092474Y520656D01*
X1091160Y518690D01*
X1090699Y516370D01*
Y514070D01*
X1090260D01*
Y502631D01*
X1086068D01*
X1083748Y502170D01*
X1081782Y500856D01*
X1080294Y499368D01*
X1078980Y497402D01*
X1078519Y495082D01*
Y494001D01*
X1063784Y479266D01*
X1062470Y477300D01*
X1062009Y474980D01*
Y381435D01*
X1059469Y380383D01*
X1058920Y380932D01*
X1057130Y381965D01*
X1055134Y382500D01*
X1053066D01*
X1051070Y381965D01*
X1049280Y380932D01*
X1047818Y379470D01*
X1046785Y377680D01*
X1046480Y376542D01*
X1043940Y376876D01*
Y406400D01*
X872490D01*
X814070Y464820D01*
X424180D01*
Y854710D01*
X453390Y883920D01*
X530860D01*
Y925304D01*
X532130Y925830D01*
X532130Y925830D01*
Y928370D01*
X651510Y1047750D01*
X676910D01*
Y1186180D01*
X676910Y1186180D01*
X1696720D01*
Y407670D01*
D02*
G37*
G36*
X1063784Y365502D02*
X1065272Y364014D01*
X1067238Y362700D01*
X1069558Y362239D01*
X1111663D01*
X1111913Y360342D01*
X1112669Y358518D01*
X1113871Y356951D01*
X1115438Y355749D01*
X1117262Y354993D01*
X1119220Y354735D01*
X1125508D01*
Y334991D01*
X1061909D01*
X1060162Y336739D01*
Y366699D01*
X1061303Y367080D01*
X1062701Y367122D01*
X1063784Y365502D01*
D02*
G37*
%LPC*%
G36*
X932180Y1154141D02*
X834518D01*
X832198Y1153680D01*
X830232Y1152366D01*
X825024Y1147158D01*
X823710Y1145192D01*
X823249Y1142872D01*
Y1087091D01*
X821189Y1085032D01*
X808044D01*
X807201Y1086131D01*
X805103Y1087740D01*
X802661Y1088752D01*
X800040Y1089097D01*
X797560D01*
Y1078970D01*
Y1068843D01*
X800040D01*
X802661Y1069188D01*
X805103Y1070200D01*
X807201Y1071809D01*
X808044Y1072908D01*
X823700D01*
X826020Y1073370D01*
X827986Y1074684D01*
X833596Y1080294D01*
X834910Y1082260D01*
X835371Y1084580D01*
Y1140362D01*
X837028Y1142019D01*
X929669D01*
X936308Y1135380D01*
X944880D01*
Y1143952D01*
X936466Y1152366D01*
X934500Y1153680D01*
X932180Y1154141D01*
D02*
G37*
G36*
X947420Y1142973D02*
Y1134110D01*
X946150D01*
Y1132840D01*
X937287D01*
X937348Y1132610D01*
X931164Y1126426D01*
X928624Y1127478D01*
Y1129544D01*
X918210D01*
Y1117860D01*
Y1106176D01*
X928624D01*
Y1111798D01*
X931170D01*
X933490Y1112260D01*
X935456Y1113574D01*
X947102Y1125220D01*
X947320D01*
X949581Y1125826D01*
X951609Y1126996D01*
X952661Y1128048D01*
X1024792D01*
X1026449Y1126392D01*
Y1118105D01*
X1021220D01*
Y1108085D01*
X1032510D01*
X1043800D01*
Y1118105D01*
X1038571D01*
Y1128902D01*
X1038110Y1131222D01*
X1036796Y1133188D01*
X1031588Y1138396D01*
X1029622Y1139710D01*
X1027302Y1140172D01*
X952661D01*
X951609Y1141224D01*
X949581Y1142394D01*
X947420Y1142973D01*
D02*
G37*
G36*
X915670Y1129544D02*
X905256D01*
Y1119130D01*
X915670D01*
Y1129544D01*
D02*
G37*
G36*
X1654749Y1175770D02*
X1649791D01*
X1644894Y1174994D01*
X1640178Y1173462D01*
X1635760Y1171211D01*
X1631749Y1168297D01*
X1628243Y1164791D01*
X1625329Y1160780D01*
X1623078Y1156362D01*
X1621546Y1151646D01*
X1620770Y1146749D01*
Y1141791D01*
X1621546Y1136894D01*
X1623078Y1132178D01*
X1625329Y1127760D01*
X1628243Y1123749D01*
X1631749Y1120243D01*
X1635760Y1117329D01*
X1640178Y1115078D01*
X1644894Y1113546D01*
X1649791Y1112770D01*
X1654749D01*
X1659646Y1113546D01*
X1664362Y1115078D01*
X1668780Y1117329D01*
X1672791Y1120243D01*
X1676297Y1123749D01*
X1679211Y1127760D01*
X1681462Y1132178D01*
X1682994Y1136894D01*
X1683770Y1141791D01*
Y1146749D01*
X1682994Y1151646D01*
X1681462Y1156362D01*
X1679211Y1160780D01*
X1676297Y1164791D01*
X1672791Y1168297D01*
X1668780Y1171211D01*
X1664362Y1173462D01*
X1659646Y1174994D01*
X1654749Y1175770D01*
D02*
G37*
G36*
X722569Y1174500D02*
X717611D01*
X712714Y1173724D01*
X707998Y1172192D01*
X703580Y1169941D01*
X699569Y1167027D01*
X696063Y1163521D01*
X693149Y1159510D01*
X690898Y1155092D01*
X689366Y1150376D01*
X688590Y1145479D01*
Y1140521D01*
X689366Y1135624D01*
X690898Y1130908D01*
X693149Y1126490D01*
X696063Y1122479D01*
X699569Y1118973D01*
X703580Y1116059D01*
X707998Y1113808D01*
X712714Y1112276D01*
X717611Y1111500D01*
X722569D01*
X727466Y1112276D01*
X732182Y1113808D01*
X736600Y1116059D01*
X740611Y1118973D01*
X744117Y1122479D01*
X747031Y1126490D01*
X749282Y1130908D01*
X750814Y1135624D01*
X751590Y1140521D01*
Y1145479D01*
X750814Y1150376D01*
X749282Y1155092D01*
X747031Y1159510D01*
X744117Y1163521D01*
X740611Y1167027D01*
X736600Y1169941D01*
X732182Y1172192D01*
X727466Y1173724D01*
X722569Y1174500D01*
D02*
G37*
G36*
X915670Y1116590D02*
X905256D01*
Y1106176D01*
X915670D01*
Y1116590D01*
D02*
G37*
G36*
X983059Y1117065D02*
X980361D01*
X977754Y1116367D01*
X975416Y1115017D01*
X973508Y1113109D01*
X972159Y1110771D01*
X971460Y1108164D01*
Y1105466D01*
X971529Y1105207D01*
X955694Y1089371D01*
X891003D01*
X879578Y1100796D01*
Y1102832D01*
X878939Y1105216D01*
X877705Y1107354D01*
X875960Y1109099D01*
X873822Y1110333D01*
X871438Y1110972D01*
X868970D01*
X866586Y1110333D01*
X864448Y1109099D01*
X862703Y1107354D01*
X861469Y1105216D01*
X860830Y1102832D01*
Y1100364D01*
X861469Y1097980D01*
X862703Y1095842D01*
X864448Y1094097D01*
X866586Y1092863D01*
X868970Y1092224D01*
X871006D01*
X884206Y1079024D01*
X886172Y1077710D01*
X888492Y1077249D01*
X958205D01*
X960525Y1077710D01*
X962491Y1079024D01*
X980102Y1096634D01*
X980361Y1096565D01*
X983059D01*
X985666Y1097263D01*
X988004Y1098613D01*
X989912Y1100521D01*
X991262Y1102859D01*
X991960Y1105466D01*
Y1108164D01*
X991262Y1110771D01*
X989912Y1113109D01*
X988004Y1115017D01*
X985666Y1116367D01*
X983059Y1117065D01*
D02*
G37*
G36*
X795020Y1089097D02*
X792540D01*
X789919Y1088752D01*
X787477Y1087740D01*
X785379Y1086131D01*
X783770Y1084033D01*
X782758Y1081591D01*
X782581Y1080240D01*
X795020D01*
Y1089097D01*
D02*
G37*
G36*
Y1077700D02*
X782581D01*
X782758Y1076349D01*
X783770Y1073907D01*
X785379Y1071809D01*
X787477Y1070200D01*
X789919Y1069188D01*
X792540Y1068843D01*
X795020D01*
Y1077700D01*
D02*
G37*
G36*
X768290Y1068798D02*
X765940Y1068488D01*
X763751Y1067581D01*
X761871Y1066139D01*
X760429Y1064259D01*
X759522Y1062069D01*
X759212Y1059720D01*
Y1052220D01*
X759522Y1049871D01*
X760429Y1047681D01*
X761871Y1045801D01*
X763751Y1044359D01*
X765940Y1043452D01*
X768290Y1043142D01*
X770639Y1043452D01*
X772829Y1044359D01*
X774709Y1045801D01*
X776152Y1047681D01*
X777058Y1049871D01*
X777368Y1052220D01*
Y1059720D01*
X777058Y1062069D01*
X776152Y1064259D01*
X774709Y1066139D01*
X772829Y1067581D01*
X770639Y1068488D01*
X768290Y1068798D01*
D02*
G37*
G36*
X1563134Y1083540D02*
X1561066D01*
X1559070Y1083005D01*
X1557280Y1081972D01*
X1555818Y1080510D01*
X1554785Y1078720D01*
X1554250Y1076723D01*
Y1074657D01*
X1554255Y1074639D01*
X1552477Y1072861D01*
X1546988D01*
X1544668Y1072400D01*
X1542702Y1071086D01*
X1537494Y1065878D01*
X1536180Y1063912D01*
X1535719Y1061592D01*
Y1048419D01*
X1535096Y1047487D01*
X1535031Y1047158D01*
X1533253Y1046132D01*
X1531438Y1044317D01*
X1530155Y1042093D01*
X1529490Y1039614D01*
Y1037046D01*
X1530155Y1034567D01*
X1531438Y1032343D01*
X1533253Y1030528D01*
X1535477Y1029245D01*
X1537956Y1028580D01*
X1540524D01*
X1543003Y1029245D01*
X1545227Y1030528D01*
X1547042Y1032343D01*
X1548326Y1034567D01*
X1548990Y1037046D01*
Y1039614D01*
X1548326Y1042093D01*
X1547318Y1043839D01*
X1547380Y1043931D01*
X1547841Y1046251D01*
Y1059082D01*
X1549498Y1060739D01*
X1554987D01*
X1557307Y1061200D01*
X1559273Y1062514D01*
X1565141Y1068381D01*
X1566920Y1069408D01*
X1568382Y1070870D01*
X1569415Y1072660D01*
X1569950Y1074657D01*
Y1076723D01*
X1569415Y1078720D01*
X1568382Y1080510D01*
X1566920Y1081972D01*
X1565130Y1083005D01*
X1563134Y1083540D01*
D02*
G37*
G36*
X1373390Y1077520D02*
X1341390D01*
Y1055081D01*
X1331088D01*
X1328768Y1054620D01*
X1326802Y1053306D01*
X1321364Y1047868D01*
X1320050Y1045902D01*
X1319588Y1043582D01*
Y777338D01*
X1317932Y775682D01*
X1245848D01*
X1243528Y775220D01*
X1241562Y773906D01*
X1240482Y772290D01*
X1234130D01*
Y756790D01*
X1247130D01*
Y761716D01*
X1250666D01*
Y753394D01*
X1218169D01*
X1217568Y754250D01*
X1218887Y756790D01*
X1227130D01*
Y772290D01*
X1217173D01*
X1216900Y772344D01*
X1216900Y772344D01*
X1210310D01*
X1205957Y776697D01*
X1205041Y777309D01*
X1203960Y777524D01*
X1203960Y777524D01*
X1202382D01*
X1201841Y778059D01*
X1200686Y780064D01*
X1200771Y780490D01*
X1179949D01*
X1180177Y779344D01*
X1180965Y778165D01*
X1180981Y778154D01*
X1181156Y777270D01*
X1180960Y776285D01*
Y774235D01*
X1181156Y773250D01*
X1181577Y772010D01*
X1181156Y770770D01*
X1180960Y769785D01*
Y767735D01*
X1181156Y766750D01*
X1180981Y765866D01*
X1180965Y765855D01*
X1180177Y764676D01*
X1179949Y763530D01*
X1190360D01*
Y760990D01*
X1179949D01*
X1180177Y759844D01*
X1180965Y758665D01*
X1180981Y758654D01*
X1181156Y757770D01*
X1180960Y756785D01*
Y754735D01*
X1181156Y753750D01*
X1181577Y752510D01*
X1181156Y751270D01*
X1180960Y750285D01*
Y748235D01*
X1181156Y747250D01*
X1180981Y746366D01*
X1180965Y746355D01*
X1180177Y745176D01*
X1179949Y744030D01*
X1190360D01*
Y741490D01*
X1179949D01*
X1180177Y740344D01*
X1180734Y739510D01*
X1180177Y738676D01*
X1179949Y737530D01*
X1190360D01*
Y734990D01*
X1179949D01*
X1180177Y733844D01*
X1180734Y733010D01*
X1180177Y732176D01*
X1179949Y731030D01*
X1190360D01*
Y729760D01*
X1191630D01*
Y725100D01*
X1196616D01*
X1198263Y723156D01*
X1198116Y723009D01*
X1196946Y720981D01*
X1196367Y718820D01*
X1214093D01*
X1213514Y720981D01*
X1212517Y722709D01*
X1213069Y723952D01*
X1213904Y725040D01*
X1215194Y725040D01*
X1226020D01*
Y740540D01*
X1227020Y742666D01*
X1232020D01*
X1233020Y740540D01*
Y725040D01*
X1246020D01*
Y730538D01*
X1330832D01*
X1333152Y731000D01*
X1335118Y732314D01*
X1340326Y737522D01*
X1341640Y739488D01*
X1342101Y741808D01*
Y856187D01*
X1343758Y857843D01*
X1349875D01*
X1350461Y857960D01*
X1375930D01*
Y914960D01*
X1343930D01*
Y869967D01*
X1341248D01*
X1338928Y869505D01*
X1336962Y868191D01*
X1334252Y865481D01*
X1331711Y866533D01*
Y1041072D01*
X1333598Y1042959D01*
X1341390D01*
Y1020520D01*
X1373390D01*
Y1077520D01*
D02*
G37*
G36*
X983070Y1025658D02*
X980840D01*
Y1017270D01*
X989228D01*
Y1019500D01*
X988760Y1021857D01*
X987425Y1023855D01*
X985427Y1025190D01*
X983070Y1025658D01*
D02*
G37*
G36*
X1043800Y1105545D02*
X1032510D01*
X1021220D01*
Y1095525D01*
X1026449D01*
Y1025040D01*
X1025888Y1024890D01*
X1023712Y1023634D01*
X1021936Y1021858D01*
X1020680Y1019682D01*
X1020034Y1017270D01*
X1029570D01*
X1039106D01*
X1038460Y1019682D01*
X1038448Y1019703D01*
X1038571Y1020323D01*
Y1095525D01*
X1043800D01*
Y1105545D01*
D02*
G37*
G36*
X978300Y1025658D02*
X976070D01*
X973713Y1025190D01*
X971715Y1023855D01*
X970380Y1021857D01*
X969912Y1019500D01*
Y1017270D01*
X978300D01*
Y1025658D01*
D02*
G37*
G36*
X1039106Y1014730D02*
X1030840D01*
Y1006464D01*
X1033252Y1007110D01*
X1035428Y1008366D01*
X1037204Y1010142D01*
X1038460Y1012318D01*
X1039106Y1014730D01*
D02*
G37*
G36*
X800040Y1039048D02*
X792540D01*
X790191Y1038738D01*
X788001Y1037831D01*
X786121Y1036389D01*
X784678Y1034509D01*
X783772Y1032319D01*
X783462Y1029970D01*
X783772Y1027620D01*
X784678Y1025431D01*
X786121Y1023551D01*
X788001Y1022109D01*
X790191Y1021202D01*
X792540Y1020892D01*
X800040D01*
X802390Y1021202D01*
X804579Y1022109D01*
X806347Y1023465D01*
X818168Y1011644D01*
Y1004698D01*
X818630Y1002378D01*
X819944Y1000412D01*
X825152Y995204D01*
X827118Y993890D01*
X829438Y993428D01*
X838986D01*
Y990116D01*
X857734D01*
Y1008864D01*
X838986D01*
Y1005552D01*
X831948D01*
X830292Y1007208D01*
Y1014155D01*
X829830Y1016474D01*
X828516Y1018441D01*
X812701Y1034256D01*
X810734Y1035570D01*
X808415Y1036031D01*
X806733D01*
X806459Y1036389D01*
X804579Y1037831D01*
X802390Y1038738D01*
X800040Y1039048D01*
D02*
G37*
G36*
X727683Y980440D02*
X720090D01*
Y972847D01*
X722251Y973426D01*
X724279Y974596D01*
X725934Y976251D01*
X727104Y978279D01*
X727683Y980440D01*
D02*
G37*
G36*
X717550D02*
X709957D01*
X710536Y978279D01*
X711706Y976251D01*
X711911Y976046D01*
X711489Y975624D01*
X710877Y974708D01*
X710662Y973627D01*
X710662Y973627D01*
Y963295D01*
X702945D01*
Y957834D01*
X724027D01*
Y963295D01*
X716310D01*
Y970549D01*
X717550Y972651D01*
Y980440D01*
D02*
G37*
G36*
X960120Y962633D02*
Y955040D01*
X967713D01*
X967134Y957201D01*
X965964Y959229D01*
X964309Y960884D01*
X962281Y962054D01*
X960120Y962633D01*
D02*
G37*
G36*
X957580D02*
X955419Y962054D01*
X953391Y960884D01*
X951736Y959229D01*
X950566Y957201D01*
X949987Y955040D01*
X957580D01*
Y962633D01*
D02*
G37*
G36*
X724027Y955294D02*
X714756D01*
Y949833D01*
X724027D01*
Y955294D01*
D02*
G37*
G36*
X712216D02*
X702945D01*
Y949833D01*
X712216D01*
Y955294D01*
D02*
G37*
G36*
X1034492Y952500D02*
X1030660D01*
Y948418D01*
X1031265D01*
X1032500Y948664D01*
X1033547Y949363D01*
X1034246Y950410D01*
X1034492Y951645D01*
Y952500D01*
D02*
G37*
G36*
X989228Y1014730D02*
X979570D01*
X969912D01*
Y1012500D01*
X970380Y1010143D01*
X971715Y1008145D01*
X973713Y1006811D01*
X976070Y1006342D01*
X976269D01*
Y947082D01*
X970448D01*
X967146Y950384D01*
X967713Y952500D01*
X960120D01*
Y944907D01*
X962236Y945474D01*
X966555Y941155D01*
X967681Y940403D01*
X969010Y940138D01*
X978666D01*
X978869Y940003D01*
X979403Y939203D01*
X980450Y938504D01*
X981685Y938258D01*
X982290D01*
Y943610D01*
X984830D01*
Y938258D01*
X985435D01*
X986670Y938504D01*
X987717Y939203D01*
X988403D01*
X989450Y938504D01*
X990685Y938258D01*
X991290D01*
Y943610D01*
X992560D01*
Y944880D01*
X997662D01*
Y945735D01*
X997578Y946158D01*
X999919Y947409D01*
X1000671Y946656D01*
X1002699Y945486D01*
X1004860Y944907D01*
Y953770D01*
X1007400D01*
Y944907D01*
X1009561Y945486D01*
X1011589Y946656D01*
X1013244Y948311D01*
X1013539Y948823D01*
X1015436Y949203D01*
X1016619Y949106D01*
X1017280Y948664D01*
X1018515Y948418D01*
X1019120D01*
Y953770D01*
X1021660D01*
Y948418D01*
X1022265D01*
X1023500Y948664D01*
X1024547Y949363D01*
X1025233D01*
X1026280Y948664D01*
X1027515Y948418D01*
X1028120D01*
Y953770D01*
X1029390D01*
Y955040D01*
X1034492D01*
Y955895D01*
X1034246Y957130D01*
X1033547Y958177D01*
X1032862Y958635D01*
Y959158D01*
X1032597Y960487D01*
X1031845Y961613D01*
X1029613Y963845D01*
X1028487Y964597D01*
X1027158Y964862D01*
X1012191D01*
Y990049D01*
X1028300Y1006158D01*
Y1014730D01*
X1019728D01*
X1001844Y996846D01*
X1000530Y994880D01*
X1000069Y992560D01*
Y962025D01*
X998190D01*
X996862Y961761D01*
X995735Y961008D01*
X990952Y956225D01*
X990931Y956194D01*
X988995Y956574D01*
X988391Y956919D01*
Y1008237D01*
X988186Y1009268D01*
Y1009286D01*
X988760Y1010143D01*
X989228Y1012500D01*
Y1014730D01*
D02*
G37*
G36*
X957580Y952500D02*
X949987D01*
X950566Y950339D01*
X951736Y948311D01*
X953391Y946656D01*
X955419Y945486D01*
X957580Y944907D01*
Y952500D01*
D02*
G37*
G36*
X918478Y948944D02*
X918210D01*
Y938530D01*
X928624D01*
Y938798D01*
X927828Y941770D01*
X926290Y944434D01*
X924114Y946609D01*
X921450Y948148D01*
X918478Y948944D01*
D02*
G37*
G36*
X915670D02*
X915402D01*
X912430Y948148D01*
X909766Y946609D01*
X907590Y944434D01*
X906052Y941770D01*
X905256Y938798D01*
Y938530D01*
X915670D01*
Y948944D01*
D02*
G37*
G36*
X997662Y942340D02*
X993830D01*
Y938258D01*
X994435D01*
X995670Y938504D01*
X996717Y939203D01*
X997416Y940250D01*
X997662Y941485D01*
Y942340D01*
D02*
G37*
G36*
X915670Y935990D02*
X905256D01*
Y935722D01*
X906052Y932750D01*
X906925Y931239D01*
X904340Y928654D01*
X893637D01*
X893474Y929261D01*
X892304Y931289D01*
X890649Y932944D01*
X888621Y934114D01*
X886460Y934693D01*
Y925830D01*
Y916967D01*
X888621Y917546D01*
X890649Y918716D01*
X892304Y920371D01*
X893474Y922399D01*
X893637Y923006D01*
X905510D01*
X905510Y923006D01*
X906591Y923221D01*
X907507Y923833D01*
X910919Y927245D01*
X912430Y926372D01*
X915402Y925576D01*
X915670D01*
Y935990D01*
D02*
G37*
G36*
X883920Y934693D02*
X881759Y934114D01*
X879731Y932944D01*
X878076Y931289D01*
X876906Y929261D01*
X876327Y927100D01*
X883920D01*
Y934693D01*
D02*
G37*
G36*
X928624Y935990D02*
X918210D01*
Y925576D01*
X918478D01*
X921450Y926372D01*
X924114Y927911D01*
X926290Y930086D01*
X927828Y932750D01*
X928624Y935722D01*
Y935990D01*
D02*
G37*
G36*
X883920Y924560D02*
X876327D01*
X876906Y922399D01*
X878076Y920371D01*
X879731Y918716D01*
X881759Y917546D01*
X883920Y916967D01*
Y924560D01*
D02*
G37*
G36*
X699770Y1016932D02*
X661670D01*
X660341Y1016667D01*
X659215Y1015915D01*
X638895Y995595D01*
X638143Y994469D01*
X637878Y993140D01*
Y928370D01*
X638143Y927041D01*
X638895Y925915D01*
X657945Y906865D01*
X659071Y906113D01*
X660400Y905848D01*
X692150D01*
X693479Y906113D01*
X694605Y906865D01*
X700598Y912859D01*
X702945Y911887D01*
Y911606D01*
X712216D01*
Y917067D01*
X708125D01*
X707153Y919414D01*
X711061Y923321D01*
X711813Y924447D01*
X712077Y925776D01*
Y927759D01*
X722987D01*
Y939141D01*
X703985D01*
Y937202D01*
X701445Y936150D01*
X700329Y937266D01*
X699202Y938019D01*
X697874Y938283D01*
X697122D01*
X696925Y939020D01*
X695892Y940810D01*
X694430Y942272D01*
X692640Y943305D01*
X690643Y943840D01*
X688577D01*
X686580Y943305D01*
X684790Y942272D01*
X683328Y940810D01*
X682295Y939020D01*
X681765Y937043D01*
X681583Y936922D01*
X672028D01*
Y939812D01*
X661104D01*
X659414Y941653D01*
Y945866D01*
X667812D01*
X667812Y945866D01*
X668893Y946081D01*
X669809Y946693D01*
X672557Y949441D01*
X673169Y950357D01*
X673384Y951438D01*
X673384Y951438D01*
Y960380D01*
X685222Y972218D01*
X685285Y972181D01*
X687193Y971670D01*
X689167D01*
X691075Y972181D01*
X692785Y973168D01*
X694182Y974565D01*
X695169Y976275D01*
X695680Y978183D01*
Y980157D01*
X695169Y982065D01*
X694182Y983775D01*
X692785Y985172D01*
X691075Y986159D01*
X689167Y986670D01*
X687193D01*
X685285Y986159D01*
X683575Y985172D01*
X682178Y983775D01*
X681191Y982065D01*
X680680Y980157D01*
Y978183D01*
X681191Y976275D01*
X681228Y976212D01*
X678220Y973204D01*
X675680Y974256D01*
Y986670D01*
X660680D01*
Y976580D01*
X647362Y963261D01*
X644822Y964314D01*
Y991702D01*
X663108Y1009988D01*
X698332D01*
X715631Y992689D01*
X715464Y990829D01*
X715302Y990225D01*
X715034Y989790D01*
X713361Y988824D01*
X711706Y987169D01*
X710536Y985141D01*
X709957Y982980D01*
X727683D01*
X727104Y985141D01*
X726264Y986596D01*
X726681Y988568D01*
X727184Y989510D01*
X727411Y989576D01*
X727710Y989500D01*
X734398Y982812D01*
Y975052D01*
X734663Y973723D01*
X735415Y972597D01*
X737647Y970365D01*
X738773Y969613D01*
X740102Y969348D01*
X765642D01*
X768688Y966302D01*
Y958542D01*
X768953Y957213D01*
X769705Y956087D01*
X771937Y953855D01*
X773063Y953103D01*
X773659Y952984D01*
X773409Y950444D01*
X767993D01*
Y916456D01*
X786995D01*
Y927438D01*
X788978D01*
X790307Y927703D01*
X791433Y928455D01*
X793665Y930687D01*
X794417Y931813D01*
X794682Y933142D01*
Y952500D01*
X794417Y953829D01*
X793665Y954955D01*
X789855Y958765D01*
X788729Y959517D01*
X787400Y959782D01*
X775830D01*
X775632Y959980D01*
Y967740D01*
X775367Y969069D01*
X774615Y970195D01*
X769535Y975275D01*
X768409Y976027D01*
X767080Y976292D01*
X741540D01*
X741342Y976490D01*
Y984250D01*
X741077Y985579D01*
X740325Y986705D01*
X730165Y996865D01*
X729039Y997617D01*
X727710Y997882D01*
X720258D01*
X702225Y1015915D01*
X701099Y1016667D01*
X699770Y1016932D01*
D02*
G37*
G36*
X724027Y917067D02*
X714756D01*
Y911606D01*
X724027D01*
Y917067D01*
D02*
G37*
G36*
X608330Y917530D02*
X590810D01*
Y905794D01*
X565368D01*
X565368Y905794D01*
X564287Y905579D01*
X563371Y904967D01*
X563371Y904967D01*
X555533Y897129D01*
X554921Y896213D01*
X554706Y895132D01*
X554706Y895132D01*
Y880937D01*
X554099Y880774D01*
X552071Y879604D01*
X550416Y877949D01*
X549246Y875921D01*
X548667Y873760D01*
X566393D01*
X565814Y875921D01*
X564644Y877949D01*
X562989Y879604D01*
X560961Y880774D01*
X560354Y880937D01*
Y893962D01*
X566538Y900146D01*
X590810D01*
Y890950D01*
X608330D01*
Y904240D01*
Y917530D01*
D02*
G37*
G36*
X628390D02*
X610870D01*
Y905510D01*
X628390D01*
Y917530D01*
D02*
G37*
G36*
X1145540Y902468D02*
X1143310D01*
X1140953Y902000D01*
X1138955Y900665D01*
X1137620Y898667D01*
X1137152Y896310D01*
Y895634D01*
X1105930D01*
X1105700Y896492D01*
X1104444Y898668D01*
X1102668Y900444D01*
X1100492Y901700D01*
X1098080Y902346D01*
Y892810D01*
X1096810D01*
Y891540D01*
X1087274D01*
X1087920Y889128D01*
X1089176Y886952D01*
X1090952Y885176D01*
X1091176Y885047D01*
Y837057D01*
X1088829Y836085D01*
X1084717Y840197D01*
X1083801Y840809D01*
X1082720Y841024D01*
X1082720Y841024D01*
X1069458D01*
X1068934Y841548D01*
Y848413D01*
X1069719Y848866D01*
X1071374Y850521D01*
X1072544Y852549D01*
X1073123Y854710D01*
X1064260D01*
Y855980D01*
X1062990D01*
Y864843D01*
X1060829Y864264D01*
X1058801Y863094D01*
X1056330Y864214D01*
Y864955D01*
X1055629Y867572D01*
X1054274Y869918D01*
X1052358Y871834D01*
X1050012Y873189D01*
X1047395Y873890D01*
X1047310D01*
Y863600D01*
Y853310D01*
X1047395D01*
X1050012Y854011D01*
X1051872Y855085D01*
X1052974Y853983D01*
X1053891Y853371D01*
X1054972Y853156D01*
X1055813D01*
X1055976Y852549D01*
X1057146Y850521D01*
X1058206Y849462D01*
Y834473D01*
X1057920Y834416D01*
X1056873Y833717D01*
X1056664Y833404D01*
X995028D01*
X993947Y833189D01*
X993031Y832577D01*
X993031Y832577D01*
X991870Y831416D01*
X990442Y831604D01*
X989215Y832178D01*
X988724Y834011D01*
X987554Y836039D01*
X985899Y837694D01*
X983871Y838864D01*
X981710Y839443D01*
Y830580D01*
X980440D01*
Y829310D01*
X971577D01*
X972156Y827149D01*
X973326Y825121D01*
X974981Y823466D01*
X977009Y822296D01*
X977616Y822133D01*
Y815340D01*
X977831Y814259D01*
X978443Y813343D01*
X979359Y812731D01*
X980440Y812516D01*
X985714D01*
X985815Y812140D01*
X986906Y810250D01*
X988450Y808706D01*
X990340Y807615D01*
X992270Y807098D01*
Y815340D01*
X993540D01*
Y816610D01*
X1001782D01*
X1001265Y818540D01*
X1000174Y820430D01*
X998630Y821974D01*
X996740Y823065D01*
X996364Y823166D01*
Y827756D01*
X1055928D01*
Y827185D01*
X1056174Y825950D01*
X1056695Y825169D01*
X1056183Y824827D01*
X1055484Y823780D01*
X1055238Y822545D01*
Y821690D01*
X1060340D01*
Y820420D01*
X1061610D01*
Y815068D01*
X1062215D01*
X1063450Y815314D01*
X1064840Y815875D01*
X1066230Y815314D01*
X1067465Y815068D01*
X1069742D01*
X1071208Y812528D01*
X1070915Y812020D01*
X1070380Y810023D01*
Y807956D01*
X1070915Y805960D01*
X1071201Y805464D01*
X1069735Y802924D01*
X1055370D01*
X1054289Y802709D01*
X1053373Y802097D01*
X1049304Y798028D01*
X1046764Y799081D01*
Y808090D01*
X1050790D01*
Y822590D01*
X1036290D01*
Y808090D01*
X1041116D01*
Y796195D01*
X1040852Y796125D01*
X1039028Y795072D01*
X1037538Y793582D01*
X1036485Y791758D01*
X1035940Y789723D01*
Y787617D01*
X1036485Y785582D01*
X1037538Y783758D01*
X1039028Y782268D01*
X1040852Y781215D01*
X1042887Y780670D01*
X1044993D01*
X1047028Y781215D01*
X1048852Y782268D01*
X1050342Y783758D01*
X1051395Y785582D01*
X1051940Y787617D01*
Y789723D01*
X1051395Y791758D01*
X1051258Y791994D01*
X1054364Y795099D01*
X1056858Y794001D01*
Y792112D01*
X1064260D01*
Y789572D01*
X1056858D01*
Y786696D01*
X1057898D01*
Y783024D01*
X1061436D01*
Y779270D01*
X1055510D01*
Y764310D01*
X1054470D01*
Y756540D01*
X1064260D01*
Y755270D01*
X1065530D01*
Y746230D01*
X1065714D01*
Y735882D01*
X1063881Y734824D01*
X1062226Y733169D01*
X1061056Y731141D01*
X1060477Y728980D01*
X1069340D01*
Y726440D01*
X1060477D01*
X1061056Y724279D01*
X1059630Y721904D01*
X1058126Y721439D01*
X1057288Y721500D01*
X1055860Y722325D01*
X1053864Y722860D01*
X1051796D01*
X1049800Y722325D01*
X1048010Y721292D01*
X1046548Y719830D01*
X1045515Y718040D01*
X1044980Y716043D01*
Y713977D01*
X1045515Y711980D01*
X1045621Y711796D01*
X1042773Y708947D01*
X1042161Y708031D01*
X1041946Y706950D01*
X1041946Y706950D01*
Y693780D01*
X1035520D01*
Y675280D01*
X1053816D01*
Y613410D01*
X1053816Y613410D01*
X1054031Y612329D01*
X1054643Y611413D01*
X1091473Y574583D01*
X1091473Y574583D01*
X1092389Y573971D01*
X1093470Y573756D01*
X1093470Y573756D01*
X1155700D01*
X1155700Y573756D01*
X1156781Y573971D01*
X1157697Y574583D01*
X1162777Y579663D01*
X1162777Y579663D01*
X1163389Y580579D01*
X1163604Y581660D01*
X1163604Y581660D01*
Y670442D01*
X1164252Y671090D01*
X1175355D01*
X1175355Y671090D01*
X1176435Y671305D01*
X1177352Y671917D01*
X1177976Y672541D01*
X1178181Y672336D01*
X1180209Y671166D01*
X1182370Y670587D01*
Y679450D01*
X1184910D01*
Y670587D01*
X1187071Y671166D01*
X1189099Y672336D01*
X1190754Y673991D01*
X1191924Y676019D01*
X1192087Y676626D01*
X1283752D01*
X1283752Y676626D01*
X1284833Y676841D01*
X1285749Y677453D01*
X1287237Y678941D01*
X1287237Y678941D01*
X1287849Y679857D01*
X1288064Y680938D01*
Y705220D01*
X1288160D01*
Y715010D01*
Y724800D01*
X1280390D01*
Y723760D01*
X1265430D01*
Y711004D01*
X1264640Y710214D01*
X1214059D01*
X1213509Y710816D01*
X1212727Y712754D01*
X1213514Y714119D01*
X1214093Y716280D01*
X1196367D01*
X1196946Y714119D01*
X1197734Y712754D01*
X1196951Y710816D01*
X1196401Y710214D01*
X1183924D01*
Y716062D01*
X1183709Y717143D01*
X1183097Y718059D01*
X1183097Y718059D01*
X1181609Y719547D01*
X1180693Y720159D01*
X1179612Y720374D01*
X1179612Y720374D01*
X1169794D01*
X1168713Y720159D01*
X1167797Y719547D01*
X1164589Y716340D01*
X1163977Y715423D01*
X1163762Y714343D01*
X1161289Y713938D01*
X1156958D01*
Y710266D01*
X1155918D01*
Y707390D01*
X1163320D01*
Y706120D01*
X1164590D01*
Y701974D01*
X1167098D01*
X1179115Y689957D01*
X1178647Y686833D01*
X1178181Y686564D01*
X1176526Y684909D01*
X1175356Y682881D01*
X1175193Y682274D01*
X1155700D01*
X1154619Y682059D01*
X1153703Y681447D01*
X1153091Y680531D01*
X1152876Y679450D01*
Y595530D01*
X1148980Y591634D01*
X1131282D01*
X1131104Y592299D01*
X1129914Y594361D01*
X1128231Y596044D01*
X1126169Y597234D01*
X1123950Y597829D01*
Y588810D01*
X1122680D01*
Y587540D01*
X1113661D01*
X1114256Y585321D01*
X1115446Y583259D01*
X1116761Y581944D01*
X1116452Y580438D01*
X1115838Y579404D01*
X1094640D01*
X1059464Y614580D01*
Y698600D01*
X1062947Y702083D01*
X1064900Y703500D01*
X1081400D01*
Y716006D01*
X1082822Y717428D01*
X1083434Y718344D01*
X1083649Y719425D01*
X1083649Y719425D01*
Y726596D01*
X1107792D01*
X1108150Y726357D01*
X1109135Y726161D01*
X1122785D01*
X1123770Y726357D01*
X1124605Y726915D01*
X1125163Y727750D01*
X1125359Y728735D01*
Y730785D01*
X1125163Y731770D01*
X1125339Y732654D01*
X1125355Y732665D01*
X1126143Y733844D01*
X1126420Y735235D01*
Y735844D01*
X1128960Y736790D01*
X1129849Y735900D01*
X1131718Y735126D01*
Y740597D01*
Y746067D01*
X1129849Y745293D01*
X1126916Y745687D01*
X1126585Y746182D01*
X1126202Y747142D01*
X1126371Y747990D01*
X1115960D01*
Y750530D01*
X1126371D01*
X1126143Y751676D01*
X1125355Y752855D01*
X1125339Y752866D01*
X1125163Y753750D01*
X1125359Y754735D01*
Y756785D01*
X1127829Y757391D01*
X1128438Y755919D01*
X1129997Y754360D01*
X1131865Y753587D01*
Y759057D01*
Y764527D01*
X1129997Y763753D01*
X1128438Y762195D01*
X1127846Y760764D01*
X1125359Y761235D01*
Y763285D01*
X1125163Y764270D01*
X1124743Y765510D01*
X1125163Y766750D01*
X1125359Y767735D01*
Y769785D01*
X1125163Y770770D01*
X1125339Y771654D01*
X1125355Y771665D01*
X1126143Y772844D01*
X1126192Y773087D01*
X1126893Y773422D01*
X1128902Y773696D01*
X1129997Y772601D01*
X1131865Y771827D01*
Y777298D01*
Y782768D01*
X1129997Y781994D01*
X1128872Y780870D01*
X1126618Y780749D01*
X1125872Y780878D01*
X1125359Y781455D01*
Y782785D01*
X1125163Y783770D01*
X1125339Y784654D01*
X1125355Y784665D01*
X1126143Y785844D01*
X1126371Y786990D01*
X1115960D01*
Y789530D01*
X1126371D01*
X1126143Y790676D01*
X1125542Y791577D01*
X1125834Y792859D01*
X1128005Y793151D01*
X1128505Y793143D01*
X1129997Y791651D01*
X1131865Y790877D01*
Y796348D01*
Y801818D01*
X1129997Y801044D01*
X1128438Y799486D01*
X1125466Y798948D01*
X1125196Y799217D01*
X1125187Y799368D01*
X1125359Y800235D01*
Y802285D01*
X1125163Y803270D01*
X1124743Y804510D01*
X1125163Y805750D01*
X1125359Y806735D01*
Y808785D01*
X1125163Y809770D01*
X1124743Y811010D01*
X1125163Y812250D01*
X1125359Y813235D01*
Y813865D01*
X1127899Y814370D01*
X1128438Y813069D01*
X1129997Y811510D01*
X1131865Y810736D01*
Y816207D01*
Y821677D01*
X1129997Y820903D01*
X1128960Y819866D01*
X1126537Y820570D01*
X1126420Y820645D01*
Y821785D01*
X1126143Y823176D01*
X1125586Y824010D01*
X1126143Y824844D01*
X1126371Y825990D01*
X1115960D01*
Y827260D01*
X1114690D01*
Y831920D01*
X1109135D01*
X1107744Y831643D01*
X1106565Y830855D01*
X1106050Y830084D01*
X1101507D01*
X1101507Y830084D01*
X1100426Y829869D01*
X1099510Y829257D01*
X1099364Y829112D01*
X1096824Y830164D01*
Y883270D01*
X1098066D01*
X1100492Y883920D01*
X1102668Y885176D01*
X1104444Y886952D01*
X1105700Y889128D01*
X1105930Y889986D01*
X1137152D01*
Y889310D01*
X1137620Y886953D01*
X1138955Y884955D01*
X1140953Y883621D01*
X1143310Y883152D01*
X1145540D01*
Y892810D01*
Y902468D01*
D02*
G37*
G36*
X794836Y909102D02*
X791960D01*
Y908062D01*
X788288D01*
Y904524D01*
X774918D01*
X773837Y904309D01*
X772921Y903697D01*
X772921Y903697D01*
X771433Y902209D01*
X770821Y901293D01*
X770606Y900212D01*
X770606Y900212D01*
Y884380D01*
X770446Y883576D01*
X770446Y883576D01*
Y869338D01*
X770375Y869319D01*
X768665Y868332D01*
X767269Y866935D01*
X766281Y865225D01*
X765770Y863317D01*
Y861343D01*
X766281Y859435D01*
X767269Y857725D01*
X768665Y856329D01*
X770375Y855341D01*
X772283Y854830D01*
X774257D01*
X776165Y855341D01*
X777875Y856329D01*
X779271Y857725D01*
X780259Y859435D01*
X780770Y861343D01*
Y863317D01*
X780259Y865225D01*
X779271Y866935D01*
X777875Y868332D01*
X776165Y869319D01*
X776094Y869338D01*
Y882932D01*
X776254Y883736D01*
Y898876D01*
X788288D01*
Y895338D01*
X791960D01*
Y894298D01*
X794836D01*
Y901700D01*
Y909102D01*
D02*
G37*
G36*
X1150310Y902468D02*
X1148080D01*
Y894080D01*
X1156468D01*
Y896310D01*
X1156000Y898667D01*
X1154665Y900665D01*
X1152667Y902000D01*
X1150310Y902468D01*
D02*
G37*
G36*
X1095540Y902346D02*
X1093128Y901700D01*
X1090952Y900444D01*
X1089176Y898668D01*
X1087920Y896492D01*
X1087274Y894080D01*
X1095540D01*
Y902346D01*
D02*
G37*
G36*
X628390Y902970D02*
X610870D01*
Y890950D01*
X628390D01*
Y902970D01*
D02*
G37*
G36*
X1156468Y891540D02*
X1148080D01*
Y883152D01*
X1150310D01*
X1152667Y883621D01*
X1154665Y884955D01*
X1156000Y886953D01*
X1156468Y889310D01*
Y891540D01*
D02*
G37*
G36*
X721360Y886433D02*
Y878840D01*
X728953D01*
X728374Y881001D01*
X727204Y883029D01*
X725549Y884684D01*
X723521Y885854D01*
X721360Y886433D01*
D02*
G37*
G36*
X724027Y909066D02*
X702945D01*
Y903605D01*
X710662D01*
Y885334D01*
X710662Y885334D01*
X710877Y884254D01*
X711489Y883337D01*
X712545Y882281D01*
X711806Y881001D01*
X711227Y878840D01*
X718820D01*
Y886434D01*
X716310Y888391D01*
Y903605D01*
X724027D01*
Y909066D01*
D02*
G37*
G36*
X718820Y876300D02*
X711227D01*
X711806Y874139D01*
X712976Y872111D01*
X714631Y870456D01*
X716659Y869286D01*
X718820Y868707D01*
Y876300D01*
D02*
G37*
G36*
X1044770Y873890D02*
X1044685D01*
X1042068Y873189D01*
X1039722Y871834D01*
X1037806Y869918D01*
X1036451Y867572D01*
X1035750Y864955D01*
Y864870D01*
X1044770D01*
Y873890D01*
D02*
G37*
G36*
X899730D02*
X890710D01*
Y864870D01*
X899730D01*
Y873890D01*
D02*
G37*
G36*
X800252Y909102D02*
X797376D01*
Y901700D01*
Y894298D01*
X800252D01*
Y898876D01*
X850170D01*
X879150Y869896D01*
Y864870D01*
X888170D01*
Y873890D01*
X883144D01*
X853337Y903697D01*
X852421Y904309D01*
X851340Y904524D01*
X851340Y904524D01*
X800252D01*
Y909102D01*
D02*
G37*
G36*
X761810Y870870D02*
X754540D01*
Y863600D01*
X761810D01*
Y870870D01*
D02*
G37*
G36*
X728953Y876300D02*
X721360D01*
Y868707D01*
X723521Y869286D01*
X724066Y869600D01*
X728603Y865063D01*
X729519Y864451D01*
X730600Y864236D01*
X730600Y864236D01*
X744730D01*
Y863600D01*
X752000D01*
Y870870D01*
X744730D01*
Y869884D01*
X731770D01*
X728060Y873594D01*
X728374Y874139D01*
X728953Y876300D01*
D02*
G37*
G36*
X1065530Y864843D02*
Y857250D01*
X1073123D01*
X1072544Y859411D01*
X1071374Y861439D01*
X1069719Y863094D01*
X1067691Y864264D01*
X1065530Y864843D01*
D02*
G37*
G36*
X566393Y871220D02*
X548667D01*
X549246Y869059D01*
X550416Y867031D01*
X552071Y865376D01*
X554099Y864206D01*
X554706Y864043D01*
Y858658D01*
X554670Y858438D01*
X554560Y858187D01*
X552993Y856390D01*
X552762Y856264D01*
X485230D01*
X484835Y857740D01*
X483802Y859530D01*
X482340Y860992D01*
X480550Y862025D01*
X478554Y862560D01*
X476487D01*
X474490Y862025D01*
X472700Y860992D01*
X471238Y859530D01*
X470205Y857740D01*
X469670Y855743D01*
Y853677D01*
X470205Y851680D01*
X470908Y850462D01*
X462740Y842294D01*
X448310D01*
X447229Y842079D01*
X446313Y841467D01*
X445701Y840551D01*
X445486Y839470D01*
Y837242D01*
X444576Y836998D01*
X442694Y835912D01*
X441158Y834376D01*
X440072Y832494D01*
X439510Y830396D01*
Y828224D01*
X440072Y826126D01*
X441158Y824244D01*
X442694Y822708D01*
X444576Y821622D01*
X446674Y821060D01*
X448846D01*
X450944Y821622D01*
X452826Y822708D01*
X454362Y824244D01*
X455448Y826126D01*
X456010Y828224D01*
Y830396D01*
X455448Y832494D01*
X454518Y834106D01*
X454831Y835182D01*
X455684Y836646D01*
X463910D01*
X463910Y836646D01*
X464991Y836861D01*
X465907Y837473D01*
X475546Y847112D01*
X476487Y846860D01*
X478554D01*
X480550Y847395D01*
X482340Y848428D01*
X483802Y849890D01*
X484221Y850616D01*
X552550D01*
X562326Y840840D01*
Y832645D01*
X560727Y831919D01*
X559786Y831806D01*
X558540Y833052D01*
X556750Y834085D01*
X554753Y834620D01*
X552687D01*
X550690Y834085D01*
X548900Y833052D01*
X548550Y832702D01*
X546010Y833754D01*
Y837560D01*
X529510D01*
Y821060D01*
X534288D01*
Y816272D01*
X510108D01*
X508779Y816007D01*
X507653Y815255D01*
X506165Y813767D01*
X505413Y812641D01*
X505148Y811312D01*
Y769012D01*
X500802D01*
Y766122D01*
X497910D01*
Y767150D01*
X497502D01*
Y777240D01*
X497237Y778569D01*
X496485Y779695D01*
X491405Y784775D01*
X490279Y785527D01*
X488950Y785792D01*
X468848D01*
X467519Y785527D01*
X466393Y784775D01*
X464905Y783287D01*
X464153Y782161D01*
X463888Y780832D01*
Y776650D01*
X460910D01*
Y767650D01*
X476868Y767650D01*
X477341Y767650D01*
X477711Y767621D01*
X479059Y767332D01*
X479870Y765609D01*
X479910Y765126D01*
X479910Y764838D01*
Y760674D01*
X479910Y758690D01*
X477634Y758690D01*
X471180D01*
Y753150D01*
Y747610D01*
X478873D01*
X479558Y746423D01*
X479810Y745070D01*
X475065Y740325D01*
X474313Y739199D01*
X474048Y737870D01*
Y735247D01*
X473220Y735025D01*
X471430Y733992D01*
X469968Y732530D01*
X468935Y730740D01*
X468400Y728744D01*
Y726676D01*
X468935Y724680D01*
X469968Y722890D01*
X471430Y721428D01*
X473220Y720395D01*
X475216Y719860D01*
X477284D01*
X479280Y720395D01*
X481070Y721428D01*
X482532Y722890D01*
X482938Y723595D01*
X485478Y722914D01*
Y666442D01*
X485743Y665113D01*
X486495Y663987D01*
X488727Y661755D01*
X489853Y661003D01*
X491182Y660738D01*
X493969D01*
Y655929D01*
X505521D01*
Y672491D01*
X493969D01*
X492422Y674390D01*
Y735668D01*
X497840D01*
X499169Y735933D01*
X500295Y736685D01*
X506363Y742753D01*
X507115Y743879D01*
X507379Y745208D01*
Y756288D01*
X511726D01*
X512783Y754185D01*
Y672491D01*
X510479D01*
Y662174D01*
X510412Y661839D01*
Y658986D01*
X510041Y658431D01*
X509777Y657102D01*
Y637383D01*
X509355Y636962D01*
X508603Y635835D01*
X508338Y634507D01*
Y614120D01*
X506990Y613342D01*
X505528Y611880D01*
X504495Y610090D01*
X503960Y608093D01*
Y606026D01*
X504495Y604030D01*
X505528Y602240D01*
X506990Y600778D01*
X508780Y599745D01*
X508857Y599724D01*
X508523Y597184D01*
X505360D01*
X468980Y633564D01*
X469294Y634109D01*
X469873Y636270D01*
X462280D01*
Y628677D01*
X464441Y629256D01*
X464986Y629570D01*
X502193Y592363D01*
X503109Y591751D01*
X504190Y591536D01*
X504190Y591536D01*
X525680D01*
Y588820D01*
X534450D01*
Y594360D01*
X535720D01*
Y595630D01*
X545760D01*
Y599900D01*
X544720D01*
Y607320D01*
X544720Y608860D01*
X544720Y611400D01*
Y617320D01*
X544720Y618860D01*
X544720Y619940D01*
X546516Y621736D01*
X592596D01*
Y584984D01*
X533220D01*
X532072Y584508D01*
X531596Y583360D01*
Y483532D01*
X531596Y483360D01*
X529973Y480992D01*
X515480D01*
X515282Y481190D01*
Y572060D01*
X516630Y572838D01*
X518092Y574300D01*
X519125Y576090D01*
X519660Y578087D01*
Y580154D01*
X519125Y582150D01*
X518092Y583940D01*
X516630Y585402D01*
X514840Y586435D01*
X512844Y586970D01*
X510776D01*
X508780Y586435D01*
X506990Y585402D01*
X505528Y583940D01*
X504495Y582150D01*
X503960Y580154D01*
Y578087D01*
X504495Y576090D01*
X505528Y574300D01*
X506990Y572838D01*
X508338Y572060D01*
Y479752D01*
X508603Y478423D01*
X509355Y477297D01*
X511587Y475065D01*
X512713Y474313D01*
X514042Y474048D01*
X852478D01*
X853807Y474313D01*
X854933Y475065D01*
X857165Y477297D01*
X857917Y478423D01*
X858182Y479752D01*
Y510680D01*
X858380Y510878D01*
X866140D01*
Y504580D01*
X871918D01*
Y457476D01*
X871820Y457450D01*
X869710Y456232D01*
X867988Y454510D01*
X866770Y452400D01*
X866140Y450048D01*
Y447612D01*
X866770Y445260D01*
X867988Y443150D01*
X869710Y441428D01*
X871820Y440210D01*
X874172Y439580D01*
X876608D01*
X878960Y440210D01*
X881070Y441428D01*
X882792Y443150D01*
X884010Y445260D01*
X884640Y447612D01*
Y450048D01*
X884010Y452400D01*
X882792Y454510D01*
X881070Y456232D01*
X878960Y457450D01*
X878862Y457476D01*
Y504580D01*
X884640D01*
Y523080D01*
X866140D01*
Y517822D01*
X856942D01*
X855613Y517557D01*
X854487Y516805D01*
X852255Y514573D01*
X851503Y513447D01*
X851238Y512118D01*
Y483450D01*
X848780Y480992D01*
X686467D01*
X684844Y483360D01*
X684844Y483532D01*
Y583360D01*
Y589860D01*
X689720D01*
Y598860D01*
X689720D01*
Y599860D01*
X689720D01*
Y608860D01*
X689720D01*
Y609860D01*
X689720D01*
Y618860D01*
X689720D01*
X689720Y619860D01*
X689720D01*
Y628860D01*
X689720D01*
X689720Y629860D01*
X689720D01*
Y638860D01*
X689720Y638860D01*
X690527Y641066D01*
X693202D01*
X693202Y641066D01*
X694283Y641281D01*
X694780Y641613D01*
X696241Y641170D01*
X697320Y640422D01*
X697320Y640089D01*
X697320Y640089D01*
X697320Y640055D01*
Y625480D01*
X709826D01*
X712186Y623120D01*
Y617438D01*
X712186Y617438D01*
X712401Y616357D01*
X713013Y615441D01*
X716297Y612157D01*
X716297Y612157D01*
X717213Y611545D01*
X718294Y611330D01*
X718294Y611330D01*
X735836D01*
X736370Y610633D01*
Y608567D01*
X736905Y606570D01*
X737938Y604780D01*
X739400Y603318D01*
X741190Y602285D01*
X743186Y601750D01*
X745254D01*
X747250Y602285D01*
X749040Y603318D01*
X750502Y604780D01*
X751535Y606570D01*
X752070Y608567D01*
Y610634D01*
X751535Y612630D01*
X750502Y614420D01*
X749040Y615882D01*
X747250Y616915D01*
X745254Y617450D01*
X743186D01*
X741190Y616915D01*
X740830Y616707D01*
X740747Y616763D01*
X739666Y616978D01*
X739666Y616978D01*
X719464D01*
X717834Y618608D01*
Y624290D01*
X717619Y625371D01*
X717007Y626287D01*
X713820Y629474D01*
Y641980D01*
X699214Y641980D01*
X699108D01*
X699108D01*
X698806Y641980D01*
X697896Y642993D01*
X697403Y644070D01*
X697344Y644520D01*
X697514Y645378D01*
Y655420D01*
X698000Y655906D01*
X700090D01*
X700090Y655906D01*
X700363Y655960D01*
X713820D01*
Y672460D01*
X697320D01*
X696244Y674554D01*
Y684346D01*
X697320Y686440D01*
X698784Y686440D01*
X713820D01*
Y702940D01*
X707674D01*
Y708910D01*
X707880Y708965D01*
X709670Y709998D01*
X711132Y711460D01*
X712165Y713250D01*
X712700Y715247D01*
Y717314D01*
X712165Y719310D01*
X711132Y721100D01*
X709670Y722562D01*
X707880Y723595D01*
X705883Y724130D01*
X703817D01*
X701820Y723595D01*
X700030Y722562D01*
X698784Y721316D01*
X697843Y721429D01*
X696244Y722154D01*
Y724946D01*
X696680Y727426D01*
X697761Y727641D01*
X698677Y728253D01*
X700044Y729620D01*
X712550D01*
Y746120D01*
X696050D01*
Y733614D01*
X695510Y733074D01*
X694908D01*
X693827Y732859D01*
X692911Y732247D01*
X692911Y732247D01*
X692260Y731596D01*
X689720Y732648D01*
Y738820D01*
X690760D01*
Y743090D01*
X680720D01*
Y745630D01*
X690760D01*
Y745906D01*
X701767Y756913D01*
X702379Y757829D01*
X702594Y758910D01*
X702594Y758910D01*
Y771333D01*
X703201Y771496D01*
X705229Y772666D01*
X706884Y774321D01*
X708054Y776349D01*
X708633Y778510D01*
X699770D01*
Y779780D01*
X698500D01*
Y788643D01*
X696339Y788064D01*
X694311Y786894D01*
X692656Y785239D01*
X692260Y784552D01*
X689720Y785233D01*
Y788860D01*
X684844D01*
Y803360D01*
X684368Y804508D01*
X683220Y804984D01*
X657720D01*
Y809860D01*
X648720D01*
Y809860D01*
X647720Y809860D01*
Y809860D01*
X645040D01*
Y820038D01*
X647712D01*
Y830962D01*
X635424D01*
Y833990D01*
X638850D01*
Y858490D01*
X626350D01*
Y833990D01*
X629776D01*
Y829344D01*
X629776Y829344D01*
X629991Y828263D01*
X630603Y827347D01*
X632091Y825859D01*
X632091Y825859D01*
X633007Y825247D01*
X634088Y825032D01*
X634988D01*
Y820038D01*
X639392D01*
Y811708D01*
X637720Y809860D01*
X628720D01*
X626692Y811095D01*
Y816751D01*
X626427Y818079D01*
X625675Y819206D01*
X625027Y819853D01*
X625805Y821200D01*
X626340Y823196D01*
Y825264D01*
X625805Y827260D01*
X624772Y829050D01*
X623310Y830512D01*
X621520Y831545D01*
X619524Y832080D01*
X619070D01*
X617292Y832790D01*
X616890Y834521D01*
Y844970D01*
X610870D01*
Y832950D01*
X612813D01*
X613542Y830876D01*
X613568Y830410D01*
X612208Y829050D01*
X611175Y827260D01*
X610640Y825264D01*
Y823196D01*
X611175Y821200D01*
X611953Y819853D01*
X610765Y818666D01*
X610013Y817539D01*
X609748Y816211D01*
Y811095D01*
X607720Y809860D01*
X607115D01*
X604641Y810265D01*
X604426Y811346D01*
X603814Y812262D01*
X603814Y812262D01*
X599536Y816541D01*
X598619Y817153D01*
X597538Y817368D01*
X597538Y817368D01*
X590332D01*
Y820236D01*
X582930D01*
Y822776D01*
X590332D01*
Y824948D01*
X582930D01*
Y827488D01*
X590332D01*
Y830365D01*
X586726D01*
X586683Y830410D01*
X587656Y832689D01*
X587991Y832950D01*
X593890D01*
Y843416D01*
X602310D01*
Y832950D01*
X608330D01*
Y846240D01*
Y859530D01*
X602310D01*
Y849064D01*
X593890D01*
Y859530D01*
X587870D01*
Y846240D01*
X585330D01*
Y859530D01*
X579310D01*
Y849064D01*
X570980D01*
X560354Y859690D01*
Y864043D01*
X560961Y864206D01*
X562989Y865376D01*
X564644Y867031D01*
X565814Y869059D01*
X566393Y871220D01*
D02*
G37*
G36*
X761810Y861060D02*
X754540D01*
Y853790D01*
X761810D01*
Y861060D01*
D02*
G37*
G36*
X752000D02*
X744730D01*
Y853790D01*
X752000D01*
Y861060D01*
D02*
G37*
G36*
X1044770Y862330D02*
X1035750D01*
Y862245D01*
X1036451Y859628D01*
X1037806Y857282D01*
X1039722Y855366D01*
X1042068Y854011D01*
X1044685Y853310D01*
X1044770D01*
Y862330D01*
D02*
G37*
G36*
X1251400Y858230D02*
X1243630D01*
Y849994D01*
X1229452D01*
Y854572D01*
X1226576D01*
Y847170D01*
Y839768D01*
X1229452D01*
Y844346D01*
X1243630D01*
Y838650D01*
X1251400D01*
Y848440D01*
Y858230D01*
D02*
G37*
G36*
X1277710D02*
X1269940D01*
Y849710D01*
X1277710D01*
Y858230D01*
D02*
G37*
G36*
X1219324Y854572D02*
X1216448D01*
Y848440D01*
X1219324D01*
Y854572D01*
D02*
G37*
G36*
X616890Y859530D02*
X610870D01*
Y847510D01*
X616890D01*
Y859530D01*
D02*
G37*
G36*
X1224036Y854572D02*
X1221864D01*
Y847170D01*
Y839768D01*
X1224036D01*
Y847170D01*
Y854572D01*
D02*
G37*
G36*
X1277710Y847170D02*
X1269940D01*
Y838650D01*
X1277710D01*
Y847170D01*
D02*
G37*
G36*
X1267400Y858230D02*
X1253940D01*
Y848440D01*
Y838650D01*
X1267400D01*
Y848440D01*
Y858230D01*
D02*
G37*
G36*
X979170Y839443D02*
X977009Y838864D01*
X974981Y837694D01*
X973326Y836039D01*
X972156Y834011D01*
X971577Y831850D01*
X979170D01*
Y839443D01*
D02*
G37*
G36*
X1219324Y845900D02*
X1216448D01*
Y844662D01*
X1202532Y830746D01*
X1199755Y830855D01*
X1198576Y831643D01*
X1197185Y831920D01*
X1191630D01*
Y827260D01*
X1190360D01*
Y825990D01*
X1179949D01*
X1180177Y824844D01*
X1180734Y824010D01*
X1180177Y823176D01*
X1179949Y822030D01*
X1200889D01*
X1202416Y824277D01*
X1202685Y824436D01*
X1203040D01*
X1203040Y824436D01*
X1204121Y824651D01*
X1205037Y825263D01*
X1219324Y839550D01*
Y845900D01*
D02*
G37*
G36*
X1189090Y831920D02*
X1183535D01*
X1182144Y831643D01*
X1180965Y830855D01*
X1180177Y829676D01*
X1179949Y828530D01*
X1189090D01*
Y831920D01*
D02*
G37*
G36*
X1122785D02*
X1117230D01*
Y828530D01*
X1126371D01*
X1126143Y829676D01*
X1125355Y830855D01*
X1124176Y831643D01*
X1122785Y831920D01*
D02*
G37*
G36*
X1268493Y830810D02*
X1266426D01*
X1264430Y830275D01*
X1262640Y829242D01*
X1261178Y827780D01*
X1260145Y825990D01*
X1260090Y825784D01*
X1247130D01*
Y829440D01*
X1234130D01*
Y813940D01*
X1247130D01*
Y816148D01*
X1249670Y817417D01*
X1250666Y816670D01*
Y810544D01*
X1208020D01*
X1206968Y813084D01*
X1211590Y817706D01*
X1214130Y816654D01*
Y813940D01*
X1227130D01*
Y829440D01*
X1214130D01*
Y824514D01*
X1211580D01*
X1210499Y824299D01*
X1209583Y823687D01*
X1204361Y818465D01*
X1203038Y818619D01*
X1201307Y819490D01*
X1179949D01*
X1180177Y818344D01*
X1180965Y817165D01*
X1180981Y817154D01*
X1181156Y816270D01*
X1180960Y815285D01*
Y813235D01*
X1181156Y812250D01*
X1181577Y811010D01*
X1181156Y809770D01*
X1180960Y808785D01*
Y806735D01*
X1181156Y805750D01*
X1180981Y804866D01*
X1180965Y804855D01*
X1180177Y803676D01*
X1179949Y802530D01*
X1190360D01*
Y799990D01*
X1179949D01*
X1180177Y798844D01*
X1180965Y797665D01*
X1180981Y797654D01*
X1181156Y796770D01*
X1180960Y795785D01*
Y793735D01*
X1181156Y792750D01*
X1181577Y791510D01*
X1181156Y790270D01*
X1180960Y789285D01*
Y787235D01*
X1181156Y786250D01*
X1180981Y785366D01*
X1180965Y785355D01*
X1180177Y784176D01*
X1179949Y783030D01*
X1200889D01*
X1202416Y785278D01*
X1202685Y785436D01*
X1206090D01*
X1206090Y785436D01*
X1207171Y785651D01*
X1208087Y786263D01*
X1208940Y787116D01*
X1214130D01*
Y782190D01*
X1227130D01*
Y797690D01*
X1228130Y799816D01*
X1233130D01*
X1234130Y797690D01*
Y782190D01*
X1247130D01*
Y787116D01*
X1251110D01*
X1251110Y787116D01*
X1252191Y787331D01*
X1253107Y787943D01*
X1254820Y789656D01*
X1260250D01*
X1260305Y789450D01*
X1261339Y787660D01*
X1262800Y786198D01*
X1264590Y785165D01*
X1266587Y784630D01*
X1268654D01*
X1270650Y785165D01*
X1272440Y786198D01*
X1273902Y787660D01*
X1274935Y789450D01*
X1275470Y791447D01*
Y793513D01*
X1274935Y795510D01*
X1273902Y797300D01*
X1272440Y798762D01*
X1270650Y799795D01*
X1268654Y800330D01*
X1266587D01*
X1264590Y799795D01*
X1262800Y798762D01*
X1261339Y797300D01*
X1260305Y795510D01*
X1260250Y795304D01*
X1256144D01*
X1253774Y796408D01*
X1253774Y797672D01*
Y801152D01*
X1253559Y802233D01*
X1253314Y802600D01*
X1253205Y803788D01*
X1253979Y805709D01*
X1253999Y805723D01*
X1255487Y807211D01*
X1255487Y807211D01*
X1256099Y808127D01*
X1256314Y809208D01*
Y819150D01*
X1257123Y820136D01*
X1260090D01*
X1260145Y819930D01*
X1261178Y818140D01*
X1262640Y816678D01*
X1264430Y815645D01*
X1266426Y815110D01*
X1268493D01*
X1270490Y815645D01*
X1272280Y816678D01*
X1273742Y818140D01*
X1274775Y819930D01*
X1275310Y821926D01*
Y823994D01*
X1274775Y825990D01*
X1273742Y827780D01*
X1272280Y829242D01*
X1270490Y830275D01*
X1268493Y830810D01*
D02*
G37*
G36*
X1157265Y821677D02*
X1155397Y820903D01*
X1153839Y819345D01*
X1153560Y818672D01*
X1150810D01*
X1150532Y819345D01*
X1148973Y820903D01*
X1147105Y821677D01*
Y816207D01*
Y810736D01*
X1148973Y811510D01*
X1150532Y813069D01*
X1150810Y813742D01*
X1153560D01*
X1153839Y813069D01*
X1155397Y811510D01*
X1157265Y810736D01*
Y816207D01*
Y821677D01*
D02*
G37*
G36*
X1144565D02*
X1142697Y820903D01*
X1141139Y819345D01*
X1140860Y818672D01*
X1138110D01*
X1137832Y819345D01*
X1136273Y820903D01*
X1134405Y821677D01*
Y816207D01*
Y810736D01*
X1136273Y811510D01*
X1137832Y813069D01*
X1138110Y813742D01*
X1140860D01*
X1141139Y813069D01*
X1142697Y811510D01*
X1144565Y810736D01*
Y816207D01*
Y821677D01*
D02*
G37*
G36*
X1170157Y821712D02*
X1168289Y820938D01*
X1166730Y819380D01*
X1166348Y818458D01*
X1163599D01*
X1163232Y819345D01*
X1161673Y820903D01*
X1159805Y821677D01*
Y816207D01*
Y810736D01*
X1161673Y811510D01*
X1163232Y813069D01*
X1163614Y813991D01*
X1166363D01*
X1166730Y813104D01*
X1168289Y811545D01*
X1170157Y810771D01*
Y816242D01*
Y821712D01*
D02*
G37*
G36*
X1669178Y1102072D02*
X1487388D01*
X1485068Y1101610D01*
X1483102Y1100296D01*
X1472724Y1089918D01*
X1471410Y1087952D01*
X1470948Y1085632D01*
Y1079293D01*
X1469292Y1077636D01*
X1464445D01*
X1463860Y1077520D01*
X1438390D01*
Y1020520D01*
X1470390D01*
Y1065514D01*
X1471802D01*
X1474122Y1065975D01*
X1476088Y1067289D01*
X1481296Y1072497D01*
X1482610Y1074463D01*
X1483071Y1076783D01*
Y1083121D01*
X1489899Y1089949D01*
X1648658D01*
X1649338Y1087409D01*
X1648720Y1087052D01*
X1647258Y1085590D01*
X1646225Y1083800D01*
X1645690Y1081804D01*
Y1079736D01*
X1646225Y1077740D01*
X1646750Y1076831D01*
Y1065512D01*
X1628048Y1046810D01*
X1625586D01*
X1623107Y1046145D01*
X1620883Y1044862D01*
X1619068Y1043047D01*
X1617784Y1040823D01*
X1617120Y1038344D01*
Y1035776D01*
X1617784Y1033297D01*
X1619068Y1031073D01*
X1620883Y1029258D01*
X1623107Y1027974D01*
X1625586Y1027310D01*
X1628154D01*
X1630633Y1027974D01*
X1632857Y1029258D01*
X1634672Y1031073D01*
X1635956Y1033297D01*
X1636620Y1035776D01*
Y1038238D01*
X1657097Y1058715D01*
X1658411Y1060681D01*
X1658873Y1063001D01*
Y1075001D01*
X1659822Y1075950D01*
X1660855Y1077740D01*
X1661390Y1079736D01*
Y1081804D01*
X1660855Y1083800D01*
X1659822Y1085590D01*
X1658360Y1087052D01*
X1657742Y1087409D01*
X1658422Y1089949D01*
X1666668D01*
X1674149Y1082468D01*
Y819778D01*
X1672492Y818121D01*
X1634597D01*
X1632857Y819862D01*
X1630633Y821145D01*
X1628154Y821810D01*
X1625586D01*
X1623107Y821145D01*
X1620883Y819862D01*
X1619068Y818047D01*
X1617784Y815823D01*
X1617120Y813344D01*
Y810776D01*
X1617784Y808297D01*
X1619068Y806073D01*
X1620883Y804258D01*
X1623107Y802974D01*
X1625586Y802310D01*
X1628154D01*
X1630633Y802974D01*
X1632857Y804258D01*
X1634597Y805999D01*
X1675002D01*
X1677322Y806460D01*
X1679288Y807774D01*
X1684496Y812982D01*
X1685810Y814948D01*
X1686272Y817268D01*
Y1084978D01*
X1685810Y1087298D01*
X1684496Y1089265D01*
X1673465Y1100296D01*
X1671498Y1101610D01*
X1669178Y1102072D01*
D02*
G37*
G36*
X1172697Y821712D02*
Y817512D01*
X1176897D01*
X1176124Y819380D01*
X1174565Y820938D01*
X1172697Y821712D01*
D02*
G37*
G36*
X1059070Y819150D02*
X1055238D01*
Y818295D01*
X1055484Y817060D01*
X1056183Y816013D01*
X1057230Y815314D01*
X1058465Y815068D01*
X1059070D01*
Y819150D01*
D02*
G37*
G36*
X1176897Y814972D02*
X1172697D01*
Y810771D01*
X1174565Y811545D01*
X1176124Y813104D01*
X1176897Y814972D01*
D02*
G37*
G36*
X1001782Y814070D02*
X994810D01*
Y807098D01*
X996740Y807615D01*
X998630Y808706D01*
X1000174Y810250D01*
X1001265Y812140D01*
X1001782Y814070D01*
D02*
G37*
G36*
X1472930Y914960D02*
X1440930D01*
Y857960D01*
X1472930D01*
Y879128D01*
X1479452D01*
X1481109Y877472D01*
Y818538D01*
X1481570Y816218D01*
X1482884Y814252D01*
X1488092Y809044D01*
X1490058Y807730D01*
X1492378Y807269D01*
X1531513D01*
X1533253Y805528D01*
X1535477Y804245D01*
X1537956Y803580D01*
X1540524D01*
X1543003Y804245D01*
X1545227Y805528D01*
X1547042Y807343D01*
X1548326Y809567D01*
X1548990Y812046D01*
Y814614D01*
X1548326Y817093D01*
X1547042Y819317D01*
X1545227Y821132D01*
X1543003Y822415D01*
X1540524Y823080D01*
X1537956D01*
X1535477Y822415D01*
X1533253Y821132D01*
X1531513Y819391D01*
X1494888D01*
X1493232Y821048D01*
Y879982D01*
X1492770Y882302D01*
X1491456Y884268D01*
X1486248Y889476D01*
X1484282Y890790D01*
X1481962Y891252D01*
X1472930D01*
Y914960D01*
D02*
G37*
G36*
X899730Y862330D02*
X879150D01*
Y853310D01*
X886176D01*
Y849630D01*
X886176Y849630D01*
X886391Y848549D01*
X887003Y847633D01*
X916656Y817980D01*
Y804737D01*
X916049Y804574D01*
X914021Y803404D01*
X912366Y801749D01*
X911196Y799721D01*
X911033Y799114D01*
X871220D01*
X871220Y799114D01*
X870139Y798899D01*
X869223Y798287D01*
X869223Y798287D01*
X868090Y797154D01*
X831933D01*
X831876Y797440D01*
X831177Y798487D01*
X830897Y800626D01*
X831062Y801455D01*
Y805205D01*
X830897Y806034D01*
X830427Y806737D01*
X829724Y807207D01*
X828895Y807372D01*
X824645D01*
X823816Y807207D01*
X823113Y806737D01*
X822724Y806154D01*
X818570D01*
X817489Y805939D01*
X816573Y805327D01*
X812073Y800827D01*
X811461Y799911D01*
X811246Y798830D01*
X811246Y798830D01*
Y786130D01*
X811246Y786130D01*
X811461Y785049D01*
X812073Y784133D01*
X820346Y775860D01*
Y744857D01*
X820103Y744494D01*
X819938Y743665D01*
Y739915D01*
X820103Y739086D01*
X820279Y738823D01*
X820573Y738187D01*
Y737993D01*
X818355Y735614D01*
X804691D01*
X802550Y736784D01*
Y738956D01*
X801988Y741054D01*
X800902Y742936D01*
X799366Y744472D01*
X797484Y745558D01*
X795386Y746120D01*
X793214D01*
X791116Y745558D01*
X789234Y744472D01*
X787698Y742936D01*
X786612Y741054D01*
X786050Y738956D01*
Y736784D01*
X786612Y734686D01*
X787698Y732804D01*
X789234Y731268D01*
X791116Y730182D01*
X793214Y729620D01*
X795386D01*
X797484Y730182D01*
X799366Y731268D01*
X800349Y730793D01*
X801265Y730181D01*
X802346Y729966D01*
X802346Y729966D01*
X808243D01*
X808577Y727426D01*
X808500Y727405D01*
X806710Y726372D01*
X805248Y724910D01*
X804215Y723120D01*
X803680Y721124D01*
Y719056D01*
X804215Y717060D01*
X805248Y715270D01*
X806710Y713808D01*
X808500Y712775D01*
X810497Y712240D01*
X812563D01*
X814560Y712775D01*
X816350Y713808D01*
X817812Y715270D01*
X818845Y717060D01*
X819380Y719056D01*
Y721124D01*
X818845Y723120D01*
X818647Y723463D01*
X823932Y728748D01*
X826355D01*
X827184Y728913D01*
X827887Y729383D01*
X828357Y730086D01*
X830951Y730107D01*
X831566Y729696D01*
Y711100D01*
X830680Y710214D01*
X828698D01*
X827617Y709999D01*
X826701Y709387D01*
X826701Y709387D01*
X825213Y707899D01*
X824601Y706983D01*
X824386Y705902D01*
X823816Y705027D01*
X823113Y704557D01*
X822643Y703854D01*
X822478Y703025D01*
Y699275D01*
X822584Y698744D01*
X822397Y698065D01*
X821192Y696204D01*
X803705D01*
X803258Y697874D01*
X802172Y699756D01*
X800636Y701292D01*
X798754Y702378D01*
X796656Y702940D01*
X794484D01*
X792386Y702378D01*
X790504Y701292D01*
X788968Y699756D01*
X787882Y697874D01*
X787320Y695776D01*
Y693604D01*
X787882Y691506D01*
X788968Y689624D01*
X790504Y688088D01*
X792386Y687002D01*
X794484Y686440D01*
X796656D01*
X798754Y687002D01*
X799077Y687189D01*
X815163Y671103D01*
X815163Y671103D01*
X816079Y670491D01*
X817160Y670276D01*
X820822D01*
X821454Y669519D01*
X820267Y666979D01*
X803369D01*
X803258Y667394D01*
X802172Y669276D01*
X800636Y670812D01*
X798754Y671898D01*
X796656Y672460D01*
X794484D01*
X792386Y671898D01*
X790504Y670812D01*
X788968Y669276D01*
X787882Y667394D01*
X787320Y665296D01*
Y663124D01*
X787882Y661026D01*
X788968Y659144D01*
X790504Y657608D01*
X792386Y656522D01*
X794484Y655960D01*
X796656D01*
X798754Y656522D01*
X800636Y657608D01*
X802172Y659144D01*
X803258Y661026D01*
X803339Y661331D01*
X822687D01*
X823113Y660693D01*
X823816Y660223D01*
X824645Y660058D01*
X828895D01*
X829724Y660223D01*
X830427Y660693D01*
X832430Y660818D01*
X833837Y659252D01*
X834160Y658797D01*
Y656826D01*
X834695Y654830D01*
X835728Y653040D01*
X837190Y651578D01*
X838980Y650545D01*
X840976Y650010D01*
X843044D01*
X845040Y650545D01*
X846830Y651578D01*
X848292Y653040D01*
X849325Y654830D01*
X849860Y656826D01*
Y658894D01*
X849325Y660890D01*
X848292Y662680D01*
X846830Y664142D01*
X845040Y665175D01*
X843044Y665710D01*
X840976D01*
X838980Y665175D01*
X837598Y664377D01*
X835879Y666097D01*
X834962Y666709D01*
X833882Y666924D01*
X833882Y666924D01*
X832991D01*
X831885Y669464D01*
X832640Y670276D01*
X833120D01*
X833120Y670276D01*
X834201Y670491D01*
X835117Y671103D01*
X837186Y673172D01*
X837190Y673168D01*
X838980Y672135D01*
X840976Y671600D01*
X843044D01*
X845040Y672135D01*
X846830Y673168D01*
X848292Y674630D01*
X849325Y676420D01*
X849860Y678417D01*
Y680483D01*
X849325Y682480D01*
X848292Y684270D01*
X846830Y685732D01*
X845040Y686765D01*
X843044Y687300D01*
X840976D01*
X838980Y686765D01*
X837190Y685732D01*
X835728Y684270D01*
X834695Y682480D01*
X834160Y680483D01*
Y678417D01*
X832296Y676846D01*
X830427Y676507D01*
X829724Y676977D01*
X828895Y677142D01*
X824645D01*
X823816Y676977D01*
X823113Y676507D01*
X822724Y675924D01*
X818330D01*
X806045Y688209D01*
X807017Y690556D01*
X822478D01*
Y690275D01*
X822643Y689446D01*
X823113Y688743D01*
X823816Y688273D01*
X824645Y688108D01*
X828895D01*
X829724Y688273D01*
X830427Y688743D01*
X830816Y689326D01*
X832902D01*
X832902Y689326D01*
X833983Y689541D01*
X834899Y690153D01*
X836387Y691641D01*
X836387Y691641D01*
X836999Y692557D01*
X837214Y693638D01*
Y699662D01*
X836999Y700743D01*
X836387Y701659D01*
X836387Y701659D01*
X834963Y703083D01*
X834889Y703169D01*
X834746Y703475D01*
X834524Y705819D01*
X834614Y706160D01*
X836387Y707933D01*
X836387Y707933D01*
X836999Y708849D01*
X837214Y709930D01*
Y713065D01*
X839754Y713746D01*
X839976Y713361D01*
X841631Y711706D01*
X843659Y710536D01*
X845820Y709957D01*
Y718820D01*
X847090D01*
Y720090D01*
X855953D01*
X855374Y722251D01*
X854204Y724279D01*
X852549Y725934D01*
X850521Y727104D01*
X850646Y729700D01*
X850900Y730250D01*
X859790D01*
Y740410D01*
Y750570D01*
X850900D01*
X849914Y752702D01*
Y774010D01*
X849699Y775091D01*
X849087Y776007D01*
X849087Y776007D01*
X835935Y789159D01*
X836907Y791506D01*
X869260D01*
X869260Y791506D01*
X870341Y791721D01*
X871257Y792333D01*
X872390Y793466D01*
X911033D01*
X911196Y792859D01*
X912366Y790831D01*
X914021Y789176D01*
X916049Y788006D01*
X918220Y787424D01*
X918971Y786673D01*
X918971Y786673D01*
X919887Y786061D01*
X920968Y785846D01*
X925900D01*
Y779630D01*
X933670D01*
Y788670D01*
Y797710D01*
X928303D01*
X927764Y799721D01*
X926594Y801749D01*
X924939Y803404D01*
X922911Y804574D01*
X922304Y804737D01*
Y819150D01*
X922089Y820231D01*
X921477Y821147D01*
X921477Y821147D01*
X891854Y850770D01*
X891896Y853310D01*
X899730D01*
Y862330D01*
D02*
G37*
G36*
X1157265Y801818D02*
X1155397Y801044D01*
X1153839Y799486D01*
X1153560Y798813D01*
X1150810D01*
X1150532Y799486D01*
X1148973Y801044D01*
X1147105Y801818D01*
Y796348D01*
Y790877D01*
X1148973Y791651D01*
X1150532Y793209D01*
X1150810Y793882D01*
X1153560D01*
X1153839Y793209D01*
X1155397Y791651D01*
X1157265Y790877D01*
Y796348D01*
Y801818D01*
D02*
G37*
G36*
X1144565D02*
X1142697Y801044D01*
X1141139Y799486D01*
X1140860Y798813D01*
X1138110D01*
X1137832Y799486D01*
X1136273Y801044D01*
X1134405Y801818D01*
Y796348D01*
Y790877D01*
X1136273Y791651D01*
X1137832Y793209D01*
X1138110Y793882D01*
X1140860D01*
X1141139Y793209D01*
X1142697Y791651D01*
X1144565Y790877D01*
Y796348D01*
Y801818D01*
D02*
G37*
G36*
X1170157Y801853D02*
X1168289Y801079D01*
X1166730Y799520D01*
X1166348Y798599D01*
X1163599D01*
X1163232Y799486D01*
X1161673Y801044D01*
X1159805Y801818D01*
Y796348D01*
Y790877D01*
X1161673Y791651D01*
X1163232Y793209D01*
X1163614Y794131D01*
X1166363D01*
X1166730Y793244D01*
X1168289Y791686D01*
X1170157Y790912D01*
Y796382D01*
Y801853D01*
D02*
G37*
G36*
X1172697D02*
Y797652D01*
X1176897D01*
X1176124Y799520D01*
X1174565Y801079D01*
X1172697Y801853D01*
D02*
G37*
G36*
X1176897Y795112D02*
X1172697D01*
Y790912D01*
X1174565Y791686D01*
X1176124Y793244D01*
X1176897Y795112D01*
D02*
G37*
G36*
X943980Y797710D02*
X936210D01*
Y789940D01*
X943980D01*
Y797710D01*
D02*
G37*
G36*
X701040Y788643D02*
Y781050D01*
X708633D01*
X708054Y783211D01*
X706884Y785239D01*
X705229Y786894D01*
X703201Y788064D01*
X701040Y788643D01*
D02*
G37*
G36*
X1157265Y782768D02*
X1155397Y781994D01*
X1153839Y780436D01*
X1153560Y779763D01*
X1150810D01*
X1150532Y780436D01*
X1148973Y781994D01*
X1147105Y782768D01*
Y777298D01*
Y771827D01*
X1148973Y772601D01*
X1150532Y774159D01*
X1150810Y774832D01*
X1153560D01*
X1153839Y774159D01*
X1155397Y772601D01*
X1157265Y771827D01*
Y777298D01*
Y782768D01*
D02*
G37*
G36*
X1144565D02*
X1142697Y781994D01*
X1141139Y780436D01*
X1140860Y779763D01*
X1138110D01*
X1137832Y780436D01*
X1136273Y781994D01*
X1134405Y782768D01*
Y777298D01*
Y771827D01*
X1136273Y772601D01*
X1137832Y774159D01*
X1138110Y774832D01*
X1140860D01*
X1141139Y774159D01*
X1142697Y772601D01*
X1144565Y771827D01*
Y777298D01*
Y782768D01*
D02*
G37*
G36*
X943980Y787400D02*
X936210D01*
Y779630D01*
X943980D01*
Y787400D01*
D02*
G37*
G36*
X1170157Y782803D02*
X1168289Y782029D01*
X1166730Y780471D01*
X1166348Y779549D01*
X1163599D01*
X1163232Y780436D01*
X1161673Y781994D01*
X1159805Y782768D01*
Y777298D01*
Y771827D01*
X1161673Y772601D01*
X1163232Y774159D01*
X1163614Y775081D01*
X1166363D01*
X1166730Y774194D01*
X1168289Y772636D01*
X1170157Y771862D01*
Y777332D01*
Y782803D01*
D02*
G37*
G36*
X1172697D02*
Y778602D01*
X1176897D01*
X1176124Y780471D01*
X1174565Y782029D01*
X1172697Y782803D01*
D02*
G37*
G36*
X1176897Y776062D02*
X1172697D01*
Y771862D01*
X1174565Y772636D01*
X1176124Y774194D01*
X1176897Y776062D01*
D02*
G37*
G36*
X1628154Y775030D02*
X1625586D01*
X1623107Y774365D01*
X1620883Y773082D01*
X1619068Y771267D01*
X1618531Y770337D01*
X1582070D01*
X1581640Y770585D01*
X1579644Y771120D01*
X1577576D01*
X1575580Y770585D01*
X1573790Y769552D01*
X1572328Y768090D01*
X1571295Y766300D01*
X1570760Y764304D01*
Y762236D01*
X1571295Y760240D01*
X1572328Y758450D01*
X1573790Y756988D01*
X1575580Y755955D01*
X1577576Y755420D01*
X1579644D01*
X1581640Y755955D01*
X1583430Y756988D01*
X1584655Y758214D01*
X1620148D01*
X1620883Y757478D01*
X1623107Y756195D01*
X1625586Y755530D01*
X1628154D01*
X1630633Y756195D01*
X1632857Y757478D01*
X1634672Y759293D01*
X1635956Y761517D01*
X1636620Y763996D01*
Y766564D01*
X1635956Y769043D01*
X1634672Y771267D01*
X1632857Y773082D01*
X1630633Y774365D01*
X1628154Y775030D01*
D02*
G37*
G36*
X1157265Y764527D02*
X1155397Y763753D01*
X1153839Y762195D01*
X1153560Y761522D01*
X1150810D01*
X1150532Y762195D01*
X1148973Y763753D01*
X1147105Y764527D01*
Y759057D01*
Y753587D01*
X1148973Y754360D01*
X1150532Y755919D01*
X1150810Y756592D01*
X1153560D01*
X1153839Y755919D01*
X1155397Y754360D01*
X1157265Y753587D01*
Y759057D01*
Y764527D01*
D02*
G37*
G36*
X1144565D02*
X1142697Y763753D01*
X1141139Y762195D01*
X1140860Y761522D01*
X1138110D01*
X1137832Y762195D01*
X1136273Y763753D01*
X1134405Y764527D01*
Y759057D01*
Y753587D01*
X1136273Y754360D01*
X1137832Y755919D01*
X1138110Y756592D01*
X1140860D01*
X1141139Y755919D01*
X1142697Y754360D01*
X1144565Y753587D01*
Y759057D01*
Y764527D01*
D02*
G37*
G36*
X1170157Y764562D02*
X1168289Y763788D01*
X1166730Y762230D01*
X1166348Y761308D01*
X1163599D01*
X1163232Y762195D01*
X1161673Y763753D01*
X1159805Y764527D01*
Y759057D01*
Y753587D01*
X1161673Y754360D01*
X1163232Y755919D01*
X1163614Y756841D01*
X1166363D01*
X1166730Y755954D01*
X1168289Y754395D01*
X1170157Y753621D01*
Y759092D01*
Y764562D01*
D02*
G37*
G36*
X1172697D02*
Y760362D01*
X1176897D01*
X1176124Y762230D01*
X1174565Y763788D01*
X1172697Y764562D01*
D02*
G37*
G36*
X1483123Y805410D02*
X1481057D01*
X1479060Y804875D01*
X1477270Y803842D01*
X1475808Y802380D01*
X1474775Y800590D01*
X1474240Y798594D01*
Y796526D01*
X1474775Y794530D01*
X1475808Y792740D01*
X1477270Y791278D01*
X1479060Y790245D01*
X1481057Y789710D01*
X1483123D01*
X1483742Y789876D01*
X1513606Y760012D01*
X1515573Y758698D01*
X1517892Y758236D01*
X1522425D01*
X1522548Y758023D01*
X1524363Y756208D01*
X1526587Y754924D01*
X1529066Y754260D01*
X1531634D01*
X1534113Y754924D01*
X1536337Y756208D01*
X1538152Y758023D01*
X1539435Y760247D01*
X1540100Y762726D01*
Y765294D01*
X1539435Y767773D01*
X1538152Y769997D01*
X1536337Y771812D01*
X1534113Y773095D01*
X1531634Y773760D01*
X1529066D01*
X1526587Y773095D01*
X1524363Y771812D01*
X1522911Y770359D01*
X1520403D01*
X1489645Y801117D01*
X1488759Y801709D01*
X1488372Y802380D01*
X1486910Y803842D01*
X1485120Y804875D01*
X1483123Y805410D01*
D02*
G37*
G36*
X1176897Y757822D02*
X1172697D01*
Y753621D01*
X1174565Y754395D01*
X1176124Y755954D01*
X1176897Y757822D01*
D02*
G37*
G36*
X1062990Y754000D02*
X1054470D01*
Y746230D01*
X1062990D01*
Y754000D01*
D02*
G37*
G36*
X1157117Y746067D02*
X1155249Y745293D01*
X1153691Y743735D01*
X1153412Y743062D01*
X1150663D01*
X1150384Y743735D01*
X1148826Y745293D01*
X1146957Y746067D01*
Y740597D01*
Y735126D01*
X1148826Y735900D01*
X1150384Y737459D01*
X1150663Y738132D01*
X1153412D01*
X1153691Y737459D01*
X1155249Y735900D01*
X1157117Y735126D01*
Y740597D01*
Y746067D01*
D02*
G37*
G36*
X1144417D02*
X1142549Y745293D01*
X1140991Y743735D01*
X1140712Y743062D01*
X1137963D01*
X1137684Y743735D01*
X1136126Y745293D01*
X1134258Y746067D01*
Y740597D01*
Y735126D01*
X1136126Y735900D01*
X1137684Y737459D01*
X1137963Y738132D01*
X1140712D01*
X1140991Y737459D01*
X1142549Y735900D01*
X1144417Y735126D01*
Y740597D01*
Y746067D01*
D02*
G37*
G36*
X1170009Y746102D02*
X1168141Y745328D01*
X1166583Y743770D01*
X1166201Y742848D01*
X1163452D01*
X1163084Y743735D01*
X1161526Y745293D01*
X1159658Y746067D01*
Y740597D01*
Y735126D01*
X1161526Y735900D01*
X1163084Y737459D01*
X1163466Y738381D01*
X1166215D01*
X1166583Y737494D01*
X1168141Y735935D01*
X1170009Y735161D01*
Y740632D01*
Y746102D01*
D02*
G37*
G36*
X1172549D02*
Y741902D01*
X1176750D01*
X1175976Y743770D01*
X1174417Y745328D01*
X1172549Y746102D01*
D02*
G37*
G36*
X862330Y750570D02*
Y741680D01*
X871220D01*
Y750570D01*
X862330D01*
D02*
G37*
G36*
X1176750Y739362D02*
X1172549D01*
Y735161D01*
X1174417Y735935D01*
X1175976Y737494D01*
X1176750Y739362D01*
D02*
G37*
G36*
X1042261Y749530D02*
X1039859D01*
X1037540Y748908D01*
X1035460Y747708D01*
X1033762Y746010D01*
X1032561Y743930D01*
X1031940Y741611D01*
Y739209D01*
X1032561Y736890D01*
X1033762Y734810D01*
X1035460Y733112D01*
X1037540Y731911D01*
X1039859Y731290D01*
X1042261D01*
X1044580Y731911D01*
X1046660Y733112D01*
X1048358Y734810D01*
X1049558Y736890D01*
X1050180Y739209D01*
Y741611D01*
X1049558Y743930D01*
X1048358Y746010D01*
X1046660Y747708D01*
X1044580Y748908D01*
X1042261Y749530D01*
D02*
G37*
G36*
X871220Y739140D02*
X862330D01*
Y730250D01*
X871220D01*
Y739140D01*
D02*
G37*
G36*
X1189090Y728490D02*
X1179949D01*
X1180177Y727344D01*
X1180965Y726165D01*
X1182144Y725377D01*
X1183535Y725100D01*
X1189090D01*
Y728490D01*
D02*
G37*
G36*
X1298470Y724800D02*
X1290700D01*
Y716280D01*
X1298470D01*
Y724800D01*
D02*
G37*
G36*
Y713740D02*
X1290700D01*
Y705220D01*
X1298470D01*
Y713740D01*
D02*
G37*
G36*
X1162050Y704850D02*
X1155918D01*
Y701974D01*
X1162050D01*
Y704850D01*
D02*
G37*
G36*
X1377200Y754940D02*
X1345200D01*
Y728691D01*
X1337310D01*
X1334990Y728230D01*
X1333024Y726916D01*
X1321348Y715240D01*
X1321037D01*
X1319040Y714705D01*
X1317250Y713672D01*
X1315788Y712210D01*
X1314755Y710420D01*
X1314220Y708423D01*
Y706357D01*
X1314755Y704360D01*
X1315788Y702570D01*
X1317250Y701108D01*
X1319040Y700075D01*
X1321037Y699540D01*
X1323103D01*
X1325100Y700075D01*
X1326890Y701108D01*
X1328352Y702570D01*
X1329385Y704360D01*
X1329920Y706357D01*
Y706668D01*
X1339821Y716569D01*
X1345200D01*
Y708810D01*
X1345083Y708224D01*
X1345200Y707639D01*
Y697940D01*
X1377200D01*
Y754940D01*
D02*
G37*
G36*
X889525Y694820D02*
X889440D01*
Y685800D01*
X898460D01*
Y685885D01*
X897759Y688502D01*
X896404Y690848D01*
X894488Y692764D01*
X892142Y694119D01*
X889525Y694820D01*
D02*
G37*
G36*
X1121192Y702594D02*
X1121192Y702594D01*
X1092418D01*
X1091337Y702379D01*
X1090421Y701767D01*
X1090421Y701767D01*
X1088933Y700279D01*
X1088321Y699363D01*
X1088106Y698282D01*
X1088106Y698282D01*
Y633630D01*
X1085454Y630978D01*
X1081681D01*
X1081681Y630978D01*
X1080600Y630763D01*
X1079683Y630151D01*
X1078006Y628473D01*
X1076334Y629438D01*
X1074236Y630000D01*
X1072064D01*
X1069966Y629438D01*
X1068084Y628352D01*
X1066548Y626816D01*
X1065462Y624934D01*
X1064900Y622836D01*
Y620664D01*
X1065462Y618566D01*
X1066548Y616684D01*
X1068084Y615148D01*
X1069966Y614062D01*
X1072064Y613500D01*
X1074236D01*
X1076334Y614062D01*
X1078216Y615148D01*
X1079752Y616684D01*
X1080838Y618566D01*
X1081400Y620664D01*
Y622836D01*
X1081233Y623459D01*
X1082856Y625329D01*
X1086623D01*
X1086624Y625329D01*
X1087704Y625544D01*
X1088621Y626157D01*
X1092927Y630463D01*
X1093539Y631379D01*
X1093754Y632460D01*
X1093754Y632460D01*
Y696946D01*
X1112196D01*
X1114680Y696810D01*
Y680810D01*
X1130680D01*
Y696810D01*
X1125504D01*
Y698282D01*
X1125289Y699363D01*
X1124677Y700279D01*
X1124677Y700279D01*
X1123189Y701767D01*
X1122273Y702379D01*
X1121192Y702594D01*
D02*
G37*
G36*
X843044Y644120D02*
X840976D01*
X838980Y643585D01*
X837190Y642552D01*
X835728Y641090D01*
X834975Y639784D01*
X830816D01*
X830427Y640367D01*
X829724Y640837D01*
X828895Y641002D01*
X824645D01*
X823816Y640837D01*
X823113Y640367D01*
X822643Y639664D01*
X822478Y638835D01*
Y635085D01*
X822643Y634256D01*
X822819Y633993D01*
X823113Y633357D01*
Y633163D01*
X820895Y630784D01*
X805476D01*
X803777Y632483D01*
X803820Y632644D01*
Y634816D01*
X803258Y636914D01*
X802172Y638796D01*
X800636Y640332D01*
X798754Y641418D01*
X796656Y641980D01*
X794484D01*
X792386Y641418D01*
X790504Y640332D01*
X788968Y638796D01*
X787882Y636914D01*
X787320Y634816D01*
Y632644D01*
X787882Y630546D01*
X788968Y628664D01*
X790504Y627128D01*
X792386Y626042D01*
X794484Y625480D01*
X796656D01*
X798754Y626042D01*
X800636Y627128D01*
X802309Y625963D01*
X803225Y625351D01*
X804306Y625136D01*
X804306Y625136D01*
X822724D01*
X823113Y624553D01*
X823816Y624083D01*
X824645Y623918D01*
X828895D01*
X829724Y624083D01*
X830427Y624553D01*
X830897Y625256D01*
X831062Y626085D01*
Y626366D01*
X835275D01*
X835275Y626366D01*
X836356Y626581D01*
X837272Y627193D01*
X839023Y628943D01*
X840976Y628420D01*
X843044D01*
X845040Y628955D01*
X846830Y629988D01*
X848292Y631450D01*
X849325Y633240D01*
X849860Y635237D01*
Y637304D01*
X849325Y639300D01*
X848292Y641090D01*
X846830Y642552D01*
X845040Y643585D01*
X843044Y644120D01*
D02*
G37*
G36*
X462280Y646403D02*
Y638810D01*
X469873D01*
X469294Y640971D01*
X468124Y642999D01*
X466469Y644654D01*
X464441Y645824D01*
X462280Y646403D01*
D02*
G37*
G36*
X468640Y758690D02*
X459870D01*
Y755974D01*
X456148D01*
X455067Y755759D01*
X454151Y755147D01*
X454151Y755147D01*
X452663Y753659D01*
X452051Y752743D01*
X451836Y751662D01*
X451836Y751662D01*
Y643454D01*
X451836Y643454D01*
X452051Y642373D01*
X452663Y641457D01*
X452881Y641239D01*
X452726Y640971D01*
X452147Y638810D01*
X459740D01*
Y646515D01*
X457484Y648428D01*
Y747238D01*
X459870Y747610D01*
Y747610D01*
X468640D01*
Y753150D01*
Y758690D01*
D02*
G37*
G36*
X459740Y636270D02*
X452147D01*
X452726Y634109D01*
X453896Y632081D01*
X455551Y630426D01*
X457579Y629256D01*
X459740Y628677D01*
Y636270D01*
D02*
G37*
G36*
X856070Y717550D02*
X848360D01*
Y709957D01*
X850521Y710536D01*
X852363Y711599D01*
X853300Y710662D01*
X853300Y710662D01*
X854217Y710050D01*
X855297Y709835D01*
X855298Y709835D01*
X874339D01*
Y686018D01*
X874339Y686018D01*
X874554Y684937D01*
X875166Y684021D01*
X876654Y682533D01*
X876654Y682533D01*
X877570Y681921D01*
X878252Y681785D01*
X878581Y680558D01*
X879936Y678212D01*
X881852Y676296D01*
X884198Y674941D01*
X885346Y674634D01*
Y643450D01*
X885346Y643450D01*
X885561Y642369D01*
X886173Y641453D01*
X903513Y624113D01*
X904429Y623501D01*
X905510Y623286D01*
X913666D01*
X914346Y620746D01*
X912802Y619854D01*
X910886Y617938D01*
X909531Y615592D01*
X908830Y612975D01*
Y612890D01*
X929410D01*
Y612975D01*
X928709Y615592D01*
X927354Y617938D01*
X925438Y619854D01*
X923092Y621209D01*
X922304Y621420D01*
Y624622D01*
X922089Y625703D01*
X921477Y626619D01*
X921477Y626619D01*
X919989Y628107D01*
X919073Y628719D01*
X917992Y628934D01*
X917992Y628934D01*
X906680D01*
X890994Y644620D01*
Y674634D01*
X892142Y674941D01*
X894488Y676296D01*
X896404Y678212D01*
X897759Y680558D01*
X898460Y683175D01*
Y683260D01*
X888170D01*
Y684530D01*
X886900D01*
Y694820D01*
X886815D01*
X884198Y694119D01*
X882527Y693154D01*
X879987Y694189D01*
Y711171D01*
X879772Y712252D01*
X879160Y713168D01*
X879160Y713168D01*
X877672Y714656D01*
X876756Y715268D01*
X875675Y715483D01*
X875675Y715483D01*
X857937D01*
X856070Y717550D01*
D02*
G37*
G36*
X883370Y620870D02*
X864870D01*
Y614444D01*
X850399D01*
X849318Y614229D01*
X848402Y613617D01*
X846830Y612262D01*
X845040Y613295D01*
X843044Y613830D01*
X840976D01*
X838980Y613295D01*
X837190Y612262D01*
X835728Y610800D01*
X834695Y609010D01*
X834160Y607014D01*
Y604947D01*
X834695Y602950D01*
X835728Y601160D01*
X837190Y599698D01*
X838980Y598665D01*
X840976Y598130D01*
X843044D01*
X845040Y598665D01*
X846830Y599698D01*
X848292Y601160D01*
X849325Y602950D01*
X849860Y604947D01*
Y607014D01*
X849845Y607071D01*
X851569Y608796D01*
X864870D01*
Y602370D01*
X871296D01*
Y555439D01*
X870550Y555240D01*
X868440Y554022D01*
X866718Y552300D01*
X865500Y550190D01*
X864870Y547838D01*
Y545402D01*
X865500Y543050D01*
X866718Y540940D01*
X868440Y539218D01*
X870550Y538000D01*
X872902Y537370D01*
X875338D01*
X877690Y538000D01*
X879800Y539218D01*
X881522Y540940D01*
X882740Y543050D01*
X883370Y545402D01*
Y547838D01*
X882740Y550190D01*
X881522Y552300D01*
X879800Y554022D01*
X877690Y555240D01*
X876944Y555439D01*
Y602370D01*
X883370D01*
Y620870D01*
D02*
G37*
G36*
X917850Y610350D02*
X908830D01*
Y610265D01*
X909531Y607648D01*
X910886Y605302D01*
X912802Y603386D01*
X915148Y602031D01*
X917765Y601330D01*
X917850D01*
Y610350D01*
D02*
G37*
G36*
X1378470Y617780D02*
X1346470D01*
Y592802D01*
X1332190D01*
X1331970Y593022D01*
X1330180Y594055D01*
X1328183Y594590D01*
X1326116D01*
X1324120Y594055D01*
X1322330Y593022D01*
X1320868Y591560D01*
X1319835Y589770D01*
X1319300Y587774D01*
Y585706D01*
X1319835Y583710D01*
X1320868Y581920D01*
X1322330Y580458D01*
X1324120Y579425D01*
X1326116Y578890D01*
X1328183D01*
X1330180Y579425D01*
X1331970Y580458D01*
X1332190Y580678D01*
X1346470D01*
Y560780D01*
X1378470D01*
Y617780D01*
D02*
G37*
G36*
X1121410Y597829D02*
X1119191Y597234D01*
X1117129Y596044D01*
X1115446Y594361D01*
X1114256Y592299D01*
X1113661Y590080D01*
X1121410D01*
Y597829D01*
D02*
G37*
G36*
X545760Y593090D02*
X536990D01*
Y588820D01*
X545760D01*
Y593090D01*
D02*
G37*
G36*
X929410Y610350D02*
X920390D01*
Y601330D01*
X920475D01*
X923092Y602031D01*
X924121Y602625D01*
X934796Y591950D01*
Y589016D01*
X933648Y588709D01*
X931302Y587354D01*
X929386Y585438D01*
X928031Y583092D01*
X927330Y580475D01*
Y580390D01*
X947910D01*
Y580475D01*
X947209Y583092D01*
X945854Y585438D01*
X943938Y587354D01*
X941592Y588709D01*
X940444Y589016D01*
Y593120D01*
X940444Y593120D01*
X940229Y594201D01*
X939617Y595117D01*
X939617Y595117D01*
X928115Y606619D01*
X928709Y607648D01*
X929410Y610265D01*
Y610350D01*
D02*
G37*
G36*
X947910Y577850D02*
X927330D01*
Y577765D01*
X928031Y575148D01*
X929386Y572802D01*
X931302Y570886D01*
X933648Y569531D01*
X934796Y569224D01*
Y566290D01*
X924121Y555615D01*
X923092Y556209D01*
X920475Y556910D01*
X920390D01*
Y547890D01*
X929410D01*
Y547975D01*
X928709Y550592D01*
X928115Y551621D01*
X939617Y563123D01*
X939617Y563123D01*
X940229Y564039D01*
X940444Y565120D01*
X940444Y565120D01*
Y569224D01*
X941592Y569531D01*
X943938Y570886D01*
X945854Y572802D01*
X947209Y575148D01*
X947910Y577765D01*
Y577850D01*
D02*
G37*
G36*
X917850Y556910D02*
X917765D01*
X915148Y556209D01*
X912802Y554854D01*
X910886Y552938D01*
X909531Y550592D01*
X908830Y547975D01*
Y547890D01*
X917850D01*
Y556910D01*
D02*
G37*
G36*
X1222882Y577561D02*
X1191148D01*
X1188828Y577100D01*
X1186862Y575786D01*
X1181654Y570578D01*
X1180340Y568612D01*
X1179879Y566292D01*
Y541020D01*
X1180340Y538700D01*
X1181654Y536734D01*
X1181813Y534724D01*
X1181648Y533895D01*
Y530145D01*
X1181813Y529316D01*
X1182283Y528613D01*
X1182986Y528143D01*
X1183815Y527978D01*
X1188065D01*
X1188894Y528143D01*
X1189597Y528613D01*
X1190067Y529316D01*
X1190232Y530145D01*
Y533895D01*
X1190067Y534724D01*
X1190226Y536734D01*
X1191540Y538700D01*
X1192001Y541020D01*
Y563782D01*
X1193658Y565438D01*
X1220372D01*
X1222029Y563782D01*
Y547730D01*
X1219600D01*
Y529230D01*
X1236100D01*
Y532419D01*
X1243359D01*
X1260438Y515340D01*
X1259386Y512800D01*
X1248780D01*
Y477800D01*
X1261780D01*
Y510406D01*
X1264320Y511458D01*
X1271559Y504219D01*
Y452218D01*
X1269902Y450561D01*
X1240868D01*
X1239582Y452789D01*
X1237068Y455303D01*
X1233990Y457080D01*
X1230556Y458000D01*
X1227002D01*
X1223568Y457080D01*
X1220490Y455303D01*
X1217976Y452789D01*
X1216199Y449711D01*
X1215279Y446277D01*
Y442723D01*
X1216199Y439289D01*
X1217976Y436211D01*
X1220490Y433697D01*
X1223568Y431920D01*
X1227002Y431000D01*
X1230556D01*
X1233990Y431920D01*
X1237068Y433697D01*
X1239582Y436211D01*
X1240868Y438438D01*
X1272412D01*
X1274732Y438900D01*
X1276698Y440214D01*
X1281906Y445422D01*
X1283220Y447388D01*
X1283681Y449708D01*
Y506730D01*
X1283220Y509050D01*
X1281906Y511016D01*
X1250156Y542766D01*
X1248536Y543848D01*
X1248578Y545247D01*
X1248959Y546389D01*
X1254559D01*
X1255976Y545571D01*
X1257972Y545036D01*
X1260039D01*
X1262036Y545571D01*
X1263826Y546604D01*
X1265287Y548066D01*
X1266321Y549856D01*
X1266856Y551852D01*
Y553919D01*
X1266321Y555916D01*
X1265287Y557706D01*
X1263826Y559167D01*
X1262036Y560201D01*
X1260039Y560736D01*
X1257972D01*
X1255976Y560201D01*
X1254186Y559167D01*
X1253530Y558512D01*
X1242820D01*
X1240500Y558050D01*
X1238534Y556736D01*
X1236498Y554700D01*
X1234152Y555672D01*
Y566292D01*
X1233690Y568612D01*
X1232376Y570578D01*
X1227168Y575786D01*
X1225202Y577100D01*
X1222882Y577561D01*
D02*
G37*
G36*
X929410Y545350D02*
X908830D01*
Y545265D01*
X909531Y542648D01*
X910886Y540302D01*
X912802Y538386D01*
X915148Y537031D01*
X916931Y536554D01*
Y523556D01*
X916418Y523419D01*
X914072Y522064D01*
X912156Y520148D01*
X910801Y517802D01*
X910100Y515185D01*
Y515100D01*
X930680D01*
Y515185D01*
X929979Y517802D01*
X928624Y520148D01*
X926708Y522064D01*
X924362Y523419D01*
X922579Y523896D01*
Y536894D01*
X923092Y537031D01*
X925438Y538386D01*
X927354Y540302D01*
X928709Y542648D01*
X929410Y545265D01*
Y545350D01*
D02*
G37*
G36*
X919120Y512560D02*
X910100D01*
Y512475D01*
X910801Y509858D01*
X912156Y507512D01*
X914072Y505596D01*
X916418Y504241D01*
X919035Y503540D01*
X919120D01*
Y512560D01*
D02*
G37*
G36*
X1474200Y754940D02*
X1442200D01*
Y697940D01*
X1467670D01*
X1468255Y697823D01*
X1474244D01*
X1475901Y696167D01*
Y620141D01*
X1475470Y617780D01*
X1443470D01*
Y560780D01*
X1453409D01*
Y524816D01*
X1453870Y522497D01*
X1455184Y520530D01*
X1483430Y492284D01*
X1485397Y490970D01*
X1487716Y490508D01*
X1621662D01*
X1623982Y490970D01*
X1625948Y492284D01*
X1631156Y497492D01*
X1632470Y499458D01*
X1632932Y501778D01*
Y532553D01*
X1634672Y534293D01*
X1635956Y536517D01*
X1636620Y538996D01*
Y541564D01*
X1635956Y544043D01*
X1634672Y546267D01*
X1632857Y548082D01*
X1630633Y549366D01*
X1628154Y550030D01*
X1625586D01*
X1623107Y549366D01*
X1620883Y548082D01*
X1619068Y546267D01*
X1617784Y544043D01*
X1617120Y541564D01*
Y538996D01*
X1617784Y536517D01*
X1619068Y534293D01*
X1620809Y532553D01*
Y504288D01*
X1619152Y502631D01*
X1492160D01*
X1491775Y503209D01*
X1493132Y505748D01*
X1527682D01*
X1530002Y506210D01*
X1531968Y507524D01*
X1537176Y512732D01*
X1538490Y514698D01*
X1538952Y517018D01*
Y534408D01*
X1539435Y535247D01*
X1540100Y537726D01*
Y540294D01*
X1539435Y542773D01*
X1538152Y544997D01*
X1536337Y546812D01*
X1534113Y548096D01*
X1531634Y548760D01*
X1529066D01*
X1526587Y548096D01*
X1524363Y546812D01*
X1522548Y544997D01*
X1521264Y542773D01*
X1520600Y540294D01*
Y537726D01*
X1521264Y535247D01*
X1522548Y533023D01*
X1524363Y531208D01*
X1526587Y529925D01*
X1526828Y529860D01*
Y519528D01*
X1525172Y517872D01*
X1489681D01*
X1488024Y519528D01*
Y698677D01*
X1487562Y700997D01*
X1486248Y702963D01*
X1481041Y708171D01*
X1479074Y709485D01*
X1476755Y709947D01*
X1474200D01*
Y754940D01*
D02*
G37*
G36*
X930680Y512560D02*
X921660D01*
Y503540D01*
X921745D01*
X924362Y504241D01*
X925391Y504835D01*
X934999Y495227D01*
Y490940D01*
X934918Y490919D01*
X932572Y489564D01*
X930656Y487648D01*
X929301Y485302D01*
X928600Y482685D01*
Y482600D01*
X949180D01*
Y482685D01*
X948479Y485302D01*
X947124Y487648D01*
X945208Y489564D01*
X942862Y490919D01*
X940647Y491512D01*
Y496397D01*
X940647Y496397D01*
X940432Y497478D01*
X939820Y498394D01*
X939820Y498394D01*
X929385Y508829D01*
X929979Y509858D01*
X930680Y512475D01*
Y512560D01*
D02*
G37*
G36*
X469839Y542040D02*
X464881D01*
X459984Y541264D01*
X455268Y539732D01*
X450850Y537481D01*
X446839Y534567D01*
X443333Y531061D01*
X440419Y527050D01*
X438168Y522632D01*
X436636Y517916D01*
X435860Y513019D01*
Y508061D01*
X436636Y503164D01*
X438168Y498448D01*
X440419Y494030D01*
X443333Y490019D01*
X446839Y486513D01*
X450850Y483599D01*
X455268Y481348D01*
X459984Y479816D01*
X464881Y479040D01*
X469839D01*
X474736Y479816D01*
X479452Y481348D01*
X483870Y483599D01*
X487881Y486513D01*
X491387Y490019D01*
X494301Y494030D01*
X496552Y498448D01*
X498084Y503164D01*
X498860Y508061D01*
Y513019D01*
X498084Y517916D01*
X496552Y522632D01*
X494301Y527050D01*
X491387Y531061D01*
X487881Y534567D01*
X483870Y537481D01*
X479452Y539732D01*
X474736Y541264D01*
X469839Y542040D01*
D02*
G37*
G36*
X1138134Y567215D02*
X1136067D01*
X1134071Y566680D01*
X1132281Y565646D01*
X1130819Y564185D01*
X1129786Y562395D01*
X1129251Y560398D01*
Y558331D01*
X1129786Y556335D01*
X1130819Y554545D01*
X1132281Y553083D01*
X1134071Y552049D01*
X1135661Y551623D01*
X1136067Y551515D01*
X1136009Y549126D01*
X1135655Y549000D01*
X1124590D01*
Y530500D01*
X1129083D01*
Y525908D01*
X1129545Y523588D01*
X1130859Y521622D01*
X1136067Y516414D01*
X1138033Y515100D01*
X1140353Y514638D01*
X1149956D01*
X1152260Y514070D01*
Y479070D01*
X1163432D01*
X1163563Y476530D01*
X1159185Y472151D01*
X1153160D01*
X1150840Y471690D01*
X1148874Y470376D01*
X1133655Y455157D01*
X1133509Y455303D01*
X1130431Y457080D01*
X1126997Y458000D01*
X1123443D01*
X1120009Y457080D01*
X1116931Y455303D01*
X1114417Y452789D01*
X1112640Y449711D01*
X1111720Y446277D01*
Y442723D01*
X1112640Y439289D01*
X1114417Y436211D01*
X1116931Y433697D01*
X1120009Y431920D01*
X1123443Y431000D01*
X1126997D01*
X1130431Y431920D01*
X1133509Y433697D01*
X1136023Y436211D01*
X1137800Y439289D01*
X1138720Y442723D01*
Y443078D01*
X1155671Y460028D01*
X1160780D01*
X1163100Y460490D01*
X1165066Y461804D01*
X1166380Y463770D01*
X1166445Y464099D01*
X1169267Y466921D01*
X1171951Y466012D01*
X1172117Y464764D01*
X1168382Y461028D01*
X1167208Y459272D01*
X1166796Y457200D01*
X1166796Y457200D01*
Y377376D01*
X1166610Y377097D01*
X1166149Y374778D01*
X1166610Y372458D01*
X1167924Y370492D01*
X1174402Y364014D01*
X1176368Y362700D01*
X1178688Y362239D01*
X1215222D01*
X1215472Y360342D01*
X1216228Y358518D01*
X1217430Y356951D01*
X1218997Y355749D01*
X1220821Y354993D01*
X1222779Y354735D01*
X1234779D01*
X1236737Y354993D01*
X1238561Y355749D01*
X1240128Y356951D01*
X1241330Y358518D01*
X1242086Y360342D01*
X1242344Y362300D01*
Y374300D01*
X1242086Y376258D01*
X1241330Y378082D01*
X1240128Y379649D01*
X1238561Y380851D01*
X1236737Y381607D01*
X1234779Y381865D01*
X1222779D01*
X1220821Y381607D01*
X1218997Y380851D01*
X1217430Y379649D01*
X1216228Y378082D01*
X1215472Y376258D01*
X1215222Y374361D01*
X1181198D01*
X1177624Y377936D01*
Y454957D01*
X1182018Y459352D01*
X1182018Y459352D01*
X1183192Y461108D01*
X1183604Y463180D01*
X1183604Y463180D01*
Y489886D01*
X1186780D01*
Y477800D01*
X1199780D01*
Y511566D01*
X1200121Y513063D01*
X1201704Y514288D01*
X1202409Y514428D01*
X1204166Y515602D01*
X1209373Y520809D01*
X1209373Y520809D01*
X1210547Y522566D01*
X1210959Y524638D01*
X1210959Y524638D01*
Y529230D01*
X1216100D01*
Y547730D01*
X1214883D01*
X1213472Y550270D01*
X1213815Y550865D01*
X1214350Y552862D01*
Y554929D01*
X1213815Y556925D01*
X1212782Y558715D01*
X1211320Y560177D01*
X1209530Y561210D01*
X1207533Y561745D01*
X1205467D01*
X1203470Y561210D01*
X1201680Y560177D01*
X1200218Y558715D01*
X1199185Y556925D01*
X1198650Y554929D01*
Y552862D01*
X1199185Y550865D01*
X1199542Y550246D01*
X1199600Y547730D01*
X1199600D01*
Y529230D01*
X1199672D01*
X1199941Y526690D01*
X1198095Y524844D01*
X1185268D01*
X1185268Y524844D01*
X1183196Y524432D01*
X1181439Y523258D01*
X1181439Y523258D01*
X1176597Y518416D01*
X1174256Y519667D01*
X1174462Y520700D01*
X1174000Y523020D01*
X1172686Y524986D01*
X1170720Y526300D01*
X1168400Y526762D01*
X1160125D01*
X1159355Y529301D01*
X1159357Y529303D01*
X1159827Y530006D01*
X1159992Y530835D01*
Y534585D01*
X1159827Y535414D01*
X1159986Y537424D01*
X1161300Y539390D01*
X1161761Y541710D01*
Y554282D01*
X1161300Y556602D01*
X1159986Y558568D01*
X1154778Y563776D01*
X1152812Y565090D01*
X1150492Y565551D01*
X1142015D01*
X1141921Y565646D01*
X1140131Y566680D01*
X1138134Y567215D01*
D02*
G37*
G36*
X949180Y480060D02*
X928600D01*
Y479975D01*
X929301Y477358D01*
X930656Y475012D01*
X932572Y473096D01*
X934918Y471741D01*
X936066Y471434D01*
Y468500D01*
X925391Y457825D01*
X924362Y458419D01*
X921745Y459120D01*
X921660D01*
Y450100D01*
X930680D01*
Y450185D01*
X929979Y452802D01*
X929385Y453831D01*
X940887Y465333D01*
X940887Y465333D01*
X941499Y466249D01*
X941714Y467330D01*
X941714Y467330D01*
Y471434D01*
X942862Y471741D01*
X945208Y473096D01*
X947124Y475012D01*
X948479Y477358D01*
X949180Y479975D01*
Y480060D01*
D02*
G37*
G36*
X919120Y459120D02*
X919035D01*
X916418Y458419D01*
X914072Y457064D01*
X912156Y455148D01*
X910801Y452802D01*
X910100Y450185D01*
Y450100D01*
X919120D01*
Y459120D01*
D02*
G37*
G36*
X930680Y447560D02*
X921660D01*
Y438540D01*
X921745D01*
X924362Y439241D01*
X926708Y440596D01*
X928624Y442512D01*
X929979Y444858D01*
X930680Y447475D01*
Y447560D01*
D02*
G37*
G36*
X919120D02*
X910100D01*
Y447475D01*
X910801Y444858D01*
X912156Y442512D01*
X914072Y440596D01*
X916418Y439241D01*
X919035Y438540D01*
X919120D01*
Y447560D01*
D02*
G37*
G36*
X1654749Y477270D02*
X1649791D01*
X1644894Y476494D01*
X1640178Y474962D01*
X1635760Y472711D01*
X1631749Y469797D01*
X1628243Y466291D01*
X1625329Y462280D01*
X1623078Y457862D01*
X1621546Y453146D01*
X1620770Y448249D01*
Y443291D01*
X1621546Y438394D01*
X1623078Y433678D01*
X1625329Y429260D01*
X1628243Y425249D01*
X1631749Y421743D01*
X1635760Y418829D01*
X1640178Y416578D01*
X1644894Y415046D01*
X1649791Y414270D01*
X1654749D01*
X1659646Y415046D01*
X1664362Y416578D01*
X1668780Y418829D01*
X1672791Y421743D01*
X1676297Y425249D01*
X1679211Y429260D01*
X1681462Y433678D01*
X1682994Y438394D01*
X1683770Y443291D01*
Y448249D01*
X1682994Y453146D01*
X1681462Y457862D01*
X1679211Y462280D01*
X1676297Y466291D01*
X1672791Y469797D01*
X1668780Y472711D01*
X1664362Y474962D01*
X1659646Y476494D01*
X1654749Y477270D01*
D02*
G37*
%LPD*%
G36*
X1329978Y766992D02*
Y744318D01*
X1328322Y742662D01*
X1243250D01*
X1242344Y743405D01*
Y744002D01*
X1242129Y745083D01*
X1242047Y745206D01*
X1242293Y746206D01*
X1242903Y747332D01*
X1243334Y747746D01*
X1252002D01*
X1252002Y747746D01*
X1253083Y747961D01*
X1253999Y748573D01*
X1255487Y750061D01*
X1255487Y750061D01*
X1256099Y750977D01*
X1256314Y752058D01*
Y763052D01*
X1256730Y763559D01*
X1320442D01*
X1322762Y764020D01*
X1324728Y765334D01*
X1327439Y768044D01*
X1329978Y766992D01*
D02*
G37*
G36*
X674146Y969130D02*
X668563Y963547D01*
X667951Y962631D01*
X667736Y961550D01*
X667736Y961550D01*
Y952608D01*
X666642Y951514D01*
X658078D01*
X656997Y951299D01*
X656081Y950687D01*
X656081Y950687D01*
X654593Y949199D01*
X653981Y948283D01*
X653766Y947202D01*
X653766Y947202D01*
Y934938D01*
X653766Y934938D01*
X653981Y933857D01*
X654593Y932941D01*
X656081Y931453D01*
X656081Y931453D01*
X656997Y930841D01*
X658078Y930626D01*
X661104D01*
Y927088D01*
X672028D01*
Y929978D01*
X682933D01*
X684257Y930242D01*
X684790Y929708D01*
X686580Y928675D01*
X688577Y928140D01*
X690643D01*
X692640Y928675D01*
X694430Y929708D01*
X695368Y930646D01*
X697857Y929782D01*
X698955Y927639D01*
X694268Y922952D01*
X659298D01*
X651172Y931078D01*
Y957252D01*
X665590Y971670D01*
X673094D01*
X674146Y969130D01*
D02*
G37*
G36*
X1077220Y750638D02*
X1079010Y749605D01*
X1081006Y749070D01*
X1083074D01*
X1085070Y749605D01*
X1086860Y750638D01*
X1087221Y751000D01*
X1091298Y746923D01*
X1092215Y746311D01*
X1093295Y746096D01*
X1093295Y746096D01*
X1095435D01*
X1097556Y743559D01*
X1097490Y743019D01*
X1096574Y742407D01*
X1096574Y742407D01*
X1092911Y738744D01*
X1075330D01*
X1074249Y738529D01*
X1073882Y738284D01*
X1072112Y738922D01*
X1071362Y739539D01*
Y746230D01*
X1074050D01*
Y750216D01*
X1076590Y751268D01*
X1077220Y750638D01*
D02*
G37*
G36*
X1178276Y708878D02*
X1178276Y708878D01*
X1178491Y707797D01*
X1179103Y706881D01*
X1180591Y705393D01*
X1180591Y705393D01*
X1181140Y705026D01*
X1181507Y704781D01*
X1182588Y704566D01*
X1265810D01*
X1265810Y704566D01*
X1266891Y704781D01*
X1267807Y705393D01*
X1268674Y706260D01*
X1280390D01*
Y705220D01*
X1282416D01*
Y682274D01*
X1192087D01*
X1191924Y682881D01*
X1190754Y684909D01*
X1189099Y686564D01*
X1187071Y687734D01*
X1186464Y687897D01*
Y689426D01*
X1186464Y689426D01*
X1186249Y690507D01*
X1185637Y691423D01*
X1170722Y706338D01*
Y710266D01*
X1169682D01*
Y713444D01*
X1170964Y714726D01*
X1178276D01*
Y708878D01*
D02*
G37*
G36*
X1157956Y589030D02*
Y582830D01*
X1154530Y579404D01*
X1129522D01*
X1128907Y580438D01*
X1128599Y581944D01*
X1129914Y583259D01*
X1131104Y585321D01*
X1131282Y585986D01*
X1150150D01*
X1150150Y585986D01*
X1151231Y586201D01*
X1152147Y586813D01*
X1155416Y590082D01*
X1157956Y589030D01*
D02*
G37*
G36*
X566136Y822226D02*
Y820420D01*
X566136Y820420D01*
X566351Y819339D01*
X566963Y818423D01*
X572839Y812547D01*
X573059Y812400D01*
X572288Y809860D01*
X568720D01*
Y809860D01*
X567720D01*
Y809860D01*
X558720D01*
Y804984D01*
X533220D01*
X532072Y804508D01*
X531596Y803360D01*
Y788860D01*
X526720D01*
Y779860D01*
X526720D01*
Y778860D01*
X526720D01*
Y769860D01*
X526720D01*
Y768860D01*
X526720D01*
Y759860D01*
X526720D01*
Y758860D01*
X526720D01*
Y749860D01*
X526720D01*
Y748860D01*
X526720D01*
Y739860D01*
X526720D01*
Y738860D01*
X526720D01*
Y729860D01*
X526720D01*
Y728860D01*
X526720D01*
Y719860D01*
X526720D01*
Y718860D01*
X526720D01*
Y709860D01*
X526720D01*
Y708860D01*
X526720D01*
Y699860D01*
X526720D01*
Y698860D01*
X526720D01*
Y689860D01*
X526720D01*
Y688860D01*
X526720D01*
Y679860D01*
X526720D01*
Y678860D01*
X526720D01*
Y669860D01*
X525485Y667832D01*
X522031D01*
Y672491D01*
X519726D01*
Y760512D01*
X519462Y761841D01*
X518710Y762967D01*
X517222Y764455D01*
X516096Y765207D01*
X514767Y765472D01*
X512092D01*
Y809328D01*
X537760D01*
X539089Y809593D01*
X540215Y810345D01*
X540967Y811471D01*
X541232Y812800D01*
Y821060D01*
X546010D01*
X546010Y821060D01*
X548485Y820903D01*
X548900Y820488D01*
X550690Y819455D01*
X552687Y818920D01*
X554753D01*
X556750Y819455D01*
X558540Y820488D01*
X560002Y821950D01*
X561035Y823740D01*
X561049Y823792D01*
X561471Y824076D01*
X563867Y824495D01*
X566136Y822226D01*
D02*
G37*
G36*
X526720Y658860D02*
Y649860D01*
X526720D01*
Y648860D01*
X526720D01*
Y639860D01*
X526720D01*
Y638860D01*
X526720D01*
Y629860D01*
X526720D01*
X526720Y628860D01*
X526720D01*
Y621400D01*
X526720Y619860D01*
X526720Y617320D01*
Y611400D01*
X526720Y609860D01*
X526720Y607320D01*
Y599900D01*
X525680D01*
Y597184D01*
X515097D01*
X514763Y599724D01*
X514840Y599745D01*
X516630Y600778D01*
X518092Y602240D01*
X519125Y604030D01*
X519660Y606026D01*
Y608093D01*
X519125Y610090D01*
X518092Y611880D01*
X516630Y613342D01*
X515282Y614120D01*
Y633069D01*
X515704Y633491D01*
X516456Y634617D01*
X516720Y635945D01*
Y655854D01*
X516771Y655929D01*
X522031D01*
Y660888D01*
X525485D01*
X526720Y658860D01*
D02*
G37*
G36*
X820076Y799493D02*
X821664Y797440D01*
X821418Y796205D01*
Y795600D01*
X826770D01*
Y794330D01*
X828040D01*
Y789066D01*
X844266Y772840D01*
Y740410D01*
Y727267D01*
X843659Y727104D01*
X841631Y725934D01*
X839976Y724279D01*
X839754Y723894D01*
X837214Y724575D01*
Y732902D01*
X836999Y733983D01*
X836387Y734899D01*
X828522Y742765D01*
Y743665D01*
X828357Y744494D01*
X827887Y745197D01*
X827184Y745667D01*
X826355Y745832D01*
X825994D01*
Y777030D01*
X825779Y778111D01*
X825167Y779027D01*
X825167Y779027D01*
X816894Y787300D01*
Y797660D01*
X818722Y799488D01*
X819694Y799608D01*
X820076Y799493D01*
D02*
G37*
%LPC*%
G36*
X825500Y793060D02*
X821418D01*
Y792455D01*
X821664Y791220D01*
X822363Y790173D01*
X823410Y789474D01*
X824645Y789228D01*
X825500D01*
Y793060D01*
D02*
G37*
%LPD*%
G36*
X1475470Y560780D02*
X1475901Y558419D01*
Y520550D01*
X1473361Y519498D01*
X1465531Y527327D01*
Y560780D01*
X1475470D01*
D02*
G37*
D15*
X718294Y614154D02*
X739666D01*
X744220Y609600D01*
X454660Y751662D02*
X456148Y753150D01*
X469910D01*
X460574Y637540D02*
X461010D01*
X454660Y643454D02*
Y751662D01*
Y643454D02*
X460574Y637540D01*
X461010D02*
X504190Y594360D01*
X1530251Y764109D02*
X1530350Y764010D01*
X1239520Y732870D02*
Y736600D01*
Y744002D01*
X982330Y944840D02*
X983560Y943610D01*
X993407Y953770D02*
X1000501D01*
X1006130D01*
X1009650Y960039D02*
Y961390D01*
X1006130Y956519D02*
X1009650Y960039D01*
X1006130Y953770D02*
Y956519D01*
Y953770D02*
X1020390D01*
X1025030Y1114295D02*
X1032510Y1106815D01*
X946150Y1132840D02*
Y1134110D01*
X1179612Y717550D02*
X1181100Y716062D01*
Y708878D02*
Y716062D01*
X1169794Y717550D02*
X1179612D01*
X1166586Y714342D02*
X1169794Y717550D01*
X1166250Y710832D02*
X1166586Y711169D01*
X1163320Y710832D02*
X1166250D01*
X1166586Y711169D02*
Y714342D01*
X1203040Y827260D02*
X1222950Y847170D01*
X1115620Y788260D02*
X1115880Y788000D01*
X1060685Y820765D02*
Y829695D01*
X1094081Y735920D02*
X1115960D01*
X750885Y859945D02*
Y864715D01*
X1167282Y705784D02*
X1183640Y689426D01*
X1166735Y705961D02*
X1166912Y705784D01*
X1183640Y679450D02*
Y689426D01*
X1166912Y705784D02*
X1167282D01*
X826770Y636960D02*
X840301D01*
X841673Y635588D01*
X828000Y629190D02*
X835275D01*
X841673Y635588D01*
X840740Y680720D02*
X843280D01*
X833120Y673100D02*
X840740Y680720D01*
X824866Y742426D02*
X834390Y732902D01*
X826770Y627960D02*
X828000Y629190D01*
X804306Y627960D02*
X826770D01*
X1252670Y848440D02*
X1268670D01*
X1222950Y847170D02*
X1225306D01*
X1251400D01*
X1096810Y889709D02*
Y892810D01*
X1146810D01*
X1251400Y847170D02*
X1252670Y848440D01*
X1094000Y886899D02*
X1096810Y889709D01*
X1066110Y840378D02*
Y854130D01*
X1064260Y855980D02*
X1066110Y854130D01*
X1061030Y850001D02*
X1064260Y853231D01*
X1094000Y826920D02*
Y886899D01*
X1082720Y838200D02*
X1089628Y831292D01*
Y827700D02*
Y831292D01*
X1066110Y840378D02*
X1068288Y838200D01*
X1082720D01*
X1190360Y827260D02*
X1203040D01*
X1101507D02*
X1115960D01*
X1089628Y827700D02*
X1090408Y826920D01*
X1094000D01*
X1096107Y821860D02*
X1101507Y827260D01*
X1097207Y820760D02*
X1115960D01*
X1095007Y822960D02*
X1096107Y821860D01*
X1097207Y820760D01*
X1071838Y827830D02*
X1072748Y826920D01*
X1071260Y827830D02*
X1071838D01*
X1072748Y826920D02*
X1079500D01*
X1070030Y829060D02*
Y829310D01*
Y829060D02*
X1071260Y827830D01*
X1084727Y820420D02*
X1087267Y822960D01*
X1079500Y826920D02*
X1090408D01*
X1087267Y822960D02*
X1095007D01*
X1069340Y820420D02*
X1079500D01*
X1084727D01*
X1064260Y853231D02*
Y855980D01*
X1054972D02*
X1064260D01*
X1061030Y830580D02*
Y850001D01*
X1047352Y863600D02*
X1054972Y855980D01*
X1046040Y863600D02*
X1047352D01*
X1059800Y830580D02*
X1060685Y829695D01*
X1061030Y829350D01*
Y829310D02*
Y829350D01*
X1060340Y820420D02*
X1060685Y820765D01*
X995028Y830580D02*
X1059800D01*
X993540Y829092D02*
X995028Y830580D01*
X1190620Y736000D02*
X1202020D01*
X1205230Y717550D02*
Y732790D01*
X1202020Y736000D02*
X1205230Y732790D01*
X1196160Y729760D02*
X1203286Y722634D01*
Y719494D02*
Y722634D01*
X1190360Y729760D02*
X1196160D01*
X1190360Y736260D02*
X1190620Y736000D01*
X1285240Y680938D02*
Y710820D01*
X1289430Y715010D01*
X1203286Y719494D02*
X1205230Y717550D01*
X1283752Y679450D02*
X1285240Y680938D01*
X1183640Y679450D02*
X1283752D01*
X1175355Y673914D02*
X1180891Y679450D01*
X1155700D02*
X1180891D01*
X1163082Y673914D02*
X1175355D01*
X1160780Y671612D02*
X1163082Y673914D01*
X1155700Y594360D02*
Y679450D01*
X1122680Y588810D02*
X1150150D01*
X1160780Y581660D02*
Y671612D01*
X1155700Y576580D02*
X1160780Y581660D01*
X1093470Y576580D02*
X1155700D01*
X1150150Y588810D02*
X1155700Y594360D01*
X1101758Y790760D02*
X1104257Y788260D01*
X1115620D01*
X1079500Y820420D02*
Y826920D01*
X1074645Y791546D02*
X1075432Y790760D01*
X1101758D01*
X1068538Y729930D02*
Y750992D01*
X993540Y815340D02*
Y829092D01*
X980440Y815340D02*
Y830580D01*
Y815340D02*
X993540D01*
X1066800Y791546D02*
X1074645D01*
X1064260Y755270D02*
X1068538Y750992D01*
X1110160Y742760D02*
X1115960D01*
X1115520Y748480D02*
X1115960Y748920D01*
X1107245Y748480D02*
X1115520D01*
X1109380Y741980D02*
X1110160Y742760D01*
X1109380Y741898D02*
Y741980D01*
X1107892Y740410D02*
X1109380Y741898D01*
X1099175Y740410D02*
X1107892D01*
X1099175D02*
X1107245Y748480D01*
X1098571Y740410D02*
X1099175D01*
X1094081Y735920D02*
X1098571Y740410D01*
X1075330Y735920D02*
X1094081D01*
X1069340Y729930D02*
X1075330Y735920D01*
X1069340Y727122D02*
Y727710D01*
X1062450Y720232D02*
X1069340Y727122D01*
X1056640Y699770D02*
X1062450Y705580D01*
X1056640Y613410D02*
X1093470Y576580D01*
X1062450Y705580D02*
Y720232D01*
X1056640Y613410D02*
Y699770D01*
X905510Y925830D02*
X916940Y937260D01*
X885190Y925830D02*
X905510D01*
X882650D02*
X885190D01*
X889000Y863160D02*
X889440Y863600D01*
X796810Y901700D02*
X851340D01*
X885190Y867850D01*
X889000Y849630D02*
X919480Y819150D01*
X889000Y849630D02*
Y863160D01*
X730600Y867060D02*
X748540D01*
X720090Y877570D02*
X730600Y867060D01*
X748540D02*
X750885Y864715D01*
X718820Y978961D02*
Y981710D01*
X713486Y973627D02*
X718820Y978961D01*
X713486Y956564D02*
Y973627D01*
Y910336D02*
X717296D01*
X720090Y877570D02*
Y878730D01*
X713486Y885334D02*
X720090Y878730D01*
X713486Y885334D02*
Y910336D01*
X608330Y902970D02*
X609600Y904240D01*
X557530Y895132D02*
X565368Y902970D01*
X608330D01*
X557530Y872490D02*
Y895132D01*
X586600Y846240D02*
X609600D01*
X581660Y826555D02*
Y829092D01*
X580172Y830580D02*
X581660Y829092D01*
Y826555D02*
X581996Y826218D01*
X582930D01*
Y821506D02*
Y826218D01*
X557530Y858520D02*
Y872490D01*
Y858520D02*
X569810Y846240D01*
X570230Y830580D02*
X580172D01*
X569810Y846240D02*
X586600D01*
X569810D02*
X570230Y845820D01*
Y830580D02*
Y845820D01*
X919480Y796290D02*
Y819150D01*
Y790158D02*
X920968Y788670D01*
X934940D01*
X919480Y790158D02*
Y796290D01*
X888170Y643450D02*
X905510Y626110D01*
X871220Y796290D02*
X919480D01*
X855297Y712659D02*
X875675D01*
X877163Y711171D01*
X869260Y794330D02*
X871220Y796290D01*
X827020Y794330D02*
X869260D01*
X878651Y684530D02*
X888170D01*
Y643450D02*
Y684530D01*
X877163Y686018D02*
Y711171D01*
Y686018D02*
X878651Y684530D01*
X937620Y565120D02*
Y579120D01*
X920390Y513830D02*
X937823Y496397D01*
X937620Y579120D02*
Y593120D01*
X919755Y514465D02*
Y545985D01*
Y514465D02*
X920390Y513830D01*
X938890Y467330D02*
Y481330D01*
X920390Y448830D02*
X938890Y467330D01*
X937823Y482397D02*
Y496397D01*
Y482397D02*
X938890Y481330D01*
X919120Y611620D02*
X919480Y611980D01*
X919120Y611620D02*
X937620Y593120D01*
X917992Y626110D02*
X919480Y624622D01*
X905510Y626110D02*
X917992D01*
X919480Y611980D02*
Y624622D01*
X919120Y546620D02*
X937620Y565120D01*
X919120Y546620D02*
X919755Y545985D01*
X828250Y792850D02*
Y793100D01*
X827020Y794330D02*
X828250Y793100D01*
Y792850D02*
X847090Y774010D01*
X826770Y794330D02*
X827020D01*
X847090Y740410D02*
X861060D01*
X847090Y718820D02*
Y740410D01*
X699770Y758910D02*
Y779780D01*
X847090Y740410D02*
Y774010D01*
X680720Y744360D02*
X685220D01*
X699770Y758910D01*
X847090Y718820D02*
X849137D01*
X847090D02*
X848700Y720430D01*
X849137Y718820D02*
X855297Y712659D01*
X504190Y594360D02*
X535720D01*
X696680Y730250D02*
X704300Y737870D01*
X693420Y665698D02*
Y728762D01*
X691932Y664210D02*
X693420Y665698D01*
X680870Y664210D02*
X691932D01*
X693420Y728762D02*
X694908Y730250D01*
X680720Y664360D02*
X680870Y664210D01*
X694908Y730250D02*
X696680D01*
X680720Y644360D02*
X681190Y643890D01*
X693202D01*
X694690Y645378D01*
Y656590D01*
X696830Y658730D01*
X700090D01*
X705570Y664210D01*
X634088Y827856D02*
X641350D01*
X632600Y829344D02*
X634088Y827856D01*
X641350Y823144D02*
Y827856D01*
X632600Y829344D02*
Y846240D01*
X642216Y801864D02*
Y822076D01*
Y801864D02*
X643220Y800860D01*
X601817Y802263D02*
Y810265D01*
Y802263D02*
X603220Y800860D01*
X850399Y611620D02*
X874120D01*
X844759Y605980D02*
X850399Y611620D01*
X874120Y546620D02*
Y611620D01*
X842010Y605980D02*
X844759D01*
X553720Y853440D02*
X565150Y842010D01*
X478790Y853440D02*
X553720D01*
X477520Y854710D02*
X478790Y853440D01*
X477520Y853080D02*
Y854710D01*
X463910Y839470D02*
X477520Y853080D01*
X448310Y839470D02*
X463910D01*
X568960Y820420D02*
X574836Y814544D01*
X597538D01*
X568960Y820420D02*
Y823396D01*
X597538Y814544D02*
X601817Y810265D01*
X448310Y829860D02*
Y839470D01*
X565150Y827206D02*
Y842010D01*
Y827206D02*
X568960Y823396D01*
X447760Y829310D02*
X448310Y829860D01*
X1190884Y748736D02*
X1199444D01*
X1207230Y740950D02*
X1212610D01*
X1199444Y748736D02*
X1207230Y740950D01*
X1190360Y749260D02*
X1190884Y748736D01*
X1203960Y755650D02*
X1214120Y745490D01*
X1238032D01*
X1209040Y756991D02*
X1215461Y750570D01*
X1252002D01*
X1212610Y740950D02*
X1219520Y734040D01*
X1182588Y707390D02*
X1265810D01*
X1267450Y709030D01*
X1181100Y708878D02*
X1182588Y707390D01*
X1273430Y714260D02*
Y715010D01*
X1267450Y709030D02*
X1268200D01*
X1273430Y714260D01*
X1132840Y539750D02*
X1134110Y538480D01*
X1359930Y586740D02*
X1362470Y589280D01*
X1244360Y794920D02*
X1249462D01*
X1250950Y796408D02*
Y801152D01*
X1240630Y791190D02*
X1244360Y794920D01*
X1249462Y802640D02*
X1250950Y801152D01*
X1240630Y789940D02*
Y791190D01*
X1249462Y794920D02*
X1250950Y796408D01*
X1240630Y789940D02*
X1251110D01*
X1253650Y792480D01*
X1267620D01*
X1212850Y802640D02*
X1249462D01*
X1205230Y795020D02*
X1212850Y802640D01*
X1190620Y795020D02*
X1205230D01*
X1190360Y794760D02*
X1190620Y795020D01*
X1239520Y732790D02*
Y732870D01*
X1243250Y736600D01*
X1190360Y755760D02*
X1190470Y755650D01*
X1238032Y745490D02*
X1239520Y744002D01*
X1190470Y755650D02*
X1203960D01*
X1227850Y538480D02*
X1228090Y538720D01*
X1257062Y554830D02*
X1259006Y552886D01*
X1233330Y544960D02*
X1235330D01*
X1228090Y538720D02*
X1228330Y538480D01*
X1228090Y539720D02*
X1233330Y544960D01*
X1228090Y538720D02*
Y539720D01*
X1244360Y769520D02*
X1245748D01*
X1240630Y764540D02*
Y765790D01*
X1244360Y769520D01*
X1245748D02*
X1245848Y769620D01*
X1240630Y764540D02*
X1252002D01*
X1253490Y763052D01*
X1252002Y750570D02*
X1253490Y752058D01*
Y763052D01*
X1190360Y768760D02*
X1190770Y768350D01*
X1201420D02*
X1209040Y760730D01*
X1190770Y768350D02*
X1201420D01*
X1209040Y756991D02*
Y760730D01*
X1253490Y809208D02*
Y819150D01*
X1252002Y807720D02*
X1253490Y809208D01*
X1240630Y821690D02*
X1241900Y822960D01*
X1250950Y821690D02*
X1253490Y819150D01*
X1241900Y822960D02*
X1267460D01*
X1190400Y807720D02*
X1252002D01*
X1190360Y807760D02*
X1190400Y807720D01*
X1112520Y539430D02*
X1112840Y539750D01*
X1115180Y754980D02*
X1115960Y755760D01*
X1107325Y754980D02*
X1115180D01*
X1101265Y748920D02*
X1107325Y754980D01*
X1093295Y748920D02*
X1101265D01*
X1087239Y754976D02*
X1093295Y748920D01*
X1083984Y754976D02*
X1087239D01*
X1082040Y756920D02*
X1083984Y754976D01*
X1044770Y706950D02*
X1052830Y715010D01*
X1044770Y684530D02*
Y706950D01*
X1103749Y762260D02*
X1115960D01*
X1100029Y758540D02*
X1103749Y762260D01*
X1097280Y758540D02*
X1100029D01*
X704850Y695410D02*
Y716280D01*
Y695410D02*
X705570Y694690D01*
X1098083Y781450D02*
X1115650D01*
X1072512Y800100D02*
X1077313Y795300D01*
X1103638D01*
X1104178Y794760D01*
X1115650Y781450D02*
X1115960Y781760D01*
X1097773Y781140D02*
X1098083Y781450D01*
X1083310Y775970D02*
Y778510D01*
Y775970D02*
X1090520Y768760D01*
X1104178Y794760D02*
X1115960D01*
X1092412Y805122D02*
X1094356Y803178D01*
X1080036Y808990D02*
X1085846Y814800D01*
X1078230Y808990D02*
X1080036D01*
X1085846Y814800D02*
X1099995D01*
X1090520Y768760D02*
X1115960D01*
X1102679Y801260D02*
X1115960D01*
X1100761Y803178D02*
X1102679Y801260D01*
X1094356Y803178D02*
X1100761D01*
X1099995Y814800D02*
X1106693Y808101D01*
X811530Y720090D02*
Y720340D01*
X823980Y732790D01*
X824230D01*
X1106693Y808101D02*
X1115619D01*
X1115960Y807760D01*
X715010Y617438D02*
X718294Y614154D01*
X715010Y617438D02*
Y624290D01*
X705570Y633730D02*
X715010Y624290D01*
X840122Y657860D02*
X842010D01*
X833882Y664100D02*
X840122Y657860D01*
X826770Y664100D02*
X833882D01*
X1219520Y732790D02*
Y734040D01*
X1209140Y769520D02*
X1216900D01*
X1203960Y774700D02*
X1209140Y769520D01*
X1190360Y775260D02*
X1190920Y774700D01*
X1203960D01*
X1216900Y769520D02*
X1220630Y765790D01*
Y764540D02*
Y765790D01*
X1190360Y788260D02*
X1206090D01*
X1207770Y789940D01*
X1220630D01*
X1190550Y814070D02*
X1203960D01*
X1211580Y821690D01*
X1190360Y814260D02*
X1190550Y814070D01*
X1211580Y821690D02*
X1220630D01*
X1081605Y729420D02*
X1115960D01*
X802346Y732790D02*
X824230D01*
X797266Y737870D02*
X802346Y732790D01*
X794300Y737870D02*
X797266D01*
X795570Y664210D02*
X795625Y664155D01*
X826715D01*
X826770Y664100D01*
X1080825Y719425D02*
Y728640D01*
X1073150Y711750D02*
X1080825Y719425D01*
Y728640D02*
X1081605Y729420D01*
X1043940Y788670D02*
Y814940D01*
X1043540Y815340D02*
X1043940Y814940D01*
X1055370Y800100D02*
X1072512D01*
X1043940Y788670D02*
X1055370Y800100D01*
X658078Y933450D02*
X662940D01*
X656590Y934938D02*
X658078Y933450D01*
X656590Y934938D02*
Y947202D01*
X658078Y948690D01*
X667812D01*
X670560Y951438D01*
Y961550D01*
X688180Y979170D01*
X827020Y673100D02*
X833120D01*
X1073150Y621750D02*
X1075277D01*
X1081681Y628154D01*
X1086624D01*
X1090930Y632460D01*
Y698282D01*
X1092418Y699770D01*
X1121192D01*
X1122680Y698282D01*
Y688810D02*
Y698282D01*
X823170Y742850D02*
X824230Y741790D01*
X814070Y786130D02*
X823170Y777030D01*
Y742850D02*
Y777030D01*
X834390Y709930D02*
Y732902D01*
X817160Y673100D02*
X826770D01*
X831850Y707390D02*
X834390Y709930D01*
X1064260Y771270D02*
Y784156D01*
X1065530Y785426D01*
X826770Y692150D02*
X832902D01*
X834390Y693638D01*
Y699662D01*
X832902Y701150D02*
X834390Y699662D01*
X826770Y701150D02*
X832902D01*
X827210Y701590D02*
Y705902D01*
X828698Y707390D01*
X831850D01*
X826770Y701150D02*
X827210Y701590D01*
X796880Y693380D02*
X817160Y673100D01*
X818570Y803330D02*
X826770D01*
X814070Y798830D02*
X818570Y803330D01*
X814070Y786130D02*
Y798830D01*
X796880Y693380D02*
X825540D01*
X826770Y692150D01*
X795570Y633730D02*
X798536D01*
X804306Y627960D01*
X795570Y694690D02*
X796880Y693380D01*
X773430Y883736D02*
Y900212D01*
X774918Y901700D01*
X791394D01*
X773270Y883576D02*
X773430Y883736D01*
X773270Y862330D02*
Y883576D01*
D19*
X1096760Y496570D02*
D03*
X1158760D02*
D03*
X1193280Y495300D02*
D03*
X1255280D02*
D03*
D20*
X563220Y800860D02*
D03*
X573220D02*
D03*
X583220D02*
D03*
X593220D02*
D03*
X633220D02*
D03*
X643220D02*
D03*
X653220Y800860D02*
D03*
X603220Y800860D02*
D03*
X613220D02*
D03*
X623220D02*
D03*
D21*
X535720Y604360D02*
D03*
Y614360D02*
D03*
X535720Y624360D02*
D03*
X535720Y634360D02*
D03*
Y644360D02*
D03*
Y654360D02*
D03*
Y674360D02*
D03*
Y684360D02*
D03*
Y694360D02*
D03*
Y704360D02*
D03*
Y714360D02*
D03*
Y724360D02*
D03*
Y734360D02*
D03*
Y744360D02*
D03*
Y754360D02*
D03*
Y764360D02*
D03*
Y774360D02*
D03*
Y784360D02*
D03*
X680720Y594360D02*
D03*
Y604360D02*
D03*
Y614360D02*
D03*
X680720Y624360D02*
D03*
X680720Y634360D02*
D03*
Y644360D02*
D03*
Y654360D02*
D03*
Y664360D02*
D03*
Y674360D02*
D03*
Y684360D02*
D03*
Y694360D02*
D03*
Y704360D02*
D03*
Y714360D02*
D03*
Y724360D02*
D03*
Y734360D02*
D03*
Y754360D02*
D03*
Y764360D02*
D03*
Y774360D02*
D03*
Y784360D02*
D03*
X535720Y664360D02*
D03*
Y594360D02*
D03*
X680720Y744360D02*
D03*
D22*
X560520Y698660D02*
D03*
D23*
X641120Y597560D02*
D03*
D24*
X777494Y933450D02*
D03*
D25*
X713486D02*
D03*
Y910336D02*
D03*
Y956564D02*
D03*
D26*
X668922Y933450D02*
D03*
X508620Y762650D02*
D03*
X503908D02*
D03*
X1225306Y847170D02*
D03*
X1220594D02*
D03*
X796106Y901700D02*
D03*
X664210Y933450D02*
D03*
X791394Y901700D02*
D03*
D27*
X469910Y772150D02*
D03*
X488910Y762650D02*
D03*
X469910Y753150D02*
D03*
D28*
X516255Y664210D02*
D03*
X499745D02*
D03*
D29*
X1268670Y848440D02*
D03*
X1252670D02*
D03*
X1289430Y715010D02*
D03*
X1273430D02*
D03*
D30*
X1190360Y827260D02*
D03*
X1115960D02*
D03*
X1190360Y762260D02*
D03*
Y781760D02*
D03*
Y742760D02*
D03*
Y801260D02*
D03*
Y820760D02*
D03*
X1115960Y775260D02*
D03*
X1190360Y729760D02*
D03*
Y736260D02*
D03*
X1115960D02*
D03*
Y820760D02*
D03*
Y788260D02*
D03*
Y742760D02*
D03*
Y749260D02*
D03*
X1190360Y794760D02*
D03*
Y755760D02*
D03*
Y768760D02*
D03*
Y807760D02*
D03*
Y775260D02*
D03*
Y788260D02*
D03*
Y749260D02*
D03*
Y814260D02*
D03*
X1115960Y781760D02*
D03*
Y814260D02*
D03*
Y807760D02*
D03*
Y801260D02*
D03*
Y794760D02*
D03*
Y768760D02*
D03*
Y762260D02*
D03*
Y755760D02*
D03*
Y729760D02*
D03*
D31*
X1070030Y829310D02*
D03*
X1029390Y953770D02*
D03*
X1020390D02*
D03*
X983560Y943610D02*
D03*
X1061030Y829310D02*
D03*
X992560Y943610D02*
D03*
X1069340Y820420D02*
D03*
X1060340D02*
D03*
D32*
X1163320Y706120D02*
D03*
X1064260Y790842D02*
D03*
X582930Y821506D02*
D03*
Y826218D02*
D03*
X641350Y827856D02*
D03*
Y823144D02*
D03*
X1163320Y710832D02*
D03*
X1064260Y786130D02*
D03*
D33*
Y755270D02*
D03*
Y771270D02*
D03*
D34*
X609600Y904240D02*
D03*
D35*
Y846240D02*
D03*
X586600D02*
D03*
X632600D02*
D03*
D36*
X826770Y794330D02*
D03*
X1155700Y541710D02*
D03*
X1185940Y541020D02*
D03*
X824230Y732790D02*
D03*
X826770Y664100D02*
D03*
Y803330D02*
D03*
X1185940Y532020D02*
D03*
X1155700Y532710D02*
D03*
X826770Y627960D02*
D03*
Y636960D02*
D03*
Y673100D02*
D03*
X824230Y741790D02*
D03*
X826770Y701150D02*
D03*
Y692150D02*
D03*
D37*
X1132840Y539750D02*
D03*
X1207850Y538480D02*
D03*
X1227850D02*
D03*
X1112840Y539750D02*
D03*
D38*
X1458200Y726440D02*
D03*
X1361200D02*
D03*
X1456930Y886460D02*
D03*
X1359930D02*
D03*
X1459470Y589280D02*
D03*
X1362470D02*
D03*
X1454390Y1049020D02*
D03*
X1357390D02*
D03*
D39*
X1240630Y789940D02*
D03*
X1239520Y732790D02*
D03*
X1240630Y764540D02*
D03*
Y821690D02*
D03*
X1219520Y732790D02*
D03*
X1220630Y821690D02*
D03*
Y764540D02*
D03*
Y789940D02*
D03*
D40*
X870204Y1101598D02*
D03*
D41*
X848360Y999490D02*
D03*
D42*
X796290Y1029970D02*
D03*
Y1078970D02*
D03*
D43*
X668180Y979170D02*
D03*
X753270Y862330D02*
D03*
D44*
X875390Y513830D02*
D03*
X889440Y863600D02*
D03*
X874120Y611620D02*
D03*
X1044770Y684530D02*
D03*
D45*
X875390Y448830D02*
D03*
X1046040Y863600D02*
D03*
X888170Y684530D02*
D03*
X937620Y579120D02*
D03*
X938890Y481330D02*
D03*
X919120Y611620D02*
D03*
X920390Y513830D02*
D03*
Y448830D02*
D03*
X919120Y546620D02*
D03*
X874120D02*
D03*
D46*
X537760Y829310D02*
D03*
X704300Y737870D02*
D03*
X705570Y664210D02*
D03*
Y633730D02*
D03*
Y694690D02*
D03*
D47*
X1146810Y892810D02*
D03*
X979570Y1016000D02*
D03*
D48*
X1096810Y892810D02*
D03*
X1029570Y1016000D02*
D03*
D49*
X1032510Y1106815D02*
D03*
D50*
X1122680Y588810D02*
D03*
X1043940Y788670D02*
D03*
D51*
X993540Y815340D02*
D03*
D52*
X916940Y937260D02*
D03*
D53*
Y1117860D02*
D03*
D54*
X934940Y788670D02*
D03*
D55*
X861060Y740410D02*
D03*
D56*
X447760Y829310D02*
D03*
X794300Y737870D02*
D03*
X795570Y664210D02*
D03*
X1073150Y621750D02*
D03*
X795570Y694690D02*
D03*
Y633730D02*
D03*
D57*
X467360Y510540D02*
D03*
X1652270Y445770D02*
D03*
Y1144270D02*
D03*
X720090Y1143000D02*
D03*
D58*
X1125220Y444500D02*
D03*
X1228779D02*
D03*
D59*
X1626870Y765280D02*
D03*
Y540280D02*
D03*
Y812060D02*
D03*
Y1037060D02*
D03*
X1539240Y813330D02*
D03*
Y1038330D02*
D03*
X1530350Y539010D02*
D03*
Y764010D02*
D03*
D60*
X1228779Y368300D02*
D03*
X1125220D02*
D03*
D61*
X1041060Y740410D02*
D03*
D62*
X1073150Y711750D02*
D03*
D63*
X1043540Y815340D02*
D03*
D64*
X1122680Y688810D02*
D03*
D65*
X981710Y1106815D02*
D03*
D66*
X688180Y979170D02*
D03*
X773270Y862330D02*
D03*
D67*
X768290Y1055970D02*
D03*
D68*
X744220Y609600D02*
D03*
X476250Y727710D02*
D03*
X1054100Y374650D02*
D03*
X1206500Y553895D02*
D03*
X1327150Y586740D02*
D03*
X1137101Y559365D02*
D03*
X1653540Y1080770D02*
D03*
X1322070Y707390D02*
D03*
X842010Y636270D02*
D03*
X618490Y824230D02*
D03*
X689610Y935990D02*
D03*
X553720Y826770D02*
D03*
X511810Y579120D02*
D03*
Y607060D02*
D03*
X1064260Y855980D02*
D03*
X1006130Y953770D02*
D03*
X980440Y830580D02*
D03*
X1205230Y717550D02*
D03*
X1183640Y679450D02*
D03*
X1069340Y727710D02*
D03*
X946150Y1134110D02*
D03*
X958850Y953770D02*
D03*
X885190Y925830D02*
D03*
X718820Y981710D02*
D03*
X720090Y877570D02*
D03*
X557530Y872490D02*
D03*
X919480Y796290D02*
D03*
X847090Y718820D02*
D03*
X699770Y779780D02*
D03*
X461010Y637540D02*
D03*
X842010Y605980D02*
D03*
X477520Y854710D02*
D03*
X1578610Y763270D02*
D03*
X1562100Y1075690D02*
D03*
X1482090Y797560D02*
D03*
X1267620Y792480D02*
D03*
X1259006Y552886D02*
D03*
X1267460Y822960D02*
D03*
X1052830Y715010D02*
D03*
X704850Y716280D02*
D03*
X1097280Y758540D02*
D03*
X1083310Y778510D02*
D03*
X1097773Y781140D02*
D03*
X1078230Y808990D02*
D03*
X1092412Y805122D02*
D03*
X811530Y720090D02*
D03*
X1082040Y756920D02*
D03*
X842010Y657860D02*
D03*
Y679450D02*
D03*
D69*
X1133135Y816207D02*
D03*
X1145835D02*
D03*
X1158535D02*
D03*
X1171427Y816242D02*
D03*
X1133135Y796348D02*
D03*
X1145835D02*
D03*
X1158535D02*
D03*
X1171427Y796382D02*
D03*
X1133135Y777298D02*
D03*
X1145835D02*
D03*
X1158535D02*
D03*
X1171427Y777332D02*
D03*
X1133135Y759057D02*
D03*
X1145835D02*
D03*
X1158535D02*
D03*
X1171427Y759092D02*
D03*
X1132988Y740597D02*
D03*
X1145687D02*
D03*
X1158388D02*
D03*
X1171279Y740632D02*
D03*
D70*
X477520Y728980D02*
Y737870D01*
X476250Y727710D02*
X477520Y728980D01*
Y737870D02*
X482600Y742950D01*
X488950Y737652D02*
X490438Y739140D01*
X497840D01*
X488732Y742950D02*
X490220Y744438D01*
Y760920D01*
X488950Y666442D02*
Y737652D01*
X482600Y742950D02*
X488732D01*
X497840Y739140D02*
X503908Y745208D01*
X969010Y943610D02*
X983560D01*
X1001347Y958553D02*
X1002995Y956905D01*
X998190Y958553D02*
X1001347D01*
X993407Y953770D02*
X998190Y958553D01*
X983560Y943860D02*
X992670Y952970D01*
X1029390Y953770D02*
Y959158D01*
X1009650Y961390D02*
X1027158D01*
X1029390Y959158D01*
X958850Y953770D02*
X969010Y943610D01*
X791210Y933142D02*
Y952500D01*
X780034Y930910D02*
X788978D01*
X791210Y933142D01*
X513249Y657102D02*
X513884Y657737D01*
Y661839D01*
X513249Y635945D02*
Y657102D01*
X513884Y661839D02*
X516255Y664210D01*
X514042Y477520D02*
X852478D01*
X854710Y479752D01*
X511810D02*
Y579120D01*
X854710Y479752D02*
Y512118D01*
X511810Y479752D02*
X514042Y477520D01*
X874870Y514350D02*
X875390Y513830D01*
Y448830D02*
Y513830D01*
X854710Y512118D02*
X856942Y514350D01*
X874870D01*
X488950Y666442D02*
X491182Y664210D01*
X499745D01*
X516405Y664360D02*
X535720D01*
X511810Y634507D02*
X513249Y635945D01*
X511810Y607060D02*
Y634507D01*
X774392Y956310D02*
X787400D01*
X791210Y952500D01*
X772160Y958542D02*
X774392Y956310D01*
X767080Y972820D02*
X772160Y967740D01*
Y958542D02*
Y967740D01*
X737870Y975052D02*
X740102Y972820D01*
X767080D01*
X737870Y975052D02*
Y984250D01*
X727710Y994410D02*
X737870Y984250D01*
X718820Y994410D02*
X727710D01*
X699770Y1013460D02*
X718820Y994410D01*
X661670Y1013460D02*
X699770D01*
X641350Y993140D02*
X661670Y1013460D01*
X647700Y929640D02*
X657860Y919480D01*
X647700Y958690D02*
X668180Y979170D01*
X647700Y929640D02*
Y958690D01*
X641350Y928370D02*
Y993140D01*
Y928370D02*
X660400Y909320D01*
X670347Y933450D02*
X682933D01*
X683772Y934289D02*
X687909D01*
X689610Y935990D01*
X682933Y933450D02*
X683772Y934289D01*
X706374Y930910D02*
X706755Y930529D01*
X701775Y930910D02*
X706374D01*
X710892Y933450D02*
X713486D01*
X708606Y931164D02*
X710892Y933450D01*
X709649Y932207D02*
X710892Y933450D01*
X708606Y930910D02*
Y931164D01*
X697874Y934811D02*
X701775Y930910D01*
X708606Y925776D02*
Y930529D01*
X710157Y933450D02*
X713486D01*
X690789Y934811D02*
X697874D01*
X689610Y935990D02*
X690789Y934811D01*
X692150Y909320D02*
X708606Y925776D01*
X695706Y919480D02*
X706755Y930529D01*
X657860Y919480D02*
X695706D01*
X660400Y909320D02*
X692150D01*
X618490Y821481D02*
Y824230D01*
Y821481D02*
Y824230D01*
Y821481D02*
X623220Y816751D01*
Y800860D02*
Y816751D01*
X613220Y800860D02*
Y816211D01*
X618490Y821481D01*
X777494Y933450D02*
X780034Y930910D01*
X540300Y826770D02*
X553720D01*
X537760Y829310D02*
X540300Y826770D01*
X537760Y812800D02*
Y829310D01*
X508620Y811312D02*
X510108Y812800D01*
X537760D01*
X508620Y762336D02*
X508956Y762000D01*
X514767D02*
X516255Y760512D01*
X508956Y762000D02*
X514767D01*
X508620Y762336D02*
Y762650D01*
Y811312D01*
X468848Y782320D02*
X488950D01*
X494030Y777240D01*
X467360Y773880D02*
X469090Y772150D01*
X494030Y763760D02*
Y777240D01*
X469090Y772150D02*
X469910D01*
X467360Y780832D02*
X468848Y782320D01*
X467360Y773880D02*
Y780832D01*
X494030Y763760D02*
X495140Y762650D01*
X503908D01*
X493060Y763760D02*
X494030D01*
X503908Y745208D02*
Y762650D01*
X490220Y760920D02*
X493060Y763760D01*
X516255Y664210D02*
Y760512D01*
D71*
X1172210Y374778D02*
Y457200D01*
X1178190Y463180D01*
Y495300D02*
Y512352D01*
Y495300D02*
X1193280D01*
X1169070Y474380D02*
Y516130D01*
X1178190Y463180D02*
Y495300D01*
Y512352D02*
X1185268Y519430D01*
X1160780Y466090D02*
X1169070Y474380D01*
X1185268Y519430D02*
X1200337D01*
X1205545Y524638D01*
Y532445D01*
D72*
X1172210Y374778D02*
X1178688Y368300D01*
X1054100Y334228D02*
Y374650D01*
Y334228D02*
X1059398Y328930D01*
X1135145Y525908D02*
Y536445D01*
Y525908D02*
X1140353Y520700D01*
X1168400D01*
X1133110Y538480D02*
X1135145Y536445D01*
X1277620Y449708D02*
Y506730D01*
X1272412Y444500D02*
X1277620Y449708D01*
X1223010Y444500D02*
X1272412D01*
X1245870Y538480D02*
X1277620Y506730D01*
X1222882Y571500D02*
X1228090Y566292D01*
X1191148Y571500D02*
X1222882D01*
X1185940Y541020D02*
Y566292D01*
X1191148Y571500D01*
X1228090Y539720D02*
Y566292D01*
X1178688Y368300D02*
X1223010D01*
X1206500Y539830D02*
Y553895D01*
X1327150Y586740D02*
X1359930D01*
X1137226Y559490D02*
X1150492D01*
X1137101Y559365D02*
X1137226Y559490D01*
X1150492D02*
X1155700Y554282D01*
X1131570Y330418D02*
Y368300D01*
X1125220D02*
X1131570D01*
X1069558D02*
X1125220D01*
X1068070Y369788D02*
Y474980D01*
X1155700Y541710D02*
Y554282D01*
X1626870Y501778D02*
Y540280D01*
X1487716Y496570D02*
X1621662D01*
X1626870Y501778D01*
X1459470Y524816D02*
Y589280D01*
Y524816D02*
X1487716Y496570D01*
X1458200Y713940D02*
X1468255Y703885D01*
X1476755D01*
X1481962Y517018D02*
Y698677D01*
X1476755Y703885D02*
X1481962Y698677D01*
X1487170Y511810D02*
X1527682D01*
X1481962Y517018D02*
X1487170Y511810D01*
X1458200Y713940D02*
Y726440D01*
X1652811Y1063001D02*
Y1080041D01*
X1653540Y1080770D01*
X1626870Y1037060D02*
X1652811Y1063001D01*
X1669178Y1096010D02*
X1680210Y1084978D01*
X1477010Y1085632D02*
X1487388Y1096010D01*
X1669178D01*
X1530350Y536951D02*
Y539010D01*
Y536951D02*
X1532890Y534411D01*
X1578610Y763270D02*
X1579641D01*
X1626870Y812060D02*
X1675002D01*
X1680210Y817268D01*
X1561371Y1074961D02*
X1562100Y1075690D01*
X1561371Y1073184D02*
Y1074961D01*
X1546988Y1066800D02*
X1554987D01*
X1541780Y1061592D02*
X1546988Y1066800D01*
X1541780Y1046251D02*
Y1061592D01*
X1482090Y797560D02*
X1482819Y796831D01*
X1485359D01*
X1517892Y764298D01*
X1540696Y1045167D02*
X1541780Y1046251D01*
X1554987Y1066800D02*
X1561371Y1073184D01*
X1539240Y1038330D02*
X1540696Y1039786D01*
Y1045167D01*
X1487170Y818538D02*
X1492378Y813330D01*
X1580646Y764275D02*
X1625865D01*
X1487170Y818538D02*
Y879982D01*
X1481962Y885190D02*
X1487170Y879982D01*
X1625865Y764275D02*
X1626870Y765280D01*
X1454390Y1049020D02*
Y1061520D01*
X1517892Y764298D02*
X1530062D01*
X1680210Y817268D02*
Y1084978D01*
X1530062Y764298D02*
X1530251Y764109D01*
X1477010Y1076783D02*
Y1085632D01*
X1456930Y886460D02*
X1458200Y885190D01*
X1471802Y1071575D02*
X1477010Y1076783D01*
X1579641Y763270D02*
X1580646Y764275D01*
X1454390Y1061520D02*
X1464445Y1071575D01*
X1458200Y885190D02*
X1481962D01*
X1527682Y511810D02*
X1532890Y517018D01*
X1492378Y813330D02*
X1539240D01*
X1532890Y517018D02*
Y534411D01*
X1464445Y1071575D02*
X1471802D01*
X1337310Y722630D02*
X1361200D01*
X1322070Y707390D02*
X1337310Y722630D01*
X1351145Y708224D02*
X1361200Y718279D01*
Y726440D01*
X1336040Y858697D02*
X1341248Y863905D01*
X1243250Y736600D02*
X1330832D01*
X1341248Y863905D02*
X1349875D01*
X1330832Y736600D02*
X1336040Y741808D01*
Y858697D01*
X1325650Y1043582D02*
X1331088Y1049020D01*
X1320442Y769620D02*
X1325650Y774828D01*
Y1043582D01*
X1245848Y769620D02*
X1320442D01*
X1349875Y863905D02*
X1359930Y873960D01*
Y886460D01*
X1331088Y1049020D02*
X1357390D01*
X979570Y1016000D02*
X982125Y1013445D01*
Y1008442D02*
X982330Y1008237D01*
Y944840D02*
Y1008237D01*
X982125Y1008442D02*
Y1013445D01*
X1006130Y960039D02*
Y992560D01*
Y956519D02*
Y960039D01*
Y992560D02*
X1029570Y1016000D01*
X1032510Y1106815D02*
Y1128902D01*
X1027302Y1134110D02*
X1032510Y1128902D01*
X947910Y1134110D02*
X1027302D01*
X1029570Y1016000D02*
Y1017383D01*
X1032510Y1020323D01*
Y1106815D01*
X829310Y1142872D02*
X834518Y1148080D01*
X829310Y1084580D02*
Y1142872D01*
X932180Y1148080D02*
X946150Y1134110D01*
X834518Y1148080D02*
X932180D01*
X823700Y1078970D02*
X829310Y1084580D01*
X808415Y1029970D02*
X824230Y1014155D01*
Y1004698D02*
Y1014155D01*
Y1004698D02*
X829438Y999490D01*
X848360D01*
X803910Y1029970D02*
X808415D01*
X1068070Y474980D02*
X1084580Y491490D01*
X1068070Y369788D02*
X1069558Y368300D01*
X931170Y1117860D02*
X946150Y1132840D01*
X916940Y1117860D02*
X931170D01*
X803910Y1078970D02*
X823700D01*
X1144960Y541710D02*
X1155700D01*
X1141730Y538480D02*
X1144960Y541710D01*
X1134110Y538480D02*
X1141730D01*
X1131570Y444500D02*
X1153160Y466090D01*
X1160780D01*
X1228330Y538480D02*
X1245870D01*
X1235330Y544960D02*
X1242820Y552450D01*
X1259006D01*
X1096760Y496570D02*
Y516370D01*
X1101090Y520700D01*
X1111032D01*
X1112520Y522188D01*
Y539430D01*
X1084580Y491490D02*
Y495082D01*
X1086068Y496570D01*
X1096760D01*
X1130082Y328930D02*
X1131570Y330418D01*
X1059398Y328930D02*
X1130082D01*
X958205Y1083310D02*
X981710Y1106815D01*
X888492Y1083310D02*
X958205D01*
X870204Y1101598D02*
X888492Y1083310D01*
M02*
