G04*
G04 #@! TF.GenerationSoftware,Altium Limited,Altium Designer,26.4.1 (12)*
G04*
G04 Layer_Color=16711935*
%FSLAX44Y44*%
%MOMM*%
G71*
G04*
G04 #@! TF.SameCoordinates,0A6EDB4D-EBB9-47F7-83F3-19040AB4B5EA*
G04*
G04*
G04 #@! TF.FilePolarity,Positive*
G04*
G01*
G75*
%ADD10C,0.2000*%
%ADD12C,0.1500*%
%ADD18C,0.1000*%
D10*
X1240570Y725540D02*
Y740040D01*
X1218470D02*
X1240570D01*
X1218470Y725540D02*
Y740040D01*
Y725540D02*
X1240570D01*
X1219580Y814440D02*
Y828940D01*
Y814440D02*
X1241680D01*
Y828940D01*
X1219580D02*
X1241680D01*
X1219580Y757290D02*
Y771790D01*
Y757290D02*
X1241680D01*
Y771790D01*
X1219580D02*
X1241680D01*
X1220350Y842170D02*
Y852170D01*
Y842170D02*
X1225550D01*
Y852170D01*
X1220350D02*
X1225550D01*
X1241680Y782690D02*
Y797190D01*
X1219580D02*
X1241680D01*
X1219580Y782690D02*
Y797190D01*
Y782690D02*
X1241680D01*
X1158320Y711076D02*
X1168320D01*
X1158320Y705876D02*
Y711076D01*
Y705876D02*
X1168320D01*
Y711076D01*
X1059260Y785886D02*
X1069260D01*
Y791086D01*
X1059260D02*
X1069260D01*
X1059260Y785886D02*
Y791086D01*
X865120Y547620D02*
Y610620D01*
Y547620D02*
X928120D01*
Y610620D01*
X865120D02*
X928120D01*
X636350Y822900D02*
X646350D01*
Y828100D01*
X636350D02*
X646350D01*
X636350Y822900D02*
Y828100D01*
X498000Y670460D02*
X518000D01*
Y657960D02*
Y670460D01*
X498000Y657960D02*
X518000D01*
X498000D02*
Y670460D01*
X866390Y512830D02*
X929390D01*
Y449830D02*
Y512830D01*
X866390Y449830D02*
X929390D01*
X866390D02*
Y512830D01*
X503664Y767650D02*
X508864D01*
Y757650D02*
Y767650D01*
X503664Y757650D02*
X508864D01*
X503664D02*
Y767650D01*
X576100Y856740D02*
X643100D01*
Y893740D01*
X576100D02*
X643100D01*
X576100Y856740D02*
Y893740D01*
X663966Y938450D02*
X669166D01*
Y928450D02*
Y938450D01*
X663966Y928450D02*
X669166D01*
X663966D02*
Y938450D01*
X791150Y906700D02*
X796350D01*
Y896700D02*
Y906700D01*
X791150Y896700D02*
X796350D01*
X791150D02*
Y906700D01*
X955310Y1124450D02*
X1058910D01*
X955310Y1077730D02*
Y1124450D01*
Y1077730D02*
X1058910D01*
Y1124450D01*
X907740Y883100D02*
X1027740D01*
Y844100D02*
Y883100D01*
X907740Y844100D02*
X1027740D01*
X907740D02*
Y883100D01*
X1147680Y593810D02*
Y683810D01*
X1097680Y593810D02*
X1147680D01*
X1097680D02*
Y683810D01*
X1147680D01*
X906470Y665030D02*
X1026470D01*
X906470D02*
Y704030D01*
X1026470D01*
Y665030D02*
Y704030D01*
X951340Y801370D02*
X1027540D01*
Y775970D02*
Y801370D01*
X951340Y775970D02*
X1027540D01*
X951340D02*
Y801370D01*
X1000540Y807340D02*
X1036540D01*
X1000540D02*
Y823340D01*
X1036540D01*
Y807340D02*
Y823340D01*
X577930Y821262D02*
X587930D01*
Y826462D01*
X577930D02*
X587930D01*
X577930Y821262D02*
Y826462D01*
D12*
X705680Y979170D02*
G03*
X705680Y979170I-27500J0D01*
G01*
X790770Y862330D02*
G03*
X790770Y862330I-27500J0D01*
G01*
D18*
X1096260Y480570D02*
Y512570D01*
Y480570D02*
X1159260D01*
Y512570D01*
X1096260D02*
X1159260D01*
X1589370Y522780D02*
Y782780D01*
X1664370D01*
Y522780D02*
Y782780D01*
X1589370Y522780D02*
X1664370D01*
X1589370Y794560D02*
X1664370D01*
Y1054560D01*
X1589370D02*
X1664370D01*
X1589370Y794560D02*
Y1054560D01*
X1501740Y795830D02*
X1576740D01*
Y1055830D01*
X1501740D02*
X1576740D01*
X1501740Y795830D02*
Y1055830D01*
X1492850Y521510D02*
Y781510D01*
X1567850D01*
Y521510D02*
Y781510D01*
X1492850Y521510D02*
X1567850D01*
X1078220Y339300D02*
Y473500D01*
Y339300D02*
X1163221D01*
Y473500D01*
X1078220D02*
X1163221D01*
X1181779Y339300D02*
Y473500D01*
Y339300D02*
X1266780D01*
Y473500D01*
X1181779D02*
X1266780D01*
X1192780Y511300D02*
X1255780D01*
Y479300D02*
Y511300D01*
X1192780Y479300D02*
X1255780D01*
X1192780D02*
Y511300D01*
X821290Y1027970D02*
Y1138970D01*
X771290D02*
X821290D01*
X771290Y1027970D02*
X821290D01*
X771290D02*
Y1138970D01*
M02*
