M48
;Layer_Color=9474304
;FILE_FORMAT=4:4
METRIC
;TYPE=PLATED
T01F00S00C0.3000
T02F00S00C0.6500
T03F00S00C0.7000
T04F00S00C0.7112
T05F00S00C0.8000
T06F00S00C0.8500
T07F00S00C0.9000
T08F00S00C1.0000
T10F00S00C1.0160
T11F00S00C1.0668
T12F00S00C1.1000
T13F00S00C1.1500
T14F00S00C1.3208
T15F00S00C1.6000
T16F00S00C3.2000
%
T01
X01132988Y00740597
X01145687
X01158388
X01171279Y00740632
X01171427Y00759092
X01158535Y00759057
X01145835
X01133135
Y00777298
X01145835
X01158535
X01171427Y00777332
Y00796382
X01158535Y00796348
X01145835
X01133135
Y00816207
X01145835
X01158535
X01171427Y00816242
T02
X00993540Y00815340
X01043540
T03
X00753270Y00862330
X00773270
X00688180Y00979170
X00668180
T04
X01054100Y00374650
X01206500Y00553895
X01259006Y00552886
X01327150Y00586740
X01322070Y00707390
X01205230Y00717550
X01267620Y00792480
X01578610Y00763270
X01183640Y00679450
X01069340Y00727710
X01052830Y00715010
X01082040Y00756920
X01097280Y00758540
X01097773Y00781140
X01083310Y00778510
X01137101Y00559365
X00842010Y00605980
Y00636270
Y00657860
Y00679450
X00847090Y00718820
X00811530Y00720090
X00704850Y00716280
X00699770Y00779780
X00744220Y00609600
X00511810Y00607060
Y00579120
X00461010Y00637540
X00476250Y00727710
X00477520Y00854710
X00557530Y00872490
X00553720Y00826770
X00618490Y00824230
X00720090Y00877570
X00689610Y00935990
X00718820Y00981710
X00885190Y00925830
X00958850Y00953770
X01006130
X00980440Y00830580
X00919480Y00796290
X01078230Y00808990
X01092412Y00805122
X01064260Y00855980
X00946150Y01134110
X01267460Y00822960
X01482090Y00797560
X01562100Y01075690
X01653540Y01080770
T05
X01122680Y00588810
Y00688810
X01043940Y00788670
X00934940
T06
X00795570Y00633730
Y00664210
Y00694690
X00794300Y00737870
X01073150Y00711750
Y00621750
X00705570Y00633730
Y00664210
Y00694690
X00704300Y00737870
X00537760Y00829310
X00447760
T07
X01096810Y00892810
X01146810
X01029570Y01016000
X00979570
T08
X00875390Y00448830
X00920390
X00938890Y00481330
X00920390Y00513830
X00919120Y00546620
X00874120
X00875390Y00513830
X00874120Y00611620
X00919120
X00937620Y00579120
X00888170Y00684530
X01044770
X01046040Y00863600
X00889440
T10
X00861060Y00740410
X01041060
T11
X00848360Y00999490
X00870204Y01101598
T12
X01626870Y00540280
Y00765280
X01530350Y00764010
Y00539010
X01539240Y00813330
Y01038330
X01626870Y01037060
Y00812060
T13
X00981710Y01106815
X01032510
T14
X00916940Y00937260
Y01117860
T15
X01125220Y00368300
X01228779
Y00444500
X01125220
T16
X01652270Y00445770
X00467360Y00510540
X00720090Y01143000
X01652270Y01144270
M30
